mtllib material.mtl
usemtl Material-塑胶.004
v -0.05890900 0.01337500 -0.00100000
v -0.05845200 0.01291700 -0.00100000
v -0.05782700 0.01400000 -0.00100000
v -0.05782700 0.01275000 -0.00100000
v -0.05720200 0.01291700 -0.00100000
v -0.05845200 0.01508200 -0.00100000
v -0.05890900 0.01462500 -0.00100000
v -0.05907700 0.01400000 -0.00100000
v -0.05674400 0.01462500 -0.00100000
v -0.05720200 0.01508200 -0.00100000
v -0.05782700 0.01525000 -0.00100000
v -0.05674400 0.01337500 -0.00100000
v -0.05657700 0.01400000 -0.00100000
v -0.05674400 0.01337500 0.00500000
v -0.05720200 0.01291700 0.00500000
v -0.05782700 0.01400000 0.00500000
v -0.05782700 0.01275000 0.00500000
v -0.05845200 0.01291700 0.00500000
v -0.05720200 0.01508200 0.00500000
v -0.05674400 0.01462500 0.00500000
v -0.05657700 0.01400000 0.00500000
v -0.05890900 0.01462500 0.00500000
v -0.05845200 0.01508200 0.00500000
v -0.05782700 0.01525000 0.00500000
v -0.05890900 0.01337500 0.00500000
v -0.05907700 0.01400000 0.00500000
v -0.05782700 0.01275000 0.00500000
v -0.05782700 0.01275000 -0.00100000
v -0.05845200 0.01291700 0.00500000
v -0.05845200 0.01291700 -0.00100000
v -0.05845200 0.01291700 0.00500000
v -0.05845200 0.01291700 -0.00100000
v -0.05890900 0.01337500 0.00500000
v -0.05890900 0.01337500 -0.00100000
v -0.05890900 0.01337500 0.00500000
v -0.05890900 0.01337500 -0.00100000
v -0.05907700 0.01400000 0.00500000
v -0.05907700 0.01400000 -0.00100000
v -0.05907700 0.01400000 0.00500000
v -0.05907700 0.01400000 -0.00100000
v -0.05890900 0.01462500 0.00500000
v -0.05890900 0.01462500 -0.00100000
v -0.05890900 0.01462500 0.00500000
v -0.05890900 0.01462500 -0.00100000
v -0.05845200 0.01508200 0.00500000
v -0.05845200 0.01508200 -0.00100000
v -0.05845200 0.01508200 0.00500000
v -0.05845200 0.01508200 -0.00100000
v -0.05782700 0.01525000 0.00500000
v -0.05782700 0.01525000 -0.00100000
v -0.05782700 0.01525000 0.00500000
v -0.05782700 0.01525000 -0.00100000
v -0.05720200 0.01508200 0.00500000
v -0.05720200 0.01508200 -0.00100000
v -0.05720200 0.01508200 0.00500000
v -0.05720200 0.01508200 -0.00100000
v -0.05674400 0.01462500 0.00500000
v -0.05674400 0.01462500 -0.00100000
v -0.05674400 0.01462500 0.00500000
v -0.05674400 0.01462500 -0.00100000
v -0.05657700 0.01400000 0.00500000
v -0.05657700 0.01400000 -0.00100000
v -0.05657700 0.01400000 0.00500000
v -0.05657700 0.01400000 -0.00100000
v -0.05674400 0.01337500 0.00500000
v -0.05674400 0.01337500 -0.00100000
v -0.05674400 0.01337500 0.00500000
v -0.05674400 0.01337500 -0.00100000
v -0.05720200 0.01291700 0.00500000
v -0.05720200 0.01291700 -0.00100000
v -0.05720200 0.01291700 0.00500000
v -0.05720200 0.01291700 -0.00100000
v -0.05782700 0.01275000 0.00500000
v -0.05782700 0.01275000 -0.00100000
vn -0.00000000 -0.00000000 1.00000000
vn -0.00000000 -0.00000000 1.00000000
vn -0.00000000 -0.00000000 1.00000000
vn -0.00000000 -0.00000000 1.00000000
vn -0.00000000 -0.00000000 1.00000000
vn -0.00000000 -0.00000000 1.00000000
vn -0.00000000 -0.00000000 1.00000000
vn -0.00000000 -0.00000000 1.00000000
vn -0.00000000 -0.00000000 1.00000000
vn -0.00000000 -0.00000000 1.00000000
vn -0.00000000 -0.00000000 1.00000000
vn -0.00000000 -0.00000000 1.00000000
vn -0.00000000 -0.00000000 1.00000000
vn -0.00000000 -0.00000000 -1.00000000
vn -0.00000000 -0.00000000 -1.00000000
vn -0.00000000 -0.00000000 -1.00000000
vn -0.00000000 -0.00000000 -1.00000000
vn -0.00000000 -0.00000000 -1.00000000
vn -0.00000000 -0.00000000 -1.00000000
vn -0.00000000 -0.00000000 -1.00000000
vn -0.00000000 -0.00000000 -1.00000000
vn -0.00000000 -0.00000000 -1.00000000
vn -0.00000000 -0.00000000 -1.00000000
vn -0.00000000 -0.00000000 -1.00000000
vn -0.00000000 -0.00000000 -1.00000000
vn -0.00000000 -0.00000000 -1.00000000
vn 0.25890000 0.96590000 -0.00000000
vn 0.25890000 0.96590000 -0.00000000
vn 0.25890000 0.96590000 -0.00000000
vn 0.25890000 0.96590000 -0.00000000
vn 0.70710000 0.70710000 -0.00000000
vn 0.70710000 0.70710000 -0.00000000
vn 0.70710000 0.70710000 -0.00000000
vn 0.70710000 0.70710000 -0.00000000
vn 0.96590000 0.25880000 -0.00000000
vn 0.96590000 0.25880000 -0.00000000
vn 0.96590000 0.25880000 -0.00000000
vn 0.96590000 0.25880000 -0.00000000
vn 0.96590000 -0.25880000 -0.00000000
vn 0.96590000 -0.25880000 -0.00000000
vn 0.96590000 -0.25880000 -0.00000000
vn 0.96590000 -0.25880000 -0.00000000
vn 0.70710000 -0.70720000 -0.00000000
vn 0.70710000 -0.70720000 -0.00000000
vn 0.70710000 -0.70720000 -0.00000000
vn 0.70710000 -0.70720000 -0.00000000
vn 0.25890000 -0.96590000 -0.00000000
vn 0.25890000 -0.96590000 -0.00000000
vn 0.25890000 -0.96590000 -0.00000000
vn 0.25890000 -0.96590000 -0.00000000
vn -0.25880000 -0.96590000 -0.00000000
vn -0.25880000 -0.96590000 -0.00000000
vn -0.25880000 -0.96590000 -0.00000000
vn -0.25880000 -0.96590000 -0.00000000
vn -0.70710000 -0.70710000 -0.00000000
vn -0.70710000 -0.70710000 -0.00000000
vn -0.70710000 -0.70710000 -0.00000000
vn -0.70710000 -0.70710000 -0.00000000
vn -0.96590000 -0.25890000 -0.00000000
vn -0.96590000 -0.25890000 -0.00000000
vn -0.96590000 -0.25890000 -0.00000000
vn -0.96590000 -0.25890000 -0.00000000
vn -0.96590000 0.25880000 -0.00000000
vn -0.96590000 0.25880000 -0.00000000
vn -0.96590000 0.25880000 -0.00000000
vn -0.96590000 0.25880000 -0.00000000
vn -0.70710000 0.70710000 -0.00000000
vn -0.70710000 0.70710000 -0.00000000
vn -0.70710000 0.70710000 -0.00000000
vn -0.70710000 0.70710000 -0.00000000
vn -0.25880000 0.96590000 -0.00000000
vn -0.25880000 0.96590000 -0.00000000
vn -0.25880000 0.96590000 -0.00000000
vn -0.25880000 0.96590000 -0.00000000
f 1//1 2//2 3//3
f 3//3 2//2 4//4
f 3//3 4//4 5//5
f 6//6 7//7 3//3
f 3//3 7//7 8//8
f 3//3 8//8 1//1
f 9//9 10//10 3//3
f 3//3 10//10 11//11
f 3//3 11//11 6//6
f 5//5 12//12 3//3
f 3//3 12//12 13//13
f 3//3 13//13 9//9
f 14//14 15//15 16//16
f 16//16 15//15 17//17
f 16//16 17//17 18//18
f 19//19 20//20 16//16
f 16//16 20//20 21//21
f 16//16 21//21 14//14
f 22//22 23//23 16//16
f 16//16 23//23 24//24
f 16//16 24//24 19//19
f 18//18 25//25 16//16
f 16//16 25//25 26//26
f 16//16 26//26 22//22
f 27//27 28//28 29//29
f 29//29 28//28 30//30
f 31//31 32//32 33//33
f 33//33 32//32 34//34
f 35//35 36//36 37//37
f 37//37 36//36 38//38
f 39//39 40//40 41//41
f 41//41 40//40 42//42
f 43//43 44//44 45//45
f 45//45 44//44 46//46
f 47//47 48//48 49//49
f 49//49 48//48 50//50
f 51//51 52//52 53//53
f 53//53 52//52 54//54
f 55//55 56//56 57//57
f 57//57 56//56 58//58
f 59//59 60//60 61//61
f 61//61 60//60 62//62
f 63//63 64//64 65//65
f 65//65 64//64 66//66
f 67//67 68//68 69//69
f 69//69 68//68 70//70
f 71//71 72//72 73//73
f 73//73 72//72 74//74

