# Blender 4.4.3
# www.blender.org
mtllib head_link1.mtl
o head_link1
v -0.019999 -0.013197 0.022892
v -0.019999 -0.014265 0.024341
v -0.009700 -0.012800 0.024063
v -0.027000 -0.024589 0.052363
v -0.027000 -0.026727 0.036446
v -0.027000 -0.029982 0.045632
v -0.027000 -0.015964 0.034486
v -0.027000 -0.010631 0.042205
v -0.027000 -0.011942 0.049105
v -0.027000 -0.017621 0.053238
v 0.026000 -0.028210 0.037529
v 0.026000 -0.019729 0.054130
v 0.026000 -0.029242 0.048626
v 0.026000 -0.011319 0.049192
v 0.026000 -0.011790 0.039486
v 0.026000 -0.019010 0.033916
v -0.009925 -0.020210 0.017023
v -0.019998 -0.019322 0.016024
v -0.020000 -0.020071 0.017606
v -0.009925 -0.026840 0.023930
v -0.020000 -0.025988 0.023829
v -0.020000 -0.027308 0.023283
v -0.020000 -0.027342 0.024592
v -0.020000 -0.012350 0.023875
v -0.020000 -0.012750 0.024866
v -0.020000 -0.029750 0.044000
v -0.020000 -0.028994 0.040439
v -0.020000 -0.023971 0.034697
v -0.020000 -0.016495 0.035128
v -0.020000 -0.011523 0.039340
v -0.020000 -0.010327 0.042778
v -0.020000 -0.011319 0.049192
v -0.020000 -0.017011 0.053200
v -0.020000 -0.020612 0.053731
v -0.020000 -0.027801 0.050779
v 0.009962 -0.027531 0.016554
v 0.020000 -0.028029 0.017075
v 0.020000 -0.027158 0.016158
v 0.009962 -0.027446 0.031469
v 0.020000 -0.027981 0.031229
v 0.020000 -0.027113 0.032012
v 0.019802 -0.012403 0.017671
v 0.020000 -0.013217 0.017058
v 0.019890 -0.012328 0.015291
v 0.020000 -0.013261 0.036329
v 0.020000 -0.010327 0.042778
v 0.020000 -0.010631 0.046406
v 0.020000 -0.012949 0.050622
v 0.020000 -0.017011 0.053200
v 0.020000 -0.020304 0.053740
v 0.020000 -0.027255 0.051360
v 0.020000 -0.029750 0.044000
v 0.020000 -0.028994 0.040439
v 0.026000 -0.027826 0.038314
v 0.020000 -0.026166 0.036547
v 0.020000 -0.021659 0.034493
v 0.020000 -0.030070 0.054000
v -0.020000 -0.030070 0.054000
v -0.020000 -0.030070 0.014000
v 0.020000 -0.030070 0.014000
v 0.020000 -0.009930 0.054000
v -0.020000 -0.009930 0.054000
v -0.020000 -0.009930 0.014000
v 0.020000 -0.009930 0.014000
v 0.020000 -0.012554 0.031531
v -0.011748 -0.000812 -0.052500
v -0.011763 -0.015500 -0.052497
v 0.000847 -0.004316 -0.052500
v 0.011763 -0.015500 -0.052498
v 0.005177 0.000270 -0.052500
v 0.011761 0.001799 -0.052500
v 0.009280 0.011267 -0.052500
v -0.011416 0.012375 -0.052500
v -0.002940 0.003428 -0.052500
v -0.003173 0.003063 -0.054496
v 0.004732 -0.000864 -0.054500
v -0.002457 -0.004667 -0.054500
v 0.009470 0.012499 -0.054500
v 0.011763 0.007500 -0.054500
v -0.010761 0.009336 -0.054500
v -0.011763 -0.015609 -0.054492
v 0.011763 -0.016067 -0.054475
v 0.011763 -0.015500 -0.000005
v -0.011763 -0.015500 -0.000006
v 0.000125 0.019500 0.012078
v -0.019763 0.019500 0.002737
v -0.019763 0.019500 0.018000
v 0.019763 0.019500 0.002737
v 0.019763 0.019500 0.018000
v 0.022498 -0.013749 0.034808
v 0.020500 -0.013408 0.034709
v 0.020500 -0.020278 0.030094
v 0.022500 -0.024808 0.030907
v 0.020571 -0.025780 0.034580
v 0.020500 -0.002500 0.035000
v 0.022500 -0.002500 0.035000
v 0.020500 0.017500 0.015000
v 0.022500 0.017500 0.015000
v 0.021132 0.017500 0.000367
v 0.019762 0.017500 0.000051
v 0.020132 0.017500 0.002099
v 0.022133 0.017500 0.001368
v 0.020401 0.017500 0.002368
v 0.022500 0.017500 0.002737
v 0.020500 0.017500 0.002737
v 0.011763 -0.017500 -0.051763
v -0.011763 -0.017500 -0.051763
v -0.011763 -0.017133 -0.053132
v 0.019763 0.016763 0.000000
v -0.019763 0.017132 0.000000
v -0.019763 0.017815 0.000233
v 0.019763 0.018132 0.000367
v -0.019763 0.019133 0.001368
v 0.019763 0.019133 0.001368
v -0.021132 0.017500 0.000367
v -0.020500 0.017500 0.002386
v -0.022133 0.017500 0.001368
v -0.022500 0.017500 0.002737
v -0.020500 0.017500 0.015000
v -0.022500 0.017500 0.015000
v -0.020500 -0.002500 0.035000
v -0.022500 -0.002500 0.035000
v -0.022500 -0.015000 0.035000
v -0.020500 -0.013997 0.034842
v -0.022500 -0.018345 0.031164
v -0.020500 -0.022115 0.030608
v -0.022301 -0.025281 0.034948
v -0.019763 0.017498 0.002002
v -0.019763 0.017500 0.018000
v 0.019763 0.017500 0.018000
v 0.019763 0.017500 0.002737
v 0.019765 0.017159 0.002000
v 0.020500 -0.030500 0.035000
v 0.022500 -0.030500 0.035000
v 0.020500 -0.013058 0.016098
v 0.020500 0.000424 0.011814
v 0.020500 -0.030500 0.002737
v 0.020500 -0.026935 0.016573
v 0.019763 -0.030500 -0.000000
v 0.021132 -0.030500 0.000367
v 0.022500 -0.030500 0.002737
v 0.022133 -0.030500 0.001368
v 0.022500 -0.012634 0.016302
v 0.022500 0.000343 0.011547
v 0.022500 -0.027537 0.016328
v 0.012243 -0.009588 -0.000000
v 0.012763 -0.013763 0.002000
v 0.011763 -0.014263 0.002000
v -0.011763 -0.017500 0.000098
v -0.011763 -0.016132 0.001633
v -0.011763 -0.014263 0.002000
v 0.011763 -0.017500 -0.000022
v 0.011763 -0.016132 0.001633
v -0.012763 -0.013763 -0.000000
v -0.012763 -0.013763 0.002000
v -0.022500 -0.030500 0.035000
v -0.020500 -0.030500 0.035000
v -0.022500 -0.013227 0.024250
v -0.022500 -0.019923 0.016599
v -0.022490 -0.027548 0.024107
v -0.022500 -0.030500 0.002737
v -0.022500 0.000073 0.011767
v -0.019763 -0.030500 -0.000000
v -0.021132 -0.030500 0.000367
v -0.022133 -0.030500 0.001368
v -0.012763 -0.030500 -0.000000
v -0.006023 0.001080 -0.000000
v -0.007788 -0.000614 -0.000000
v 0.000631 -0.005343 -0.000000
v -0.004252 -0.001342 0.000034
v -0.000080 0.006717 0.000000
v 0.005007 0.001069 -0.000000
v -0.000857 0.007394 0.000000
v 0.002093 0.003965 0.001994
v 0.012763 -0.030500 -0.000000
v 0.001459 -0.004348 0.001997
v -0.020500 -0.027258 0.023748
v -0.020500 -0.019695 0.016234
v -0.020500 -0.030500 0.002737
v -0.020500 -0.013098 0.024216
v -0.020500 -0.000424 0.011814
v -0.000272 0.017500 0.011792
v -0.006863 -0.000989 0.002000
v -0.007385 0.000754 0.002000
v 0.007296 -0.000077 0.002000
v -0.000887 0.005113 0.002000
v 0.019763 -0.030500 0.002000
v 0.020132 -0.030500 0.002099
v 0.020401 -0.030500 0.002368
v 0.012763 -0.030500 0.002000
v 0.002600 -0.014763 0.002000
v -0.012763 -0.030500 0.002000
v -0.020104 -0.030500 0.002001
vn -0.0979 0.8009 0.5908
vn -1.0000 -0.0000 -0.0000
vn 1.0000 -0.0000 -0.0000
vn 1.0000 -0.0000 -0.0001
vn 0.0372 0.9032 0.4275
vn -0.0415 -0.3817 0.9234
vn -0.0481 0.9985 0.0256
vn -0.0327 -0.4904 -0.8709
vn -0.0449 -0.7570 0.6518
vn -0.0719 0.3267 -0.9424
vn -0.0337 -0.9269 -0.3737
vn -0.0160 -0.9781 -0.2077
vn -0.1140 -0.9364 -0.3319
vn 0.1307 -0.7462 -0.6528
vn -0.1726 -0.1765 -0.9690
vn 0.0954 0.0572 -0.9938
vn 0.1182 0.6419 -0.7576
vn -0.1267 0.8161 -0.5638
vn -0.0141 0.9443 -0.3286
vn -0.0553 0.9867 0.1527
vn -0.0893 0.9785 0.1859
vn -0.0622 0.5873 0.8070
vn -0.0456 0.5751 0.8168
vn -0.0073 0.1459 0.9893
vn -0.1222 -0.1237 0.9848
vn 0.0351 -0.3796 0.9245
vn -0.2116 -0.7627 0.6111
vn 0.0959 -0.9566 0.2751
vn 0.0002 0.7250 0.6888
vn -0.0180 -0.6695 0.7426
vn 0.9777 0.2058 0.0428
vn 0.2578 0.5902 -0.7650
vn -0.0053 0.9102 -0.4141
vn 0.2774 0.9574 0.0802
vn 0.1358 0.9896 -0.0479
vn -0.1222 0.8697 0.4781
vn 0.0556 0.5350 0.8430
vn 0.0952 0.5040 0.8584
vn -0.0794 0.1615 0.9837
vn -0.0303 -0.3238 0.9456
vn 0.2229 -0.4882 0.8438
vn -0.1650 -0.9341 0.3166
vn 0.2361 -0.9505 -0.2018
vn 0.0848 -0.9921 -0.0922
vn -0.3139 0.8527 -0.4176
vn -0.0506 -0.8080 -0.5870
vn -0.3536 -0.8400 0.4115
vn 0.0077 -0.4146 -0.9100
vn 0.0716 -0.3646 -0.9284
vn -0.1851 0.2099 -0.9600
vn -0.0000 -1.0000 -0.0000
vn -0.0000 -0.0000 1.0000
vn -1.0000 -0.0009 -0.0002
vn -1.0000 0.0004 -0.0012
vn -1.0000 -0.0000 0.0011
vn -1.0000 -0.0002 -0.0000
vn -1.0000 0.0009 -0.0010
vn -1.0000 -0.0001 0.0003
vn -1.0000 0.0001 0.0001
vn -1.0000 0.0001 -0.0000
vn -1.0000 -0.0000 -0.0001
vn -1.0000 -0.0008 -0.0003
vn -0.0000 -0.0000 -1.0000
vn -0.9876 0.1071 0.1151
vn -0.9811 -0.1319 -0.1418
vn 0.9990 -0.0261 0.0363
vn -0.0000 1.0000 -0.0000
vn -0.0000 0.0002 1.0000
vn -0.0001 0.0001 1.0000
vn -0.0000 0.0001 1.0000
vn 0.8833 0.4319 -0.1823
vn 0.2022 -0.8706 0.4485
vn 0.2182 0.0197 0.9757
vn 0.4310 -0.8952 0.1135
vn 0.5135 0.0480 -0.8567
vn -0.4348 -0.8754 0.2111
vn -0.3097 -0.7960 0.5201
vn -0.7090 0.6695 -0.2217
vn -0.3978 0.7521 0.5254
vn 0.9389 0.2460 0.2407
vn 0.5849 0.2683 0.7655
vn 0.0454 0.8485 0.5272
vn -0.0837 0.5352 -0.8406
vn 0.0007 -0.0013 -1.0000
vn 0.0003 -0.0003 -1.0000
vn 0.0001 -0.0005 -1.0000
vn -0.0013 0.0004 -1.0000
vn 0.0013 -0.0011 -1.0000
vn -0.0004 0.0002 -1.0000
vn -0.1349 -0.5525 0.8225
vn -0.7509 -0.2198 0.6227
vn 0.7515 0.4227 0.5066
vn -0.0540 -0.0266 0.9982
vn -0.0000 -0.0171 0.9999
vn -0.0000 0.7071 0.7071
vn 0.0002 1.0000 0.0001
vn -0.0000 -0.9659 -0.2588
vn 0.0134 -0.8841 -0.4672
vn -0.0124 -0.6658 -0.7460
vn 0.0006 0.0685 -0.9977
vn -0.0018 0.3230 -0.9464
vn -0.0006 0.4476 -0.8942
vn -0.0027 0.6525 -0.7578
vn -0.0000 0.7071 -0.7071
vn -0.0000 0.9659 -0.2588
vn -0.1643 0.3188 -0.9335
vn -0.2175 0.9737 0.0681
vn 0.0786 -0.0000 0.9969
vn -0.0000 -0.0137 0.9999
vn 0.3950 -0.6924 0.6038
vn -0.5302 -0.3921 0.7517
vn 0.7660 0.3246 0.5548
vn -1.0000 0.0002 -0.0004
vn -1.0000 -0.0008 0.0002
vn 1.0000 -0.0024 0.0014
vn 1.0000 -0.0000 0.0015
vn 1.0000 0.0008 -0.0010
vn -0.0000 0.0886 0.9961
vn -0.9991 0.0184 0.0383
vn 0.2244 0.0671 -0.9722
vn 0.2588 -0.0000 -0.9659
vn 0.7071 -0.0000 -0.7071
vn 0.9659 -0.0000 -0.2588
vn 0.7812 0.3644 0.5068
vn 1.0000 -0.0002 0.0008
vn 0.2013 -0.4026 -0.8930
vn -0.9389 0.0236 -0.3433
vn -0.9597 0.0385 -0.2782
vn -1.0000 0.0011 -0.0001
vn 0.9955 -0.0807 0.0498
vn 1.0000 0.0002 -0.0000
vn 1.0000 -0.0000 0.0013
vn -0.8278 -0.4776 0.2945
vn -0.4472 -0.8944 -0.0000
vn -0.0000 0.0100 1.0000
vn -1.0000 -0.0012 0.0001
vn -0.9996 -0.0172 0.0210
vn -0.9992 0.0381 0.0094
vn -1.0000 0.0034 -0.0000
vn -1.0000 -0.0008 0.0006
vn -0.2588 -0.0000 -0.9659
vn -0.7071 -0.0000 -0.7071
vn -0.9659 -0.0000 -0.2588
vn -0.0031 0.0014 -1.0000
vn -0.0000 0.0005 -1.0000
vn 0.0135 -0.0043 -0.9999
vn -0.0033 0.0046 -1.0000
vn -0.7382 -0.6649 -0.1135
vn 0.3412 -0.3597 -0.8685
vn -0.8244 0.5626 0.0616
vn 0.0003 0.0008 -1.0000
vn -0.0900 0.9570 0.2758
vn 0.7968 0.2804 0.5353
vn -0.0000 -1.0000 0.0001
vn -0.6299 0.6566 0.4149
vn 0.8926 0.2675 -0.3629
vn 0.6526 -0.6803 0.3336
vn -0.6750 -0.5012 -0.5415
vn 0.5788 0.4330 0.6910
vn -0.7016 -0.4764 0.5299
vn 0.4957 0.5688 0.6563
vn 0.5296 0.6509 -0.5439
vn 0.2433 0.1643 -0.9559
vn -0.1193 -0.3150 0.9416
vn -0.5364 0.0405 -0.8430
vn -0.2588 -0.0000 0.9659
vn -0.9659 -0.0000 0.2588
vn -0.6928 0.7102 0.1251
vn -0.7071 -0.0000 0.7071
vn -0.9787 -0.0244 0.2040
vn -0.0067 -0.1926 0.9813
vn 0.0105 -0.1926 0.9812
vn -0.0000 -0.2588 0.9659
vn -0.0000 -0.7466 0.6652
vn 0.0032 -0.7708 0.6371
vn 0.8807 0.0035 0.4738
vn 0.4627 -0.0033 0.8865
vn 0.0940 0.9800 0.1756
vn -0.0078 -0.9074 0.4201
vn 0.0001 -0.0000 1.0000
vn -0.0000 0.0003 1.0000
vn 0.0003 -0.0001 1.0000
vn 0.3554 0.8803 0.3142
vn 0.0005 -0.0002 1.0000
vn -0.0004 -0.0001 1.0000
vn -0.0008 0.0005 1.0000
vn -0.0008 0.0006 1.0000
vn 0.0013 -0.0023 1.0000
vn 0.2736 -0.4079 0.8711
vn -0.0000 -0.0001 1.0000
s 0
usemtl æè´¨.001
f 1//1 2//1 3//1
f 4//2 5//2 6//2
f 7//2 5//2 4//2
f 4//2 8//2 7//2
f 4//2 9//2 8//2
f 4//2 10//2 9//2
f 11//3 12//3 13//3
f 14//3 12//3 11//3
f 11//3 15//3 14//3
f 11//4 16//4 15//4
f 17//5 18//5 19//5
f 20//6 21//6 22//6
f 20//7 22//7 23//7
f 20//8 23//8 21//8
f 3//9 24//9 1//9
f 2//10 25//10 3//10
f 3//11 25//11 24//11
f 26//12 6//12 27//12
f 27//13 6//13 5//13
f 27//14 5//14 28//14
f 28//15 5//15 7//15
f 28//16 7//16 29//16
f 29//17 7//17 30//17
f 30//18 7//18 8//18
f 30//19 8//19 31//19
f 31//20 8//20 32//20
f 32//21 8//21 9//21
f 32//22 9//22 10//22
f 32//23 10//23 33//23
f 33//24 10//24 34//24
f 34//25 10//25 4//25
f 34//26 4//26 35//26
f 35//27 4//27 6//27
f 35//28 6//28 26//28
f 36//29 37//29 38//29
f 39//30 40//30 41//30
f 42//31 43//31 44//31
f 16//32 45//32 15//32
f 15//33 45//33 46//33
f 15//34 46//34 47//34
f 15//35 47//35 14//35
f 14//36 47//36 48//36
f 14//37 48//37 49//37
f 14//38 49//38 12//38
f 12//39 49//39 50//39
f 12//40 50//40 51//40
f 12//41 51//41 13//41
f 13//42 51//42 52//42
f 13//43 52//43 53//43
f 13//44 53//44 11//44
f 11//45 53//45 54//45
f 54//46 53//46 55//46
f 54//47 55//47 11//47
f 11//48 55//48 56//48
f 11//49 56//49 16//49
f 16//50 56//50 45//50
f 57//51 58//51 59//51
f 57//51 59//51 60//51
f 61//52 62//52 57//52
f 57//52 62//52 58//52
f 63//53 1//53 24//53
f 29//2 30//2 25//2
f 19//54 18//54 59//54
f 59//55 18//55 63//55
f 63//56 18//56 1//56
f 1//57 18//57 19//57
f 1//58 19//58 2//58
f 31//2 24//2 25//2
f 31//2 25//2 30//2
f 22//2 21//2 19//2
f 19//59 21//59 2//59
f 2//60 21//60 28//60
f 28//2 21//2 27//2
f 27//2 21//2 23//2
f 35//2 58//2 34//2
f 34//2 58//2 62//2
f 2//61 28//61 29//61
f 2//62 29//62 25//62
f 22//2 19//2 59//2
f 32//2 62//2 31//2
f 31//2 62//2 63//2
f 31//2 63//2 24//2
f 32//2 33//2 62//2
f 62//2 33//2 34//2
f 58//2 35//2 26//2
f 58//2 26//2 59//2
f 27//2 23//2 26//2
f 26//2 23//2 59//2
f 59//2 23//2 22//2
f 60//63 59//63 64//63
f 64//63 59//63 63//63
f 38//3 37//3 60//3
f 41//3 56//3 55//3
f 57//3 51//3 50//3
f 51//3 57//3 52//3
f 55//3 53//3 41//3
f 41//3 53//3 40//3
f 40//3 53//3 52//3
f 40//2 52//2 57//2
f 56//3 65//3 45//3
f 65//3 46//3 45//3
f 47//3 61//3 48//3
f 65//3 56//3 64//3
f 57//2 50//2 49//2
f 57//3 49//3 61//3
f 61//3 49//3 48//3
f 61//3 47//3 46//3
f 61//3 46//3 64//3
f 46//3 65//3 64//3
f 60//3 37//3 57//3
f 57//3 37//3 56//3
f 57//2 56//2 40//2
f 40//3 56//3 41//3
f 64//3 38//3 60//3
f 56//3 37//3 38//3
f 56//3 38//3 64//3
f 64//64 44//64 43//64
f 64//2 43//2 56//2
f 64//65 43//65 42//65
f 64//66 42//66 44//66
f 64//67 63//67 62//67
f 64//67 62//67 61//67
f 66//68 67//68 68//68
f 69//68 68//68 67//68
f 70//52 71//52 72//52
f 72//52 73//52 70//52
f 70//52 73//52 74//52
f 70//69 68//69 69//69
f 70//70 69//70 71//70
f 66//52 74//52 73//52
f 66//52 68//52 74//52
f 74//71 68//71 75//71
f 70//72 76//72 71//72
f 66//73 77//73 75//73
f 66//74 75//74 74//74
f 68//75 77//75 75//75
f 74//76 75//76 76//76
f 74//77 76//77 70//77
f 70//78 76//78 68//78
f 68//79 76//79 77//79
f 78//80 72//80 71//80
f 78//81 71//81 79//81
f 72//82 78//82 73//82
f 80//83 73//83 78//83
f 81//84 77//84 82//84
f 75//85 81//85 80//85
f 78//86 75//86 80//86
f 77//87 81//87 75//87
f 82//88 76//88 79//88
f 76//89 75//89 78//89
f 79//63 76//63 78//63
f 77//84 76//84 82//84
f 83//67 69//67 84//67
f 84//67 69//67 67//67
f 85//67 86//67 87//67
f 86//67 85//67 88//67
f 88//67 85//67 89//67
f 89//67 85//67 87//67
f 90//90 91//90 92//90
f 90//91 92//91 93//91
f 93//92 92//92 94//92
f 91//93 90//93 95//93
f 95//94 90//94 96//94
f 95//95 96//95 97//95
f 97//95 96//95 98//95
f 99//96 100//96 101//96
f 99//67 101//67 102//67
f 102//67 101//67 103//67
f 102//67 103//67 104//67
f 104//67 103//67 105//67
f 104//67 105//67 98//67
f 98//67 105//67 97//67
f 106//97 107//97 108//97
f 106//98 108//98 82//98
f 82//99 108//99 81//99
f 109//100 110//100 100//100
f 100//101 110//101 111//101
f 100//102 111//102 112//102
f 112//103 111//103 113//103
f 112//104 113//104 114//104
f 114//105 113//105 86//105
f 114//105 86//105 88//105
f 111//106 110//106 115//106
f 116//107 111//107 115//107
f 116//67 115//67 117//67
f 116//67 117//67 118//67
f 116//67 118//67 119//67
f 119//67 118//67 120//67
f 119//95 120//95 121//95
f 121//95 120//95 122//95
f 123//108 124//108 122//108
f 122//109 124//109 121//109
f 124//110 123//110 125//110
f 124//111 125//111 126//111
f 126//112 125//112 127//112
f 128//113 86//113 111//113
f 111//114 86//114 113//114
f 129//2 87//2 128//2
f 128//2 87//2 86//2
f 114//3 88//3 112//3
f 112//115 88//115 100//115
f 88//3 89//3 130//3
f 130//3 131//3 88//3
f 88//116 131//116 132//116
f 88//117 132//117 100//117
f 87//52 129//52 89//52
f 89//52 129//52 130//52
f 133//118 134//118 94//118
f 135//2 133//2 97//2
f 135//2 97//2 136//2
f 105//2 136//2 97//2
f 137//2 135//2 105//2
f 105//2 135//2 136//2
f 97//2 91//2 95//2
f 133//2 91//2 97//2
f 133//3 92//3 91//3
f 92//119 133//119 94//119
f 138//2 137//2 133//2
f 135//2 137//2 133//2
f 109//120 100//120 99//120
f 139//121 109//121 140//121
f 140//121 109//121 99//121
f 140//122 99//122 102//122
f 104//123 141//123 102//123
f 102//123 141//123 142//123
f 102//122 142//122 140//122
f 134//124 93//124 94//124
f 90//125 93//125 96//125
f 143//3 141//3 104//3
f 144//3 143//3 104//3
f 98//3 144//3 104//3
f 141//3 143//3 96//3
f 143//3 144//3 96//3
f 96//3 144//3 98//3
f 93//2 134//2 96//2
f 96//3 134//3 145//3
f 141//3 145//3 134//3
f 96//3 145//3 141//3
f 146//126 147//126 148//126
f 73//127 80//127 66//127
f 66//128 80//128 81//128
f 66//129 81//129 67//129
f 67//2 81//2 108//2
f 67//2 108//2 107//2
f 67//2 107//2 84//2
f 84//2 107//2 149//2
f 84//2 149//2 150//2
f 84//2 150//2 151//2
f 149//51 107//51 152//51
f 152//51 107//51 106//51
f 146//130 148//130 83//130
f 83//3 148//3 153//3
f 83//3 153//3 152//3
f 83//3 152//3 69//3
f 69//3 152//3 106//3
f 69//3 106//3 82//3
f 69//131 82//131 71//131
f 71//132 82//132 79//132
f 84//133 151//133 154//133
f 154//134 151//134 155//134
f 156//135 157//135 127//135
f 125//2 158//2 159//2
f 125//136 159//136 160//136
f 125//137 160//137 127//137
f 127//138 160//138 156//138
f 156//139 160//139 161//139
f 158//2 125//2 123//2
f 158//2 123//2 122//2
f 158//2 122//2 162//2
f 160//140 159//140 161//140
f 120//2 118//2 162//2
f 120//2 162//2 122//2
f 162//2 159//2 158//2
f 159//2 162//2 118//2
f 159//2 118//2 161//2
f 115//141 110//141 163//141
f 163//141 164//141 115//141
f 115//142 164//142 165//142
f 115//142 165//142 117//142
f 117//143 165//143 161//143
f 117//143 161//143 118//143
f 154//63 166//63 163//63
f 167//144 84//144 154//144
f 167//63 154//63 168//63
f 168//63 154//63 163//63
f 169//145 83//145 84//145
f 163//52 167//52 168//52
f 167//146 170//146 84//146
f 84//147 170//147 169//147
f 171//63 109//63 172//63
f 109//63 171//63 173//63
f 109//63 173//63 110//63
f 110//63 173//63 163//63
f 163//63 173//63 171//63
f 167//52 163//52 171//52
f 171//148 172//148 174//148
f 171//149 174//149 167//149
f 139//63 175//63 146//63
f 139//63 146//63 109//63
f 109//63 146//63 172//63
f 176//150 172//150 169//150
f 83//151 169//151 146//151
f 146//63 169//63 172//63
f 157//3 177//3 178//3
f 179//3 177//3 157//3
f 157//152 177//152 160//152
f 178//3 180//3 157//3
f 179//3 178//3 177//3
f 119//3 181//3 116//3
f 124//3 180//3 121//3
f 124//3 126//3 180//3
f 180//3 126//3 157//3
f 157//153 126//153 127//153
f 180//3 181//3 121//3
f 121//3 181//3 119//3
f 181//3 180//3 178//3
f 181//3 178//3 116//3
f 116//3 178//3 179//3
f 182//51 131//51 130//51
f 128//154 182//154 129//154
f 131//154 182//154 128//154
f 129//51 182//51 130//51
f 183//155 167//155 168//155
f 183//156 168//156 184//156
f 184//157 168//157 167//157
f 184//158 167//158 170//158
f 170//159 167//159 183//159
f 185//160 172//160 146//160
f 186//161 171//161 173//161
f 176//162 169//162 170//162
f 186//163 170//163 167//163
f 186//164 167//164 174//164
f 174//165 172//165 176//165
f 132//166 187//166 188//166
f 137//167 105//167 103//167
f 100//168 132//168 101//168
f 101//166 132//166 188//166
f 101//169 188//169 103//169
f 103//169 188//169 189//169
f 103//167 189//167 137//167
f 190//51 175//51 187//51
f 187//51 175//51 139//51
f 187//51 139//51 188//51
f 188//51 139//51 140//51
f 188//51 140//51 189//51
f 189//51 140//51 142//51
f 189//51 142//51 137//51
f 137//51 142//51 141//51
f 137//51 141//51 133//51
f 133//51 141//51 134//51
f 190//2 147//2 175//2
f 175//170 147//170 146//170
f 191//171 151//171 150//171
f 153//172 148//172 191//172
f 191//173 150//173 153//173
f 153//174 150//174 149//174
f 153//175 149//175 152//175
f 166//3 154//3 192//3
f 192//3 154//3 155//3
f 157//51 156//51 179//51
f 179//51 156//51 161//51
f 179//51 161//51 193//51
f 193//51 161//51 165//51
f 193//51 165//51 164//51
f 193//51 164//51 163//51
f 193//51 163//51 192//51
f 192//51 163//51 166//51
f 116//176 179//176 193//176
f 116//177 193//177 128//177
f 116//178 128//178 111//178
f 131//179 128//179 132//179
f 193//180 192//180 155//180
f 151//52 183//52 155//52
f 176//181 151//181 191//181
f 151//182 176//182 183//182
f 183//183 176//183 170//183
f 155//52 183//52 184//52
f 155//184 184//184 193//184
f 176//181 191//181 148//181
f 132//52 185//52 147//52
f 132//52 147//52 187//52
f 187//52 147//52 190//52
f 147//52 185//52 148//52
f 148//185 185//185 176//185
f 176//186 185//186 174//186
f 174//187 185//187 132//187
f 174//188 132//188 186//188
f 186//63 193//63 184//63
f 186//189 184//189 170//189
f 186//190 132//190 128//190
f 193//180 186//180 128//180
