# Blender 4.4.3
# www.blender.org
mtllib left_wheel.mtl
o link_left_wheel
v 0.042000 0.074383 -0.040442
v 0.042000 0.055426 -0.064279
v 0.006000 0.073058 -0.043412
v 0.006000 0.051810 -0.067101
v 0.042000 0.022706 -0.082192
v 0.006000 0.019162 -0.083090
v 0.042000 -0.013617 -0.083674
v 0.006000 -0.016141 -0.083224
v 0.042000 -0.035316 -0.076766
v 0.006000 -0.035316 -0.076766
v 0.042000 -0.052695 -0.066407
v 0.006000 -0.054679 -0.064784
v 0.042000 -0.071808 -0.045059
v 0.006000 -0.073138 -0.042867
v 0.042000 -0.084411 -0.012082
v 0.006000 -0.084851 -0.008452
v 0.042000 -0.081266 0.024135
v 0.006000 -0.080500 0.026581
v 0.042000 -0.064838 0.055382
v 0.006000 -0.062404 0.058111
v 0.042000 -0.040720 0.074041
v 0.006000 -0.033230 0.077990
v 0.042000 -0.022057 0.081855
v 0.006000 0.002394 0.085237
v 0.042000 0.013165 0.084249
v 0.006000 0.028678 0.079485
v 0.042000 0.046874 0.070637
v 0.006000 0.048988 0.069187
v 0.042000 0.067728 0.050987
v 0.006000 0.069239 0.048915
v 0.042000 0.080845 0.025511
v 0.006000 0.081579 0.023055
v 0.042000 0.084731 -0.009577
v 0.006000 0.084078 -0.015248
v 0.042000 -0.015336 0.066527
v 0.042000 -0.044161 0.051412
v 0.042000 -0.065886 0.020398
v 0.042000 -0.061760 -0.030704
v 0.042000 -0.034141 -0.058547
v 0.042000 -0.004028 -0.068153
v 0.042000 0.070123 0.003450
v 0.042000 0.035914 0.059930
v 0.042000 0.039770 -0.056451
v 0.006000 0.047213 -0.050279
v 0.006000 0.069806 0.002906
v 0.006000 -0.000527 -0.068969
v 0.006000 -0.042782 -0.053205
v 0.006000 0.013646 0.066894
v 0.006000 0.047645 0.048897
v 0.006000 -0.069214 -0.009529
v 0.006000 -0.055420 0.040064
v 0.006000 -0.024686 0.063652
v 0.048000 0.063346 -0.024335
v 0.048000 0.032988 -0.060865
v 0.048000 -0.013646 -0.066894
v 0.046821 -0.038228 -0.052207
v 0.046669 -0.062237 -0.021374
v 0.046937 -0.060944 0.025347
v 0.046995 -0.045598 0.045422
v 0.046785 -0.018200 0.062416
v 0.048000 0.032386 0.061907
v 0.048000 0.067149 0.015748
v 0.048055 0.054907 -0.028675
v 0.048007 0.028645 -0.053607
v 0.048059 -0.007820 -0.061444
v 0.048022 0.059642 0.014029
v 0.048127 0.031921 0.054052
v 0.055505 0.038086 -0.038254
v 0.055502 -0.003678 -0.054168
v 0.055507 -0.049377 -0.026509
v 0.055501 -0.044733 0.032151
v 0.055501 -0.007010 0.053213
v 0.055507 0.039176 0.040075
v 0.055501 0.053272 -0.006552
v -0.000000 -0.053496 0.042565
v 0.000000 -0.069891 -0.012226
v 0.000000 -0.034810 -0.058731
v 0.000000 0.008815 -0.068405
v 0.000000 0.053585 -0.043424
v -0.000000 0.068810 0.012104
v -0.000000 0.030054 0.063072
v -0.000000 -0.021590 0.064768
v -0.000000 -0.021005 0.013103
v -0.000000 -0.005480 0.023661
v -0.000000 -0.022950 -0.009287
v -0.000000 0.013105 -0.021763
v -0.000093 -0.010779 -0.021905
v -0.000000 0.024196 -0.002104
v -0.000000 0.016654 0.019184
v -0.004527 -0.018419 0.009163
v -0.004559 0.017226 -0.012351
v -0.004617 0.009852 0.019547
v -0.004717 0.008156 0.001327
v -0.004501 0.004857 -0.007737
v -0.004501 -0.006077 -0.006267
v -0.004500 -0.007768 0.004045
v -0.006170 0.003743 0.008408
v -0.054500 0.003955 -0.009298
v -0.054500 0.005386 0.007378
v -0.054500 -0.008958 0.003562
v 0.006000 -0.081579 -0.023055
v 0.006000 -0.069239 -0.048915
v 0.006000 -0.048988 -0.069187
v 0.006000 -0.016764 -0.083607
v 0.006000 0.082202 0.022671
v 0.006000 0.064841 0.054611
v 0.006000 0.037290 0.076685
v 0.006000 0.001844 0.084755
v 0.006000 -0.026496 0.080527
v 0.006000 -0.057251 0.063194
v 0.006000 -0.075198 0.038542
v 0.006000 -0.084243 0.013201
v 0.006000 0.019572 -0.082484
v 0.006000 0.051685 -0.067821
v 0.006000 0.083834 -0.012594
v -0.002388 -0.005869 -0.022595
v -0.002612 0.021084 -0.007979
v -0.003343 -0.021465 0.003042
v -0.001598 -0.006500 0.026011
v 0.041500 0.079584 -0.030619
v 0.041500 0.084411 0.012082
v 0.041500 0.071808 0.045059
v 0.041500 0.052695 0.066407
v 0.041500 0.020262 0.082829
v 0.041500 -0.022706 0.082192
v 0.041500 -0.059907 0.060681
v 0.041500 -0.078927 0.030940
v 0.041500 -0.084726 0.002879
v 0.041500 -0.080845 -0.025511
v 0.041500 -0.067728 -0.050987
v 0.041500 -0.046874 -0.070637
v 0.041500 -0.013165 -0.084249
v 0.041500 0.022057 -0.081855
v 0.041500 0.054545 -0.065543
v 0.042051 0.065358 0.014587
v 0.041745 0.064143 -0.020327
v 0.042028 0.037773 -0.057094
v 0.042043 -0.066882 -0.008164
v 0.041657 -0.057060 0.037004
v 0.042000 -0.019467 0.064747
v 0.041631 -0.007809 -0.066976
v 0.042029 -0.050278 -0.045378
v 0.041500 0.036529 0.060827
v -0.054297 -0.008712 0.000913
v -0.054721 -0.004323 -0.007435
v -0.054846 0.005620 -0.006026
v 0.044622 0.036400 0.055513
v 0.045500 -0.065004 0.023055
v 0.051366 -0.018477 -0.055165
v -0.053712 0.008008 0.001182
v 0.054145 -0.038555 0.042096
v 0.054046 0.005025 0.054266
v 0.056278 0.035650 0.040818
v 0.054058 0.055609 -0.002774
v 0.054038 0.012620 -0.053454
v 0.054055 -0.047089 -0.029271
v -0.055462 0.000459 0.004274
v -0.055484 -0.001398 -0.003863
v 0.042021 0.003803 0.002023
v 0.042834 0.003571 -0.002393
v 0.042836 -0.003319 -0.003107
v 0.044246 -0.003259 0.002953
v 0.054000 -0.008164 0.014307
v 0.054000 -0.010213 -0.010676
v 0.054145 0.015899 -0.004669
vn 0.0225 0.7825 -0.6223
vn -0.0224 0.7442 -0.6676
vn 0.0205 0.4801 -0.8770
vn -0.0209 0.4397 -0.8979
vn 0.0209 0.0407 -0.9990
vn -0.0128 0.0038 -0.9999
vn 0.0094 -0.3033 -0.9528
vn -0.0000 -0.3192 -0.9477
vn -0.0000 -0.5120 -0.8590
vn -0.0094 -0.5262 -0.8503
vn 0.0110 -0.7450 -0.6670
vn -0.0110 -0.7648 -0.6442
vn 0.0128 -0.9340 -0.3569
vn -0.0209 -0.9465 -0.3221
vn 0.0209 -0.9960 0.0865
vn -0.0128 -0.9923 0.1232
vn 0.0128 -0.8850 0.4653
vn -0.0209 -0.8671 0.4977
vn 0.0186 -0.6118 0.7908
vn -0.0265 -0.5629 0.8261
vn 0.0208 -0.3861 0.9222
vn -0.0433 -0.1992 0.9790
vn 0.0476 -0.0677 0.9966
vn -0.0371 0.2137 0.9762
vn 0.0386 0.3741 0.9266
vn -0.0094 0.4522 0.8919
vn 0.0110 0.6857 0.7278
vn -0.0110 0.7074 0.7067
vn 0.0110 0.8890 0.4577
vn -0.0110 0.9025 0.4306
vn 0.0128 0.9938 0.1101
vn -0.0283 0.9975 0.0651
vn 0.0329 0.9476 -0.3177
vn -0.0042 0.9312 -0.3644
vn 1.0000 -0.0000 -0.0000
vn -1.0000 -0.0000 -0.0000
vn 0.3706 0.7143 -0.5936
vn -0.3866 0.2381 -0.8910
vn 0.3822 0.1185 -0.9165
vn -0.2761 -0.2921 -0.9157
vn 0.5486 -0.4481 -0.7059
vn 0.3085 -0.6753 -0.6699
vn 0.7517 -0.5222 -0.4029
vn 0.0588 -0.9950 -0.0803
vn 0.6994 -0.7145 0.0158
vn 0.1838 -0.7812 0.5966
vn 0.4121 -0.7463 0.5227
vn 0.6574 -0.3936 0.6426
vn 0.4348 -0.4182 0.7975
vn 0.6488 -0.0079 0.7609
vn -0.2442 0.1238 0.9618
vn 0.2619 0.7709 0.5806
vn -0.5378 0.7211 0.4368
vn 0.5662 0.8206 -0.0778
vn -0.7356 0.6043 -0.3062
vn 1.0000 -0.0006 -0.0013
vn 1.0000 0.0014 -0.0000
vn 0.9999 0.0016 -0.0126
vn 0.9991 -0.0332 0.0246
vn 0.9999 0.0114 -0.0095
vn 1.0000 0.0069 -0.0006
vn 1.0000 0.0028 0.0005
vn 1.0000 0.0031 -0.0005
vn 0.9997 0.0199 0.0150
vn 0.9996 -0.0238 0.0175
vn 0.5269 0.5847 -0.6169
vn 0.8260 0.2007 -0.5268
vn 0.6423 0.1619 -0.7492
vn 0.7473 -0.3440 -0.5685
vn 0.9147 -0.1511 -0.3747
vn 0.6225 -0.6190 -0.4789
vn 0.8261 -0.5634 0.0108
vn 0.8769 -0.4792 0.0380
vn 0.7160 -0.5556 0.4227
vn 0.8110 -0.3039 0.4999
vn 0.8400 -0.2645 0.4738
vn 0.6532 0.1076 0.7495
vn 0.8408 0.1480 0.5208
vn 0.2597 0.7942 0.5494
vn 0.8496 0.5048 0.1525
vn 0.4782 0.8729 -0.0964
vn 0.8288 0.5047 -0.2416
vn 1.0000 -0.0000 0.0001
vn 1.0000 -0.0001 -0.0000
vn 1.0000 0.0002 0.0001
vn 1.0000 -0.0001 0.0002
vn 1.0000 -0.0001 -0.0002
vn -0.1845 -0.9416 0.2817
vn -0.0117 -0.9634 0.2680
vn 0.3128 -0.8126 -0.4918
vn -0.4515 -0.7123 -0.5373
vn 0.3702 -0.3247 -0.8704
vn -0.3941 -0.1990 -0.8973
vn 0.4328 0.3286 -0.8394
vn -0.4328 0.4393 -0.7872
vn 0.4688 0.8130 -0.3454
vn -0.4922 0.8395 -0.2302
vn 0.4585 0.8006 0.3858
vn -0.6705 0.5906 0.4491
vn 0.5824 0.3803 0.7185
vn -0.4798 0.0288 0.8769
vn 0.1404 -0.0834 0.9866
vn -0.1407 -0.5655 0.8127
vn 0.1342 -0.6033 0.7861
vn -1.0000 0.0039 -0.0004
vn -1.0000 -0.0005 -0.0022
vn -1.0000 -0.0061 0.0015
vn -0.5416 -0.8375 0.0728
vn -0.9617 -0.2008 -0.1866
vn -0.8989 0.0061 -0.4381
vn -0.2216 0.8493 -0.4791
vn -0.8935 0.4379 0.0996
vn -0.8062 0.5577 0.1976
vn -0.2103 0.1938 0.9582
vn -0.8943 -0.1568 0.4192
vn -0.7211 -0.3896 0.5729
vn -0.9997 -0.0120 -0.0195
vn -0.8519 -0.5168 -0.0847
vn -0.9846 -0.0738 -0.1587
vn -0.9592 0.2820 -0.0210
vn -0.9997 0.0226 0.0034
vn -0.9739 -0.0833 -0.2110
vn -0.9646 -0.0351 -0.2613
vn -1.0000 -0.0007 -0.0067
vn -0.9371 -0.2341 0.2590
vn -0.0063 0.9396 -0.3421
vn -0.0657 0.9942 -0.0853
vn 0.0175 0.8470 0.5313
vn -0.0293 -0.2570 0.9660
vn -0.0006 -0.3545 0.9350
vn 0.0251 -0.9865 -0.1618
vn -0.0981 -0.7022 -0.7051
vn 0.0333 -0.1331 -0.9905
vn 0.9916 0.0173 0.1285
vn 0.9700 -0.1097 0.2171
vn 0.9964 0.0832 0.0136
vn 0.9800 0.1516 0.1288
vn 0.9711 0.1937 -0.1395
vn 0.9863 0.0933 -0.1357
vn 0.9913 -0.1144 0.0653
vn 0.9824 -0.0271 0.1846
vn 0.0545 -0.9426 0.3296
vn -0.0618 -0.9918 0.1121
vn 0.0483 -0.9978 -0.0462
vn -0.0483 -0.9330 -0.3566
vn 0.0439 -0.8778 -0.4771
vn -0.0332 -0.7446 -0.6667
vn 0.0454 -0.6246 -0.7796
vn -0.0621 -0.4508 -0.8904
vn 0.0621 -0.2216 -0.9732
vn -0.0618 0.0148 -0.9980
vn 0.0306 0.1475 -0.9886
vn -0.0116 0.4910 -0.8711
vn -0.0238 0.5004 -0.8655
vn 0.0188 0.8083 -0.5885
vn -0.0269 0.8422 -0.5386
vn 0.0269 0.9415 -0.3360
vn -0.0455 0.9783 -0.2022
vn 0.0348 0.9967 0.0732
vn -0.0111 0.9907 0.1354
vn 0.0111 0.9025 0.4306
vn -0.0111 0.8890 0.4577
vn 0.0111 0.7074 0.7067
vn -0.0111 0.6857 0.7278
vn 0.0129 0.4084 0.9127
vn -0.0212 0.3743 0.9271
vn 0.0212 -0.0309 0.9993
vn -0.0129 -0.0678 0.9976
vn 0.0129 -0.4153 0.9096
vn -0.0212 -0.4486 0.8935
vn 0.0183 -0.7522 0.6586
vn -0.0605 -0.8112 0.5816
vn -0.9996 -0.0276 0.0097
vn -0.9999 -0.0147 0.0017
vn -0.9999 -0.0142 0.0025
vn -0.9996 -0.0231 0.0166
vn -0.9994 0.0332 0.0045
vn -0.9997 0.0221 -0.0134
vn -1.0000 0.0076 -0.0016
vn -0.9999 0.0087 -0.0056
vn -0.9999 0.0129 -0.0051
vn -0.9994 -0.0157 0.0313
vn -0.9998 0.0047 0.0183
vn -1.0000 -0.0005 0.0077
vn -0.9999 -0.0048 0.0091
vn -0.9997 0.0089 0.0221
vn -0.9995 0.0226 0.0240
vn -0.9996 0.0264 0.0122
vn -0.9996 0.0237 0.0122
vn -0.9996 0.0150 -0.0259
vn -0.9995 -0.0111 -0.0307
vn -0.9998 -0.0074 -0.0165
vn -0.9995 -0.0304 -0.0116
vn -0.0289 0.9864 0.1618
vn 0.0201 0.8854 0.4645
vn -0.0184 0.1332 0.9909
vn 0.0315 -0.1398 0.9897
vn -0.0026 -0.9397 0.3420
vn -0.6885 -0.6117 -0.3896
vn -0.8619 -0.0431 -0.5053
vn 0.7907 0.5996 -0.1236
vn -0.5095 0.3863 0.7689
vn 0.9712 0.0529 0.2321
vn 0.0029 0.0159 -0.9999
vn 0.0650 -0.1670 -0.9838
vn 0.0019 -0.9493 0.3143
vn -0.4871 0.5215 -0.7006
vn -0.8097 0.1562 -0.5657
vn -0.5048 -0.1177 -0.8552
vn -0.7715 -0.2078 -0.6013
vn -0.5961 -0.6726 -0.4385
vn -0.7880 -0.5740 -0.2227
vn -0.6007 -0.7988 0.0331
vn -0.7704 -0.5835 0.2568
vn -0.6200 -0.6398 0.4541
vn -0.7762 -0.2895 0.5601
vn -0.5884 -0.1664 0.7913
vn -0.7582 0.0293 0.6514
vn -0.7751 0.3824 0.5030
vn -0.6190 0.7171 0.3202
vn -0.8042 0.5793 -0.1328
vn 0.9654 -0.2518 -0.0685
vn -0.9070 0.0385 -0.4193
vn 0.9925 0.1212 0.0133
vn 0.9744 -0.0194 0.2241
vn -0.8788 0.4740 -0.0556
vn -0.9876 0.1177 0.1042
vn -0.0204 0.8943 0.4469
vn 0.0227 0.9986 -0.0483
vn 0.0293 -0.2968 -0.9545
vn 0.0200 0.7756 -0.6310
vn 0.0100 -0.9999 0.0075
vn -0.0295 -0.9260 0.3763
vn -0.9802 0.0741 0.1836
vn -0.9886 0.1149 -0.0970
vn 0.0182 0.1362 0.9905
vn 0.0097 0.1031 -0.9946
vn -1.0000 -0.0033 0.0017
vn -1.0000 -0.0015 0.0001
vn -1.0000 -0.0008 -0.0013
vn -1.0000 0.0051 0.0019
vn -1.0000 -0.0023 0.0024
vn -1.0000 -0.0021 -0.0021
vn -1.0000 0.0055 -0.0007
vn -1.0000 -0.0028 0.0021
vn 0.9361 0.3154 0.1556
vn 0.9736 0.0238 -0.2269
s 0
usemtl wheel
f 1//1 2//1 3//1
f 3//2 2//2 4//2
f 4//3 2//3 5//3
f 4//4 5//4 6//4
f 6//5 5//5 7//5
f 6//6 7//6 8//6
f 8//7 7//7 9//7
f 8//8 9//8 10//8
f 10//9 9//9 11//9
f 10//10 11//10 12//10
f 12//11 11//11 13//11
f 12//12 13//12 14//12
f 14//13 13//13 15//13
f 14//14 15//14 16//14
f 16//15 15//15 17//15
f 16//16 17//16 18//16
f 18//17 17//17 19//17
f 18//18 19//18 20//18
f 20//19 19//19 21//19
f 20//20 21//20 22//20
f 22//21 21//21 23//21
f 22//22 23//22 24//22
f 24//23 23//23 25//23
f 24//24 25//24 26//24
f 26//25 25//25 27//25
f 26//26 27//26 28//26
f 28//27 27//27 29//27
f 28//28 29//28 30//28
f 30//29 29//29 31//29
f 30//30 31//30 32//30
f 32//31 31//31 33//31
f 32//32 33//32 34//32
f 34//33 33//33 1//33
f 34//34 1//34 3//34
f 35//35 23//35 21//35
f 35//35 21//35 36//35
f 36//35 21//35 19//35
f 36//35 19//35 37//35
f 37//35 19//35 17//35
f 37//35 17//35 15//35
f 37//35 15//35 38//35
f 38//35 15//35 13//35
f 38//35 13//35 11//35
f 38//35 11//35 39//35
f 39//35 11//35 9//35
f 39//35 9//35 40//35
f 40//35 9//35 7//35
f 41//35 31//35 29//35
f 41//35 29//35 42//35
f 42//35 29//35 27//35
f 42//35 27//35 25//35
f 42//35 25//35 35//35
f 35//35 25//35 23//35
f 7//35 5//35 40//35
f 40//35 5//35 43//35
f 43//35 5//35 2//35
f 43//35 2//35 1//35
f 43//35 1//35 41//35
f 41//35 1//35 33//35
f 41//35 33//35 31//35
f 34//36 44//36 45//36
f 34//36 3//36 44//36
f 44//36 3//36 4//36
f 44//36 4//36 6//36
f 44//36 6//36 46//36
f 46//36 6//36 8//36
f 46//36 8//36 47//36
f 48//36 28//36 49//36
f 49//36 28//36 30//36
f 49//36 30//36 45//36
f 45//36 30//36 32//36
f 45//36 32//36 34//36
f 8//36 10//36 47//36
f 47//36 10//36 12//36
f 47//36 12//36 14//36
f 47//36 14//36 50//36
f 50//36 14//36 16//36
f 50//36 16//36 18//36
f 50//36 18//36 51//36
f 51//36 18//36 20//36
f 51//36 20//36 52//36
f 52//36 20//36 22//36
f 52//36 22//36 24//36
f 52//36 24//36 48//36
f 48//36 24//36 26//36
f 48//36 26//36 28//36
f 53//37 54//37 43//37
f 43//38 54//38 40//38
f 40//39 54//39 55//39
f 40//40 55//40 39//40
f 39//41 55//41 56//41
f 39//42 56//42 38//42
f 38//43 56//43 57//43
f 38//44 57//44 37//44
f 37//45 57//45 58//45
f 37//46 58//46 59//46
f 37//47 59//47 36//47
f 36//48 59//48 60//48
f 36//49 60//49 35//49
f 35//50 60//50 61//50
f 35//51 61//51 42//51
f 42//52 61//52 62//52
f 42//53 62//53 41//53
f 41//54 62//54 53//54
f 41//55 53//55 43//55
f 54//56 63//56 64//56
f 54//57 64//57 65//57
f 54//58 65//58 55//58
f 55//59 65//59 56//59
f 54//60 53//60 63//60
f 63//61 53//61 62//61
f 63//62 62//62 66//62
f 66//63 62//63 67//63
f 67//64 62//64 61//64
f 67//65 61//65 60//65
f 63//66 68//66 64//66
f 64//67 68//67 69//67
f 64//68 69//68 65//68
f 65//69 69//69 70//69
f 65//70 70//70 56//70
f 56//71 70//71 57//71
f 57//72 70//72 58//72
f 58//73 70//73 71//73
f 58//74 71//74 59//74
f 59//75 71//75 60//75
f 60//76 71//76 72//76
f 60//77 72//77 67//77
f 67//78 72//78 73//78
f 67//79 73//79 66//79
f 66//80 73//80 74//80
f 66//81 74//81 63//81
f 63//82 74//82 68//82
f 68//83 74//83 71//83
f 71//84 69//84 68//84
f 71//85 70//85 69//85
f 71//86 73//86 72//86
f 71//87 74//87 73//87
f 51//88 75//88 76//88
f 51//89 76//89 50//89
f 50//90 76//90 47//90
f 47//91 76//91 77//91
f 47//92 77//92 46//92
f 46//93 77//93 78//93
f 46//94 78//94 44//94
f 44//95 78//95 79//95
f 44//96 79//96 45//96
f 45//97 79//97 80//97
f 45//98 80//98 49//98
f 49//99 80//99 81//99
f 49//100 81//100 48//100
f 48//101 81//101 82//101
f 48//102 82//102 52//102
f 52//103 82//103 75//103
f 52//104 75//104 51//104
f 83//36 82//36 84//36
f 83//36 75//36 82//36
f 85//36 76//36 83//36
f 83//36 76//36 75//36
f 86//105 78//105 87//105
f 87//106 78//106 77//106
f 87//107 77//107 85//107
f 85//36 77//36 76//36
f 79//36 78//36 86//36
f 88//36 79//36 86//36
f 89//36 80//36 88//36
f 88//36 80//36 79//36
f 89//36 81//36 80//36
f 84//36 82//36 81//36
f 84//36 81//36 89//36
f 83//108 90//108 85//108
f 85//109 90//109 87//109
f 86//110 87//110 91//110
f 86//111 91//111 88//111
f 88//112 91//112 92//112
f 88//113 92//113 89//113
f 89//114 92//114 84//114
f 84//115 92//115 90//115
f 84//116 90//116 83//116
f 93//117 91//117 94//117
f 95//118 87//118 96//118
f 96//119 87//119 90//119
f 97//120 92//120 93//120
f 93//121 92//121 91//121
f 91//122 87//122 94//122
f 94//123 87//123 95//123
f 96//124 90//124 92//124
f 96//125 92//125 97//125
f 94//126 98//126 93//126
f 93//127 98//127 99//127
f 93//128 99//128 97//128
f 97//129 99//129 100//129
f 97//130 100//130 96//130
f 96//131 100//131 95//131
f 95//132 100//132 98//132
f 95//133 98//133 94//133
f 100//36 99//36 98//36
f 50//35 101//35 102//35
f 50//35 102//35 47//35
f 47//35 102//35 103//35
f 47//35 103//35 46//35
f 46//35 103//35 104//35
f 45//35 105//35 49//35
f 49//35 105//35 106//35
f 49//35 106//35 107//35
f 49//35 107//35 48//35
f 48//35 107//35 108//35
f 48//35 108//35 52//35
f 52//35 108//35 109//35
f 52//35 109//35 110//35
f 52//35 110//35 51//35
f 51//35 110//35 111//35
f 51//35 111//35 50//35
f 50//35 111//35 112//35
f 50//35 112//35 101//35
f 46//35 104//35 113//35
f 46//35 113//35 44//35
f 44//35 113//35 114//35
f 44//35 114//35 3//35
f 44//35 3//35 45//35
f 45//35 3//35 115//35
f 45//35 115//35 105//35
f 95//134 116//134 94//134
f 94//135 116//135 117//135
f 96//136 118//136 95//136
f 95//137 118//137 116//137
f 96//138 97//138 119//138
f 96//139 119//139 118//139
f 94//140 117//140 93//140
f 93//141 117//141 97//141
f 3//142 120//142 115//142
f 115//143 120//143 121//143
f 115//144 121//144 105//144
f 105//145 121//145 122//145
f 105//146 122//146 106//146
f 106//147 122//147 123//147
f 106//148 123//148 107//148
f 107//149 123//149 124//149
f 107//150 124//150 108//150
f 108//151 124//151 125//151
f 108//152 125//152 109//152
f 109//153 125//153 110//153
f 110//154 125//154 126//154
f 110//155 126//155 111//155
f 111//156 126//156 127//156
f 111//157 127//157 112//157
f 112//158 127//158 128//158
f 112//159 128//159 101//159
f 101//160 128//160 129//160
f 101//161 129//161 102//161
f 102//162 129//162 130//162
f 102//163 130//163 103//163
f 103//164 130//164 131//164
f 103//165 131//165 104//165
f 104//166 131//166 132//166
f 104//167 132//167 113//167
f 113//168 132//168 133//168
f 113//169 133//169 114//169
f 114//170 133//170 134//170
f 114//171 134//171 3//171
f 3//172 134//172 120//172
f 135//173 121//173 136//173
f 136//174 121//174 120//174
f 136//175 120//175 137//175
f 137//176 120//176 134//176
f 138//177 129//177 128//177
f 138//178 128//178 139//178
f 139//179 128//179 127//179
f 139//180 127//180 126//180
f 139//181 126//181 140//181
f 134//182 133//182 137//182
f 137//183 133//183 141//183
f 141//184 133//184 132//184
f 141//185 132//185 142//185
f 142//186 132//186 131//186
f 142//187 131//187 130//187
f 142//188 130//188 138//188
f 138//189 130//189 129//189
f 126//190 125//190 140//190
f 140//191 125//191 143//191
f 143//36 125//36 124//36
f 143//36 124//36 123//36
f 143//36 123//36 122//36
f 143//192 122//192 135//192
f 135//193 122//193 121//193
f 144//194 96//194 95//194
f 144//195 95//195 145//195
f 145//196 95//196 94//196
f 145//197 94//197 146//197
f 146//198 94//198 93//198
f 143//199 135//199 147//199
f 143//200 147//200 140//200
f 139//201 148//201 138//201
f 141//202 142//202 149//202
f 96//203 93//203 97//203
f 150//204 93//204 144//204
f 144//205 93//205 96//205
f 150//206 146//206 93//206
f 151//207 139//207 140//207
f 151//208 140//208 152//208
f 152//209 140//209 147//209
f 152//210 147//210 153//210
f 153//211 147//211 135//211
f 153//212 135//212 154//212
f 154//213 135//213 136//213
f 154//214 136//214 68//214
f 68//215 136//215 137//215
f 68//216 137//216 155//216
f 155//217 137//217 141//217
f 155//218 141//218 149//218
f 149//219 142//219 156//219
f 156//220 142//220 138//220
f 151//221 138//221 139//221
f 146//222 150//222 157//222
f 157//223 150//223 144//223
f 157//224 144//224 145//224
f 158//225 145//225 146//225
f 151//226 156//226 138//226
f 152//227 153//227 154//227
f 146//228 157//228 159//228
f 146//229 159//229 160//229
f 146//230 160//230 158//230
f 158//231 161//231 145//231
f 145//232 161//232 162//232
f 145//233 162//233 157//233
f 149//234 156//234 155//234
f 155//235 154//235 68//235
f 157//236 162//236 159//236
f 160//237 161//237 158//237
f 151//238 163//238 156//238
f 163//239 164//239 156//239
f 156//240 164//240 155//240
f 155//241 164//241 165//241
f 155//242 165//242 154//242
f 154//243 165//243 152//243
f 152//244 165//244 163//244
f 152//245 163//245 151//245
f 160//246 159//246 162//246
f 161//247 160//247 162//247
