mtllib material.mtl
usemtl Material-塑胶.108
v -0.02245400 -0.09228000 0.01998400
v -0.02245400 -0.09228000 0.01998400
v -0.02245700 -0.09229400 0.01998300
v -0.02245700 -0.09229400 0.01998300
v -0.02245700 -0.09229400 0.01998300
v -0.02147800 -0.09043700 0.02013100
v -0.02147800 -0.09043700 0.02013100
v -0.02147800 -0.09043700 0.02013100
v -0.02147800 -0.09043700 0.02013100
v -0.02147800 -0.09043700 0.02013100
v -0.02147800 -0.09043700 0.02013100
v -0.02147800 -0.09043700 0.02013100
v -0.02378700 -0.09160500 0.02003800
v -0.02378700 -0.09160500 0.02003800
v -0.02379000 -0.09136400 0.02005700
v -0.02379000 -0.09136400 0.02005700
v -0.02502100 -0.09051000 0.02012500
v -0.02502100 -0.09051000 0.02012500
v -0.02502100 -0.09051000 0.02012500
v -0.02502100 -0.09051000 0.02012500
v -0.02378900 -0.09112300 0.02007600
v -0.02378900 -0.09112300 0.02007600
v -0.02374400 -0.09088800 0.02009500
v -0.02495400 -0.09018600 0.02015100
v -0.02495400 -0.09018600 0.02015100
v -0.02360900 -0.09069000 0.02011100
v -0.02360900 -0.09069000 0.02011100
v -0.02360900 -0.09069000 0.02011100
v -0.02360900 -0.09069000 0.02011100
v -0.02482900 -0.08989000 0.02017500
v -0.02482900 -0.08989000 0.02017500
v -0.02327800 -0.09055200 0.02012200
v -0.02327800 -0.09055200 0.02012200
v -0.02327800 -0.09055200 0.02012200
v -0.02367500 -0.08915400 0.02023400
v -0.02367500 -0.08915400 0.02023400
v -0.02367500 -0.08915400 0.02023400
v -0.02345600 -0.09059000 0.02011900
v -0.02345600 -0.09059000 0.02011900
v -0.02345600 -0.09059000 0.02011900
v -0.02420400 -0.08930000 0.02022200
v -0.02420400 -0.08930000 0.02022200
v -0.02464200 -0.08962900 0.02019600
v -0.02151100 -0.09038600 0.02013500
v -0.02151100 -0.09038600 0.02013500
v -0.02166400 -0.09007000 0.02016100
v -0.02263000 -0.09081500 0.02010100
v -0.02263000 -0.09081500 0.02010100
v -0.02263000 -0.09081500 0.02010100
v -0.02263000 -0.09081500 0.02010100
v -0.02187500 -0.08978900 0.02018300
v -0.02187500 -0.08978900 0.02018300
v -0.02187500 -0.08978900 0.02018300
v -0.02293300 -0.09059800 0.02011800
v -0.02293300 -0.09059800 0.02011800
v -0.02293300 -0.09059800 0.02011800
v -0.02225000 -0.08947100 0.02020800
v -0.02225000 -0.08947100 0.02020800
v -0.02225000 -0.08947100 0.02020800
v -0.02310300 -0.09055600 0.02012200
v -0.02310300 -0.09055600 0.02012200
v -0.02310300 -0.09055600 0.02012200
v -0.02269400 -0.08925700 0.02022500
v -0.02269400 -0.08925700 0.02022500
v -0.02317800 -0.08915100 0.02023400
v -0.02317800 -0.08915100 0.02023400
v -0.02245300 -0.09226200 0.01998500
v -0.02245300 -0.09226200 0.01998500
v -0.02495300 -0.09342400 0.01989300
v -0.02495300 -0.09342400 0.01989300
v -0.02493400 -0.09342800 0.01989200
v -0.02493400 -0.09342800 0.01989200
v -0.02377700 -0.09214800 0.01999500
v -0.02377700 -0.09214800 0.01999500
v -0.02377700 -0.09214800 0.01999500
v -0.02473900 -0.09345300 0.01989000
v -0.02473900 -0.09345300 0.01989000
v -0.02376300 -0.09216200 0.01999300
v -0.02376300 -0.09216200 0.01999300
v -0.02376300 -0.09216200 0.01999300
v -0.02184800 -0.09379200 0.01986300
v -0.02184800 -0.09379200 0.01986300
v -0.02184800 -0.09379200 0.01986300
v -0.02184800 -0.09379200 0.01986300
v -0.02131800 -0.09244700 0.01997100
v -0.02131800 -0.09244700 0.01997100
v -0.02133200 -0.09243400 0.01997200
v -0.02133200 -0.09243400 0.01997200
v -0.02133200 -0.09243400 0.01997200
v -0.02149200 -0.09042400 0.02013200
v -0.02149200 -0.09042400 0.02013200
v -0.02149200 -0.09042400 0.02013200
v -0.02247500 -0.09115300 0.02007400
v -0.02247500 -0.09115300 0.02007400
v -0.02247500 -0.09115300 0.02007400
v -0.02246200 -0.09124000 0.02006700
v -0.02246200 -0.09124000 0.02006700
v -0.02245800 -0.09132800 0.02006000
v -0.02245800 -0.09132800 0.02006000
v -0.02134400 -0.09186300 0.02001700
v -0.02134400 -0.09186300 0.02001700
v -0.02133700 -0.09182800 0.02002000
v -0.02133700 -0.09182800 0.02002000
v -0.02390700 -0.09355000 0.01988300
v -0.02390700 -0.09355000 0.01988300
v -0.02390700 -0.09355000 0.01988300
v -0.02373800 -0.09217000 0.01999300
v -0.02373800 -0.09217000 0.01999300
v -0.02422500 -0.09351300 0.01988600
v -0.02422500 -0.09351300 0.01988600
v -0.02422500 -0.09351300 0.01988600
v -0.02454300 -0.09347600 0.01988900
v -0.02454300 -0.09347600 0.01988900
v -0.02246400 -0.09230500 0.01998200
v -0.02246400 -0.09230500 0.01998200
v -0.02246400 -0.09230500 0.01998200
v -0.02246400 -0.09230500 0.01998200
v -0.02247500 -0.09231100 0.01998200
v -0.02247500 -0.09231100 0.01998200
v -0.02247500 -0.09231100 0.01998200
v -0.02218800 -0.09375200 0.01986600
v -0.02499000 -0.09340200 0.01989400
v -0.02501900 -0.09334700 0.01989900
v -0.02501900 -0.09334700 0.01989900
v -0.02502900 -0.09326300 0.01990600
v -0.02502900 -0.09326300 0.01990600
v -0.02378500 -0.09210300 0.01999800
v -0.02378500 -0.09210300 0.01999800
v -0.02378500 -0.09210300 0.01999800
v -0.02503900 -0.09084000 0.02009900
v -0.02503900 -0.09084000 0.02009900
v -0.02503900 -0.09084000 0.02009900
v -0.02378600 -0.09185400 0.02001800
v -0.02378600 -0.09185400 0.02001800
v -0.02378600 -0.09185400 0.02001800
v -0.02245500 -0.09178600 0.02002300
v -0.02245500 -0.09178600 0.02002300
v -0.02245300 -0.09224400 0.01998700
v -0.02128600 -0.09245600 0.01997000
v -0.02128600 -0.09245600 0.01997000
v -0.02128600 -0.09245600 0.01997000
v -0.02149600 -0.09383400 0.01986000
v -0.02149600 -0.09383400 0.01986000
v -0.02120200 -0.09246400 0.01996900
v -0.02120200 -0.09246400 0.01996900
v -0.02120200 -0.09246400 0.01996900
v -0.02114400 -0.09387500 0.01985700
v -0.02114400 -0.09387500 0.01985700
v -0.02111800 -0.09247300 0.01996900
v -0.02111800 -0.09247300 0.01996900
v -0.02131900 -0.09180700 0.02002200
v -0.02146100 -0.09044000 0.02013100
v -0.02146100 -0.09044000 0.02013100
v -0.02128000 -0.09178800 0.02002300
v -0.02128000 -0.09178800 0.02002300
v -0.02128000 -0.09178800 0.02002300
v -0.02141600 -0.09043000 0.02013200
v -0.02141600 -0.09043000 0.02013200
v -0.02141600 -0.09043000 0.02013200
v -0.02141600 -0.09043000 0.02013200
v -0.02141600 -0.09043000 0.02013200
v -0.02108500 -0.09172800 0.02002800
v -0.02108500 -0.09172800 0.02002800
v -0.02089100 -0.09166800 0.02003300
v -0.02089100 -0.09166800 0.02003300
v -0.02356700 -0.09359000 0.01987900
v -0.02356700 -0.09359000 0.01987900
v -0.02359400 -0.09218600 0.01999200
v -0.02359400 -0.09218600 0.01999200
v -0.02366600 -0.09217800 0.01999200
v -0.02366600 -0.09217800 0.01999200
v -0.01891300 -0.08967800 0.02019200
v -0.01891300 -0.08967800 0.02019200
v -0.01891300 -0.08967800 0.02019200
v -0.01891300 -0.08967800 0.02019200
v -0.01891300 -0.08967800 0.02019200
v -0.01891300 -0.08967800 0.02019200
v -0.01891300 -0.08967800 0.02019200
v -0.01891300 -0.08967800 0.02019200
v -0.01972200 -0.08984300 0.02017900
v -0.01989200 -0.08990100 0.02017400
v -0.01989200 -0.08990100 0.02017400
v -0.01888800 -0.09406000 0.01984200
v -0.01889400 -0.09281400 0.01994100
v -0.01889400 -0.09281400 0.01994100
v -0.01892300 -0.09411300 0.01983800
v -0.01892300 -0.09411300 0.01983800
v -0.01892300 -0.09411300 0.01983800
v -0.01893000 -0.09275900 0.01994600
v -0.01893000 -0.09275900 0.01994600
v -0.01893000 -0.09275900 0.01994600
v -0.02080200 -0.09391500 0.01985300
v -0.02046000 -0.09395500 0.01985000
v -0.02046000 -0.09395500 0.01985000
v -0.02006600 -0.09259600 0.01995900
v -0.02006600 -0.09259600 0.01995900
v -0.02006600 -0.09259600 0.01995900
v -0.02011600 -0.09399500 0.01984700
v -0.02011600 -0.09399500 0.01984700
v -0.02011600 -0.09399500 0.01984700
v -0.01957000 -0.09265500 0.01995400
v -0.01957000 -0.09265500 0.01995400
v -0.01977200 -0.09403500 0.01984400
v -0.01977200 -0.09403500 0.01984400
v -0.01907500 -0.09271200 0.01994900
v -0.01907500 -0.09271200 0.01994900
v -0.01907500 -0.09271200 0.01994900
v -0.01939100 -0.09408000 0.01984000
v -0.01939100 -0.09408000 0.01984000
v -0.01939100 -0.09408000 0.01984000
v -0.01898900 -0.09272700 0.01994800
v -0.01898900 -0.09272700 0.01994800
v -0.01898900 -0.09272700 0.01994800
v -0.01900900 -0.09412500 0.01983700
v -0.01900900 -0.09412500 0.01983700
v -0.01900900 -0.09412500 0.01983700
v -0.01894600 -0.09412500 0.01983700
v -0.01894600 -0.09412500 0.01983700
v -0.02252700 -0.09371200 0.01987000
v -0.02252700 -0.09371200 0.01987000
v -0.02249500 -0.09231300 0.01998100
v -0.02249500 -0.09231300 0.01998100
v -0.02249500 -0.09231300 0.01998100
v -0.02287700 -0.09367100 0.01987300
v -0.02287700 -0.09367100 0.01987300
v -0.02287700 -0.09367100 0.01987300
v -0.02272000 -0.09228600 0.01998400
v -0.02272000 -0.09228600 0.01998400
v -0.02272000 -0.09228600 0.01998400
v -0.02322700 -0.09363000 0.01987600
v -0.02322700 -0.09363000 0.01987600
v -0.02322700 -0.09363000 0.01987600
v -0.02294600 -0.09225900 0.01998600
v -0.02294600 -0.09225900 0.01998600
v -0.02294600 -0.09225900 0.01998600
v -0.02327000 -0.09222200 0.01998900
v -0.02327000 -0.09222200 0.01998900
v -0.01893800 -0.09105000 0.02008200
v -0.01890300 -0.09099700 0.02008600
v -0.01890300 -0.09099700 0.02008600
v -0.01900000 -0.09108500 0.02007900
v -0.01900000 -0.09108500 0.02007900
v -0.01900000 -0.09108500 0.02007900
v -0.01890900 -0.08968700 0.02019100
v -0.01890900 -0.08968700 0.02019100
v -0.02006100 -0.08996000 0.02016900
v -0.02006100 -0.08996000 0.02016900
v -0.02073900 -0.09019500 0.02015000
v -0.02073900 -0.09019500 0.02015000
v -0.02134000 -0.09241300 0.01997300
v -0.02134000 -0.09241300 0.01997300
v -0.02134100 -0.09239700 0.01997500
v -0.02134100 -0.09239700 0.01997500
v -0.02134100 -0.09213000 0.01999600
v -0.02049400 -0.09154600 0.02004300
v -0.02009800 -0.09142300 0.02005200
v -0.01954900 -0.09125400 0.02006600
v -0.01901300 -0.08960100 0.02019800
v -0.01901300 -0.08960100 0.02019800
v -0.01903500 -0.08960500 0.02019800
v -0.01903500 -0.08960500 0.02019800
v -0.01891600 -0.08966900 0.02019300
v -0.01891600 -0.08966900 0.02019300
v -0.01891600 -0.08966900 0.02019300
v -0.01891600 -0.08966900 0.02019300
v -0.01891600 -0.08966900 0.02019300
v -0.01891600 -0.08966900 0.02019300
v -0.01905600 -0.08961200 0.02019700
v -0.01905600 -0.08961200 0.02019700
v -0.01905600 -0.08961200 0.02019700
v -0.01938900 -0.08972700 0.02018800
v -0.01938900 -0.08972700 0.02018800
v -0.01893400 -0.08962300 0.02019600
v -0.01895500 -0.08960500 0.02019800
v -0.01895500 -0.08960500 0.02019800
v -0.01898300 -0.08959900 0.02019800
v -0.01898300 -0.08959900 0.02019800
vn 0.00040000 -0.07950000 0.99680000
vn 0.00010000 -0.07950000 0.99680000
vn 0.00040000 -0.07950000 0.99680000
vn -0.00000000 -0.07960000 0.99680000
vn -0.00000000 -0.07970000 0.99680000
vn 0.00040000 -0.07950000 0.99680000
vn 0.00010000 -0.07960000 0.99680000
vn -0.00000000 -0.07960000 0.99680000
vn 0.00010000 -0.07950000 0.99680000
vn -0.00010000 -0.07940000 0.99680000
vn -0.00010000 -0.07950000 0.99680000
vn 0.00010000 -0.07970000 0.99680000
vn -0.00010000 -0.07970000 0.99680000
vn -0.00000000 -0.07960000 0.99680000
vn -0.00000000 -0.07960000 0.99680000
vn -0.00010000 -0.07970000 0.99680000
vn -0.00000000 -0.07960000 0.99680000
vn 0.00010000 -0.07950000 0.99680000
vn -0.00010000 -0.07970000 0.99680000
vn -0.00000000 -0.07950000 0.99680000
vn -0.00000000 -0.07950000 0.99680000
vn -0.00000000 -0.07960000 0.99680000
vn -0.00000000 -0.07950000 0.99680000
vn -0.00000000 -0.07970000 0.99680000
vn -0.00000000 -0.07950000 0.99680000
vn -0.00000000 -0.07950000 0.99680000
vn -0.00000000 -0.07960000 0.99680000
vn -0.00000000 -0.07970000 0.99680000
vn 0.00010000 -0.07950000 0.99680000
vn -0.00000000 -0.07960000 0.99680000
vn -0.00000000 -0.07970000 0.99680000
vn 0.00010000 -0.07960000 0.99680000
vn -0.00000000 -0.07960000 0.99680000
vn 0.00030000 -0.07950000 0.99680000
vn 0.00030000 -0.07950000 0.99680000
vn -0.00000000 -0.07960000 0.99680000
vn 0.00010000 -0.07960000 0.99680000
vn 0.00010000 -0.07950000 0.99680000
vn 0.00030000 -0.07950000 0.99680000
vn -0.00000000 -0.07960000 0.99680000
vn -0.00000000 -0.07960000 0.99680000
vn 0.00010000 -0.07950000 0.99680000
vn -0.00000000 -0.07960000 0.99680000
vn -0.00000000 -0.07960000 0.99680000
vn -0.00010000 -0.07950000 0.99680000
vn -0.00000000 -0.07960000 0.99680000
vn 0.00010000 -0.07970000 0.99680000
vn -0.00000000 -0.07950000 0.99680000
vn -0.00000000 -0.07960000 0.99680000
vn -0.00010000 -0.07950000 0.99680000
vn -0.00000000 -0.07960000 0.99680000
vn 0.00010000 -0.07970000 0.99680000
vn -0.00000000 -0.07950000 0.99680000
vn -0.00010000 -0.07950000 0.99680000
vn 0.00010000 -0.07970000 0.99680000
vn -0.00000000 -0.07950000 0.99680000
vn -0.00010000 -0.07950000 0.99680000
vn -0.00000000 -0.07960000 0.99680000
vn -0.00000000 -0.07950000 0.99680000
vn -0.00010000 -0.07950000 0.99680000
vn -0.00000000 -0.07960000 0.99680000
vn 0.00010000 -0.07960000 0.99680000
vn 0.00010000 -0.07960000 0.99680000
vn -0.00000000 -0.07960000 0.99680000
vn -0.00000000 -0.07960000 0.99680000
vn 0.00010000 -0.07960000 0.99680000
vn -0.00010000 -0.07950000 0.99680000
vn 0.00010000 -0.07950000 0.99680000
vn -0.00000000 -0.07960000 0.99680000
vn -0.00000000 -0.07950000 0.99680000
vn 0.00020000 -0.07970000 0.99680000
vn -0.00000000 -0.07960000 0.99680000
vn -0.00000000 -0.07960000 0.99680000
vn -0.00010000 -0.07960000 0.99680000
vn 0.00020000 -0.07970000 0.99680000
vn 0.00020000 -0.07970000 0.99680000
vn -0.00000000 -0.07960000 0.99680000
vn 0.00020000 -0.07970000 0.99680000
vn -0.00000000 -0.07960000 0.99680000
vn 0.00010000 -0.07960000 0.99680000
vn -0.00000000 -0.07970000 0.99680000
vn -0.00010000 -0.07960000 0.99680000
vn -0.00000000 -0.07960000 0.99680000
vn -0.00020000 -0.07950000 0.99680000
vn -0.00020000 -0.07950000 0.99680000
vn -0.00000000 -0.07970000 0.99680000
vn -0.00000000 -0.07980000 0.99680000
vn -0.00000000 -0.07970000 0.99680000
vn -0.00000000 -0.07960000 0.99680000
vn 0.00010000 -0.07960000 0.99680000
vn -0.00000000 -0.07950000 0.99680000
vn -0.00010000 -0.07950000 0.99680000
vn -0.00000000 -0.07950000 0.99680000
vn 0.00010000 -0.07960000 0.99680000
vn 0.00010000 -0.07970000 0.99680000
vn 0.00010000 -0.07970000 0.99680000
vn -0.00010000 -0.07940000 0.99680000
vn 0.00010000 -0.07970000 0.99680000
vn -0.00010000 -0.07940000 0.99680000
vn -0.00000000 -0.07970000 0.99680000
vn -0.00000000 -0.07960000 0.99680000
vn -0.00000000 -0.07970000 0.99680000
vn -0.00000000 -0.07960000 0.99680000
vn 0.00030000 -0.07970000 0.99680000
vn -0.00010000 -0.07960000 0.99680000
vn -0.00000000 -0.07960000 0.99680000
vn -0.00010000 -0.07960000 0.99680000
vn -0.00000000 -0.07960000 0.99680000
vn -0.00000000 -0.07960000 0.99680000
vn 0.00010000 -0.07960000 0.99680000
vn -0.00010000 -0.07960000 0.99680000
vn 0.00010000 -0.07960000 0.99680000
vn -0.00000000 -0.07960000 0.99680000
vn -0.00000000 -0.07970000 0.99680000
vn -0.00000000 -0.07960000 0.99680000
vn -0.00010000 -0.07960000 0.99680000
vn -0.00000000 -0.07980000 0.99680000
vn -0.00010000 -0.07960000 0.99680000
vn 0.00020000 -0.07960000 0.99680000
vn -0.00000000 -0.07960000 0.99680000
vn -0.00000000 -0.07960000 0.99680000
vn -0.00000000 -0.07950000 0.99680000
vn -0.00000000 -0.07960000 0.99680000
vn -0.00000000 -0.07950000 0.99680000
vn -0.00010000 -0.07960000 0.99680000
vn -0.00000000 -0.07960000 0.99680000
vn -0.00010000 -0.07960000 0.99680000
vn -0.00000000 -0.07960000 0.99680000
vn -0.00000000 -0.07970000 0.99680000
vn 0.00010000 -0.07950000 0.99680000
vn -0.00000000 -0.07960000 0.99680000
vn -0.00000000 -0.07970000 0.99680000
vn -0.00000000 -0.07970000 0.99680000
vn -0.00000000 -0.07960000 0.99680000
vn 0.00010000 -0.07950000 0.99680000
vn -0.00010000 -0.07950000 0.99680000
vn 0.00010000 -0.07970000 0.99680000
vn -0.00010000 -0.07950000 0.99680000
vn -0.00000000 -0.07960000 0.99680000
vn -0.00020000 -0.07950000 0.99680000
vn -0.00020000 -0.07960000 0.99680000
vn -0.00020000 -0.07960000 0.99680000
vn -0.00000000 -0.07960000 0.99680000
vn -0.00020000 -0.07960000 0.99680000
vn 0.00040000 -0.07960000 0.99680000
vn -0.00000000 -0.07960000 0.99680000
vn -0.00000000 -0.07960000 0.99680000
vn 0.00040000 -0.07960000 0.99680000
vn 0.00040000 -0.07960000 0.99680000
vn -0.00000000 -0.07960000 0.99680000
vn -0.00000000 -0.07960000 0.99680000
vn -0.00000000 -0.07960000 0.99680000
vn 0.00010000 -0.07960000 0.99680000
vn 0.00010000 -0.07960000 0.99680000
vn 0.00020000 -0.07960000 0.99680000
vn -0.00000000 -0.07960000 0.99680000
vn 0.00010000 -0.07960000 0.99680000
vn 0.00020000 -0.07960000 0.99680000
vn 0.00010000 -0.07950000 0.99680000
vn 0.00010000 -0.08000000 0.99680000
vn -0.00000000 -0.07960000 0.99680000
vn 0.00010000 -0.07950000 0.99680000
vn 0.00020000 -0.07960000 0.99680000
vn 0.00010000 -0.07950000 0.99680000
vn -0.00000000 -0.07960000 0.99680000
vn -0.00000000 -0.07960000 0.99680000
vn -0.00010000 -0.07960000 0.99680000
vn 0.00030000 -0.07970000 0.99680000
vn -0.00000000 -0.07960000 0.99680000
vn -0.00000000 -0.07960000 0.99680000
vn 0.00030000 -0.07970000 0.99680000
vn -0.00000000 -0.07970000 0.99680000
vn 0.00010000 -0.07930000 0.99680000
vn -0.00000000 -0.07960000 0.99680000
vn 0.00010000 -0.07960000 0.99680000
vn -0.00010000 -0.07940000 0.99680000
vn 0.00010000 -0.08000000 0.99680000
vn 0.00010000 -0.07950000 0.99680000
vn 0.00010000 -0.07980000 0.99680000
vn -0.00000000 -0.07970000 0.99680000
vn -0.00000000 -0.07940000 0.99680000
vn 0.00010000 -0.08000000 0.99680000
vn 0.00040000 -0.07960000 0.99680000
vn 0.00050000 -0.07960000 0.99680000
vn 0.00040000 -0.07960000 0.99680000
vn 0.00050000 -0.07960000 0.99680000
vn 0.00010000 -0.07960000 0.99680000
vn 0.00040000 -0.07960000 0.99680000
vn 0.00010000 -0.07960000 0.99680000
vn -0.00020000 -0.07960000 0.99680000
vn 0.00050000 -0.07960000 0.99680000
vn -0.00000000 -0.07960000 0.99680000
vn -0.00010000 -0.07960000 0.99680000
vn -0.00000000 -0.07960000 0.99680000
vn -0.00000000 -0.07960000 0.99680000
vn -0.00010000 -0.07960000 0.99680000
vn 0.00010000 -0.07960000 0.99680000
vn 0.00010000 -0.07960000 0.99680000
vn -0.00010000 -0.07960000 0.99680000
vn -0.00000000 -0.07960000 0.99680000
vn 0.00010000 -0.07960000 0.99680000
vn -0.00000000 -0.07960000 0.99680000
vn 0.00010000 -0.07960000 0.99680000
vn -0.00000000 -0.07960000 0.99680000
vn 0.00010000 -0.07960000 0.99680000
vn -0.00020000 -0.07960000 0.99680000
vn -0.00000000 -0.07960000 0.99680000
vn -0.00000000 -0.07960000 0.99680000
vn 0.00010000 -0.07960000 0.99680000
vn -0.00020000 -0.07960000 0.99680000
vn -0.00000000 -0.07960000 0.99680000
vn 0.00050000 -0.07960000 0.99680000
vn -0.00020000 -0.07960000 0.99680000
vn 0.00050000 -0.07960000 0.99680000
vn -0.00020000 -0.07960000 0.99680000
vn -0.00000000 -0.07960000 0.99680000
vn -0.00020000 -0.07960000 0.99680000
vn 0.00010000 -0.07960000 0.99680000
vn -0.00000000 -0.07960000 0.99680000
vn 0.00020000 -0.07960000 0.99680000
vn 0.00020000 -0.07960000 0.99680000
vn -0.00000000 -0.07960000 0.99680000
vn -0.00010000 -0.07960000 0.99680000
vn -0.00010000 -0.07960000 0.99680000
vn -0.00000000 -0.07960000 0.99680000
vn 0.00010000 -0.07960000 0.99680000
vn 0.00020000 -0.07960000 0.99680000
vn 0.00010000 -0.07960000 0.99680000
vn -0.00010000 -0.07960000 0.99680000
vn 0.00010000 -0.07960000 0.99680000
vn 0.00020000 -0.07960000 0.99680000
vn -0.00000000 -0.07960000 0.99680000
vn -0.00010000 -0.07960000 0.99680000
vn 0.00020000 -0.07960000 0.99680000
vn -0.00000000 -0.07960000 0.99680000
vn -0.00000000 -0.07960000 0.99680000
vn -0.00010000 -0.07960000 0.99680000
vn -0.00000000 -0.07960000 0.99680000
vn -0.00000000 -0.07920000 0.99690000
vn -0.00000000 -0.07960000 0.99680000
vn -0.00000000 -0.07960000 0.99680000
vn 0.00010000 -0.07950000 0.99680000
vn 0.00010000 -0.07970000 0.99680000
vn -0.00000000 -0.07960000 0.99680000
vn 0.00010000 -0.07950000 0.99680000
vn -0.00010000 -0.07940000 0.99680000
vn -0.00000000 -0.07950000 0.99680000
vn -0.00010000 -0.07940000 0.99680000
vn 0.00010000 -0.08000000 0.99680000
vn -0.00000000 -0.07970000 0.99680000
vn -0.00000000 -0.07980000 0.99680000
vn -0.00000000 -0.07970000 0.99680000
vn -0.00000000 -0.07960000 0.99680000
vn -0.00000000 -0.07960000 0.99680000
vn -0.00000000 -0.07960000 0.99680000
vn -0.00000000 -0.07960000 0.99680000
vn -0.00000000 -0.07960000 0.99680000
vn -0.00000000 -0.07960000 0.99680000
vn -0.00000000 -0.07950000 0.99680000
vn 0.00030000 -0.07970000 0.99680000
vn -0.00000000 -0.07940000 0.99680000
vn -0.00000000 -0.07970000 0.99680000
vn 0.00010000 -0.07930000 0.99680000
vn -0.00000000 -0.07980000 0.99680000
vn 0.00010000 -0.07970000 0.99680000
vn -0.00000000 -0.07960000 0.99680000
vn 0.00030000 -0.07970000 0.99680000
vn 0.00010000 -0.07930000 0.99680000
vn 0.00030000 -0.07970000 0.99680000
vn 0.00010000 -0.07960000 0.99680000
vn -0.00000000 -0.07970000 0.99680000
vn 0.00010000 -0.07960000 0.99680000
vn 0.00010000 -0.07970000 0.99680000
vn 0.00010000 -0.07970000 0.99680000
vn -0.00000000 -0.07970000 0.99680000
vn -0.00000000 -0.07970000 0.99680000
vn -0.00000000 -0.07960000 0.99680000
f 1//1 3//3 6//6
f 13//13 16//16 19//19
f 15//15 22//22 17//17
f 20//20 21//21 23//23
f 20//20 23//23 25//25
f 25//25 23//23 26//26
f 24//24 28//28 31//31
f 34//34 35//35 39//39
f 40//40 36//36 41//41
f 38//38 42//42 29//29
f 27//27 41//41 43//43
f 27//27 43//43 30//30
f 44//44 46//46 49//49
f 49//49 46//46 51//51
f 47//47 52//52 55//55
f 56//56 53//53 59//59
f 54//54 57//57 60//60
f 61//61 58//58 64//64
f 62//62 63//63 32//32
f 33//33 64//64 65//65
f 32//32 66//66 37//37
f 2//2 9//9 68//68
f 69//69 72//72 73//73
f 75//75 71//71 76//76
f 75//75 76//76 78//78
f 81//81 86//86 88//88
f 45//45 50//50 92//92
f 91//91 48//48 93//93
f 90//90 94//94 7//7
f 12//12 95//95 96//96
f 10//10 97//97 99//99
f 100//100 102//102 5//5
f 105//105 107//107 111//111
f 109//109 108//108 79//79
f 110//110 80//80 112//112
f 113//113 79//79 77//77
f 89//89 115//115 83//83
f 82//82 116//116 118//118
f 83//83 120//120 121//121
f 122//122 70//70 124//124
f 123//123 69//69 73//73
f 123//123 73//73 126//126
f 125//125 74//74 127//127
f 126//126 128//128 131//131
f 132//132 129//129 133//133
f 130//130 135//135 18//18
f 17//17 134//134 14//14
f 98//98 137//137 12//12
f 11//11 136//136 138//138
f 11//11 138//138 67//67
f 85//85 84//84 140//140
f 139//139 83//83 143//143
f 141//141 142//142 144//144
f 146//146 143//143 147//147
f 145//145 148//148 149//149
f 4//4 103//103 8//8
f 8//8 103//103 151//151
f 8//8 151//151 152//152
f 152//152 151//151 156//156
f 153//153 154//154 157//157
f 158//158 155//155 163//163
f 159//159 162//162 164//164
f 166//166 169//169 106//106
f 104//104 168//168 171//171
f 106//106 170//170 108//108
f 172//172 180//180 181//181
f 183//183 185//185 188//188
f 186//186 184//184 191//191
f 147//147 192//192 150//150
f 150//150 192//192 194//194
f 150//150 194//194 195//195
f 196//196 193//193 199//199
f 197//197 198//198 201//201
f 202//202 200//200 204//204
f 202//202 204//204 207//207
f 205//205 203//203 209//209
f 206//206 210//210 213//213
f 211//211 208//208 216//216
f 212//212 214//214 191//191
f 190//190 215//215 217//217
f 189//189 218//218 187//187
f 121//121 120//120 219//219
f 220//220 119//119 221//221
f 219//219 222//222 225//225
f 224//224 223//223 229//229
f 226//226 228//228 230//230
f 231//231 227//227 234//234
f 232//232 235//235 166//166
f 167//167 233//233 237//237
f 166//166 236//236 169//169
f 238//238 239//239 243//243
f 241//241 240//240 244//244
f 242//242 245//245 178//178
f 182//182 247//247 179//179
f 176//176 246//246 248//248
f 177//177 249//249 160//160
f 87//87 251//251 117//117
f 114//114 250//250 252//252
f 114//114 252//252 5//5
f 4//4 253//253 254//254
f 4//4 254//254 101//101
f 165//165 255//255 161//161
f 161//161 255//255 256//256
f 161//161 256//256 174//174
f 174//174 256//256 257//257
f 174//174 257//257 241//241
f 259//259 261//261 264//264
f 267//267 260//260 269//269
f 263//263 268//268 173//173
f 175//175 270//270 272//272
f 172//172 271//271 180//180
f 273//273 274//274 265//265
f 262//262 275//275 276//276
f 266//266 277//277 258//258

