mtllib material.mtl
usemtl Material-塑胶.115
v -0.02493300 -0.10202800 -0.01920600
v -0.02493300 -0.10202800 -0.01920600
v -0.02489200 -0.10201800 -0.01920700
v -0.02374800 -0.10330100 -0.01910400
v -0.02374800 -0.10330100 -0.01910400
v -0.02374800 -0.10330100 -0.01910400
v -0.02374800 -0.10330100 -0.01910400
v -0.02374800 -0.10330100 -0.01910400
v -0.02374800 -0.10330100 -0.01910400
v -0.02485000 -0.10201300 -0.01920700
v -0.02485000 -0.10201300 -0.01920700
v -0.02373500 -0.10328700 -0.01910500
v -0.02373500 -0.10328700 -0.01910500
v -0.02373500 -0.10328700 -0.01910500
v -0.02259800 -0.10317900 -0.01911400
v -0.02259800 -0.10317900 -0.01911400
v -0.02259800 -0.10317900 -0.01911400
v -0.02259800 -0.10317900 -0.01911400
v -0.02260600 -0.10316400 -0.01911500
v -0.02260600 -0.10316400 -0.01911500
v -0.02209500 -0.10168400 -0.01923300
v -0.02209500 -0.10168400 -0.01923300
v -0.02209500 -0.10168400 -0.01923300
v -0.02209500 -0.10168400 -0.01923300
v -0.02209500 -0.10168400 -0.01923300
v -0.02261600 -0.10315700 -0.01911600
v -0.02261600 -0.10315700 -0.01911600
v -0.02247100 -0.10172900 -0.01923000
v -0.02247100 -0.10172900 -0.01923000
v -0.02265100 -0.10315400 -0.01911600
v -0.02265100 -0.10315400 -0.01911600
v -0.02284700 -0.10177500 -0.01922600
v -0.02284700 -0.10177500 -0.01922600
v -0.02284700 -0.10177500 -0.01922600
v -0.01927700 -0.10134900 -0.01926000
v -0.01927700 -0.10134900 -0.01926000
v -0.01898900 -0.10131300 -0.01926300
v -0.01898900 -0.10131300 -0.01926300
v -0.02012300 -0.10286800 -0.01913900
v -0.02012300 -0.10286800 -0.01913900
v -0.02012300 -0.10286800 -0.01913900
v -0.02012300 -0.10286800 -0.01913900
v -0.02012300 -0.10286800 -0.01913900
v -0.01892300 -0.10131600 -0.01926200
v -0.01892300 -0.10131600 -0.01926200
v -0.02499900 -0.10213500 -0.01919700
v -0.02499900 -0.10213500 -0.01919700
v -0.02500100 -0.10219500 -0.01919200
v -0.02500100 -0.10219500 -0.01919200
v -0.02500100 -0.10219500 -0.01919200
v -0.02500100 -0.10219500 -0.01919200
v -0.02500100 -0.10219500 -0.01919200
v -0.02500100 -0.10219500 -0.01919200
v -0.02500100 -0.10219500 -0.01919200
v -0.02375500 -0.10332600 -0.01910200
v -0.02375500 -0.10332600 -0.01910200
v -0.02375600 -0.10335200 -0.01910000
v -0.02375600 -0.10335200 -0.01910000
v -0.02010900 -0.10294100 -0.01913300
v -0.02010900 -0.10294100 -0.01913300
v -0.02011400 -0.10288500 -0.01913700
v -0.02011400 -0.10288500 -0.01913700
v -0.01886200 -0.10137200 -0.01925800
v -0.01886200 -0.10137200 -0.01925800
v -0.01886200 -0.10137200 -0.01925800
v -0.01886200 -0.10137200 -0.01925800
v -0.01888700 -0.10133800 -0.01926100
v -0.01888700 -0.10133800 -0.01926100
v -0.01956400 -0.10138300 -0.01925700
v -0.01956400 -0.10138300 -0.01925700
v -0.02013500 -0.10286000 -0.01913900
v -0.02013500 -0.10286000 -0.01913900
v -0.01997600 -0.10143200 -0.01925300
v -0.02016600 -0.10285600 -0.01914000
v -0.02038800 -0.10148000 -0.01924900
v -0.02038800 -0.10148000 -0.01924900
v -0.02194400 -0.10491400 -0.01897500
v -0.02226700 -0.10495200 -0.01897200
v -0.02226700 -0.10495200 -0.01897200
v -0.02259400 -0.10322600 -0.01911000
v -0.02259400 -0.10322600 -0.01911000
v -0.02259400 -0.10322600 -0.01911000
v -0.02259400 -0.10322600 -0.01911000
v -0.02259400 -0.10322600 -0.01911000
v -0.02238100 -0.10496500 -0.01897100
v -0.02238100 -0.10496500 -0.01897100
v -0.02238100 -0.10496500 -0.01897100
v -0.02238100 -0.10496500 -0.01897100
v -0.02388300 -0.10609900 -0.01888100
v -0.02388300 -0.10609900 -0.01888100
v -0.02388300 -0.10609900 -0.01888100
v -0.02400300 -0.10611500 -0.01887900
v -0.02400300 -0.10611500 -0.01887900
v -0.02011700 -0.10551700 -0.01892700
v -0.02011700 -0.10551700 -0.01892700
v -0.02011700 -0.10551700 -0.01892700
v -0.01948200 -0.10557700 -0.01892200
v -0.01948200 -0.10557700 -0.01892200
v -0.01975600 -0.10560900 -0.01892000
v -0.01975600 -0.10560900 -0.01892000
v -0.01975600 -0.10560900 -0.01892000
v -0.01975600 -0.10560900 -0.01892000
v -0.02011300 -0.10422900 -0.01903000
v -0.02011300 -0.10422900 -0.01903000
v -0.02011300 -0.10422900 -0.01903000
v -0.01887500 -0.10543100 -0.01893400
v -0.01887500 -0.10543100 -0.01893400
v -0.01891400 -0.10548700 -0.01893000
v -0.01891400 -0.10548700 -0.01893000
v -0.02162000 -0.10487600 -0.01897800
v -0.02162000 -0.10487600 -0.01897800
v -0.02162000 -0.10487600 -0.01897800
v -0.02135900 -0.10309100 -0.01912100
v -0.02135900 -0.10309100 -0.01912100
v -0.02135900 -0.10309100 -0.01912100
v -0.02136200 -0.10390900 -0.01905500
v -0.02136200 -0.10390900 -0.01905500
v -0.02136200 -0.10390900 -0.01905500
v -0.02136200 -0.10390900 -0.01905500
v -0.02135500 -0.10303100 -0.01912600
v -0.02135500 -0.10303100 -0.01912600
v -0.02135500 -0.10303100 -0.01912600
v -0.02134500 -0.10301000 -0.01912700
v -0.02134500 -0.10301000 -0.01912700
v -0.02134500 -0.10301000 -0.01912700
v -0.02453600 -0.10197500 -0.01921000
v -0.02453600 -0.10197500 -0.01921000
v -0.02422200 -0.10193800 -0.01921300
v -0.02422200 -0.10193800 -0.01921300
v -0.02370900 -0.10327900 -0.01910600
v -0.02391200 -0.10190100 -0.01921600
v -0.02340400 -0.10324300 -0.01910900
v -0.02360300 -0.10186400 -0.01921900
v -0.02309800 -0.10320700 -0.01911200
v -0.02309800 -0.10320700 -0.01911200
v -0.02322500 -0.10181900 -0.01922200
v -0.02322500 -0.10181900 -0.01922200
v -0.02288600 -0.10318200 -0.01911400
v -0.02288600 -0.10318200 -0.01911400
v -0.02267400 -0.10315600 -0.01911600
v -0.02267400 -0.10315600 -0.01911600
v -0.02498100 -0.10207100 -0.01920200
v -0.02498100 -0.10207100 -0.01920200
v -0.02494800 -0.10203700 -0.01920500
v -0.02494800 -0.10203700 -0.01920500
v -0.01897100 -0.10551600 -0.01892700
v -0.01897100 -0.10551600 -0.01892700
v -0.01900600 -0.10552200 -0.01892700
v -0.01924400 -0.10554900 -0.01892400
v -0.02498000 -0.10620600 -0.01887200
v -0.02500200 -0.10617500 -0.01887500
v -0.02500200 -0.10617500 -0.01887500
v -0.02494800 -0.10622100 -0.01887100
v -0.02494800 -0.10622100 -0.01887100
v -0.02494800 -0.10622100 -0.01887100
v -0.02501300 -0.10608400 -0.01888200
v -0.02501300 -0.10608400 -0.01888200
v -0.02501300 -0.10608400 -0.01888200
v -0.02485400 -0.10622100 -0.01887100
v -0.02485400 -0.10622100 -0.01887100
v -0.02485400 -0.10622100 -0.01887100
v -0.02501300 -0.10607300 -0.01888300
v -0.02501300 -0.10607300 -0.01888300
v -0.02448800 -0.10617500 -0.01887500
v -0.02412300 -0.10613000 -0.01887800
v -0.02412300 -0.10613000 -0.01887800
v -0.02378200 -0.10603900 -0.01888500
v -0.02381700 -0.10607600 -0.01888300
v -0.02381700 -0.10607600 -0.01888300
v -0.02376400 -0.10595800 -0.01889200
v -0.02376400 -0.10595800 -0.01889200
v -0.02376400 -0.10595800 -0.01889200
v -0.02376000 -0.10466800 -0.01899500
v -0.02376000 -0.10466800 -0.01899500
v -0.02375600 -0.10337800 -0.01909800
v -0.02375600 -0.10337800 -0.01909800
v -0.02020100 -0.10285900 -0.01913900
v -0.02037700 -0.10288100 -0.01913800
v -0.02037700 -0.10288100 -0.01913800
v -0.02037700 -0.10288100 -0.01913800
v -0.02083200 -0.10153400 -0.01924500
v -0.02083200 -0.10153400 -0.01924500
v -0.02055300 -0.10290100 -0.01913600
v -0.02055300 -0.10290100 -0.01913600
v -0.02127600 -0.10158700 -0.01924100
v -0.02127600 -0.10158700 -0.01924100
v -0.02091100 -0.10294300 -0.01913300
v -0.02168500 -0.10163500 -0.01923700
v -0.02126900 -0.10298600 -0.01912900
v -0.02126900 -0.10298600 -0.01912900
v -0.02132900 -0.10299900 -0.01912800
v -0.02132900 -0.10299900 -0.01912800
v -0.02249500 -0.10497700 -0.01897000
v -0.02249500 -0.10497700 -0.01897000
v -0.02249500 -0.10497700 -0.01897000
v -0.02249500 -0.10497700 -0.01897000
v -0.02254600 -0.10497100 -0.01897100
v -0.02257600 -0.10495000 -0.01897200
v -0.02257600 -0.10495000 -0.01897200
v -0.02003000 -0.10564000 -0.01891700
v -0.02003000 -0.10564000 -0.01891700
v -0.02003000 -0.10564000 -0.01891700
v -0.02006700 -0.10563500 -0.01891800
v -0.02009700 -0.10561400 -0.01891900
v -0.02009700 -0.10561400 -0.01891900
v -0.02136400 -0.10472700 -0.01899000
v -0.02136400 -0.10472700 -0.01899000
v -0.02136400 -0.10472700 -0.01899000
v -0.02137900 -0.10479800 -0.01898400
v -0.02140900 -0.10483400 -0.01898200
v -0.02140900 -0.10483400 -0.01898200
v -0.02259500 -0.10491200 -0.01897500
v -0.02259500 -0.10491200 -0.01897500
v -0.02259600 -0.10490600 -0.01897600
v -0.02259600 -0.10490600 -0.01897600
v -0.02259800 -0.10485000 -0.01898000
v -0.02259800 -0.10485000 -0.01898000
v -0.02011500 -0.10557900 -0.01892200
v -0.02011500 -0.10557900 -0.01892200
v -0.02011600 -0.10556900 -0.01892300
v -0.02011600 -0.10556900 -0.01892300
v -0.02011600 -0.10556900 -0.01892300
v -0.02011800 -0.10554300 -0.01892500
v -0.02011800 -0.10554300 -0.01892500
v -0.02147300 -0.10485800 -0.01898000
v -0.02147300 -0.10485800 -0.01898000
v -0.02148400 -0.10486000 -0.01898000
v -0.02148400 -0.10486000 -0.01898000
v -0.02155200 -0.10486800 -0.01897900
v -0.02155200 -0.10486800 -0.01897900
vn -0.00000000 -0.07960000 -0.99680000
vn 0.00020000 -0.07950000 -0.99680000
vn -0.00000000 -0.07960000 -0.99680000
vn -0.00000000 -0.07960000 -0.99680000
vn -0.00010000 -0.07960000 -0.99680000
vn 0.00020000 -0.07950000 -0.99680000
vn -0.00020000 -0.07980000 -0.99680000
vn -0.00000000 -0.07950000 -0.99680000
vn -0.00030000 -0.08000000 -0.99680000
vn -0.00000000 -0.07960000 -0.99680000
vn -0.00000000 -0.07950000 -0.99680000
vn -0.00020000 -0.07970000 -0.99680000
vn -0.00000000 -0.07960000 -0.99680000
vn -0.00000000 -0.07950000 -0.99680000
vn -0.00000000 -0.07950000 -0.99680000
vn -0.00000000 -0.07960000 -0.99680000
vn -0.00000000 -0.07910000 -0.99690000
vn 0.00010000 -0.07970000 -0.99680000
vn 0.00010000 -0.07960000 -0.99680000
vn 0.00010000 -0.07970000 -0.99680000
vn 0.00010000 -0.07950000 -0.99680000
vn -0.00010000 -0.07960000 -0.99680000
vn -0.00000000 -0.07960000 -0.99680000
vn 0.00010000 -0.07970000 -0.99680000
vn 0.00010000 -0.07960000 -0.99680000
vn 0.00010000 -0.07960000 -0.99680000
vn -0.00000000 -0.07960000 -0.99680000
vn -0.00000000 -0.07960000 -0.99680000
vn 0.00010000 -0.07960000 -0.99680000
vn 0.00010000 -0.07960000 -0.99680000
vn 0.00030000 -0.07960000 -0.99680000
vn -0.00000000 -0.07960000 -0.99680000
vn 0.00010000 -0.07960000 -0.99680000
vn 0.00030000 -0.07960000 -0.99680000
vn 0.00020000 -0.07970000 -0.99680000
vn -0.00000000 -0.07960000 -0.99680000
vn -0.00000000 -0.07960000 -0.99680000
vn 0.00020000 -0.07970000 -0.99680000
vn 0.00010000 -0.07960000 -0.99680000
vn -0.00000000 -0.07970000 -0.99680000
vn 0.00020000 -0.07970000 -0.99680000
vn -0.00010000 -0.07950000 -0.99680000
vn -0.00000000 -0.07960000 -0.99680000
vn -0.00000000 -0.07960000 -0.99680000
vn 0.00020000 -0.07970000 -0.99680000
vn -0.00000000 -0.07950000 -0.99680000
vn -0.00020000 -0.07980000 -0.99680000
vn -0.00030000 -0.08000000 -0.99680000
vn -0.00000000 -0.07950000 -0.99680000
vn 0.00010000 -0.07960000 -0.99680000
vn -0.00000000 -0.07960000 -0.99680000
vn 0.00010000 -0.07940000 -0.99680000
vn -0.00020000 -0.07960000 -0.99680000
vn -0.00000000 -0.07990000 -0.99680000
vn 0.00010000 -0.07940000 -0.99680000
vn -0.00030000 -0.08000000 -0.99680000
vn 0.00010000 -0.07940000 -0.99680000
vn -0.00000000 -0.07990000 -0.99680000
vn 0.00010000 -0.07970000 -0.99680000
vn -0.00000000 -0.07960000 -0.99680000
vn -0.00000000 -0.07970000 -0.99680000
vn 0.00010000 -0.07970000 -0.99680000
vn -0.00000000 -0.07960000 -0.99680000
vn -0.00000000 -0.07970000 -0.99680000
vn -0.00010000 -0.07950000 -0.99680000
vn 0.00010000 -0.07970000 -0.99680000
vn -0.00010000 -0.07950000 -0.99680000
vn 0.00020000 -0.07970000 -0.99680000
vn 0.00010000 -0.07960000 -0.99680000
vn -0.00000000 -0.07960000 -0.99680000
vn -0.00000000 -0.07960000 -0.99680000
vn 0.00010000 -0.07960000 -0.99680000
vn -0.00000000 -0.07960000 -0.99680000
vn -0.00000000 -0.07960000 -0.99680000
vn -0.00000000 -0.07960000 -0.99680000
vn -0.00010000 -0.07960000 -0.99680000
vn -0.00000000 -0.07960000 -0.99680000
vn -0.00000000 -0.07960000 -0.99680000
vn -0.00030000 -0.07960000 -0.99680000
vn -0.00000000 -0.07960000 -0.99680000
vn -0.00000000 -0.07910000 -0.99690000
vn -0.00030000 -0.07960000 -0.99680000
vn 0.00010000 -0.07960000 -0.99680000
vn -0.00000000 -0.07920000 -0.99690000
vn 0.00010000 -0.07960000 -0.99680000
vn 0.00020000 -0.07950000 -0.99680000
vn -0.00030000 -0.07960000 -0.99680000
vn -0.00000000 -0.07960000 -0.99680000
vn -0.00000000 -0.07940000 -0.99680000
vn 0.00010000 -0.07960000 -0.99680000
vn -0.00000000 -0.07960000 -0.99680000
vn -0.00020000 -0.07960000 -0.99680000
vn 0.00010000 -0.07960000 -0.99680000
vn -0.00000000 -0.07960000 -0.99680000
vn -0.00000000 -0.07940000 -0.99680000
vn 0.00010000 -0.07910000 -0.99690000
vn 0.00010000 -0.07910000 -0.99690000
vn -0.00000000 -0.07960000 -0.99680000
vn -0.00000000 -0.07940000 -0.99680000
vn 0.00010000 -0.07910000 -0.99690000
vn -0.00010000 -0.07990000 -0.99680000
vn -0.00000000 -0.07950000 -0.99680000
vn -0.00000000 -0.07960000 -0.99680000
vn 0.00020000 -0.07940000 -0.99680000
vn -0.00010000 -0.07970000 -0.99680000
vn 0.00020000 -0.07940000 -0.99680000
vn -0.00000000 -0.07960000 -0.99680000
vn -0.00010000 -0.07970000 -0.99680000
vn 0.00020000 -0.07940000 -0.99680000
vn 0.00010000 -0.07960000 -0.99680000
vn 0.00020000 -0.07960000 -0.99680000
vn -0.00000000 -0.07960000 -0.99680000
vn 0.00020000 -0.07960000 -0.99680000
vn -0.00000000 -0.07920000 -0.99690000
vn -0.00000000 -0.07960000 -0.99680000
vn 0.00020000 -0.07960000 -0.99680000
vn -0.00010000 -0.07960000 -0.99680000
vn 0.00010000 -0.07960000 -0.99680000
vn -0.00000000 -0.07960000 -0.99680000
vn -0.00000000 -0.07950000 -0.99680000
vn -0.00000000 -0.07920000 -0.99690000
vn -0.00000000 -0.07910000 -0.99690000
vn -0.00000000 -0.07960000 -0.99680000
vn -0.00010000 -0.07960000 -0.99680000
vn -0.00000000 -0.07950000 -0.99680000
vn -0.00000000 -0.07960000 -0.99680000
vn -0.00020000 -0.07970000 -0.99680000
vn -0.00000000 -0.07960000 -0.99680000
vn -0.00020000 -0.07970000 -0.99680000
vn -0.00000000 -0.07960000 -0.99680000
vn -0.00000000 -0.07960000 -0.99680000
vn -0.00000000 -0.07960000 -0.99680000
vn -0.00000000 -0.07960000 -0.99680000
vn -0.00000000 -0.07960000 -0.99680000
vn 0.00010000 -0.07960000 -0.99680000
vn 0.00010000 -0.07960000 -0.99680000
vn -0.00000000 -0.07960000 -0.99680000
vn -0.00000000 -0.07960000 -0.99680000
vn 0.00010000 -0.07960000 -0.99680000
vn 0.00030000 -0.07960000 -0.99680000
vn -0.00000000 -0.07960000 -0.99680000
vn -0.00020000 -0.07980000 -0.99680000
vn -0.00010000 -0.07960000 -0.99680000
vn 0.00020000 -0.07950000 -0.99680000
vn -0.00010000 -0.07960000 -0.99680000
vn -0.00000000 -0.07960000 -0.99680000
vn -0.00010000 -0.07970000 -0.99680000
vn -0.00000000 -0.07960000 -0.99680000
vn -0.00000000 -0.07960000 -0.99680000
vn 0.00010000 -0.07960000 -0.99680000
vn 0.00010000 -0.07960000 -0.99680000
vn -0.00010000 -0.07960000 -0.99680000
vn -0.00010000 -0.07960000 -0.99680000
vn 0.00010000 -0.07960000 -0.99680000
vn 0.00030000 -0.07940000 -0.99680000
vn 0.00020000 -0.07940000 -0.99680000
vn -0.00010000 -0.07960000 -0.99680000
vn 0.00030000 -0.07940000 -0.99680000
vn 0.00030000 -0.07940000 -0.99680000
vn 0.00020000 -0.07940000 -0.99680000
vn -0.00000000 -0.07960000 -0.99680000
vn 0.00020000 -0.07940000 -0.99680000
vn -0.00000000 -0.07960000 -0.99680000
vn -0.00000000 -0.07960000 -0.99680000
vn -0.00000000 -0.07960000 -0.99680000
vn -0.00020000 -0.07960000 -0.99680000
vn 0.00010000 -0.07980000 -0.99680000
vn 0.00010000 -0.07980000 -0.99680000
vn -0.00000000 -0.07940000 -0.99680000
vn -0.00000000 -0.07940000 -0.99680000
vn 0.00010000 -0.07980000 -0.99680000
vn 0.00010000 -0.07960000 -0.99680000
vn 0.00010000 -0.07960000 -0.99680000
vn -0.00000000 -0.07960000 -0.99680000
vn -0.00000000 -0.07960000 -0.99680000
vn -0.00000000 -0.07990000 -0.99680000
vn -0.00000000 -0.07960000 -0.99680000
vn 0.00010000 -0.07960000 -0.99680000
vn -0.00000000 -0.07960000 -0.99680000
vn -0.00010000 -0.07960000 -0.99680000
vn -0.00010000 -0.07960000 -0.99680000
vn 0.00010000 -0.07960000 -0.99680000
vn 0.00010000 -0.07960000 -0.99680000
vn -0.00000000 -0.07960000 -0.99680000
vn -0.00000000 -0.07960000 -0.99680000
vn 0.00010000 -0.07960000 -0.99680000
vn -0.00000000 -0.07960000 -0.99680000
vn -0.00000000 -0.07960000 -0.99680000
vn 0.00010000 -0.07950000 -0.99680000
vn -0.00000000 -0.07960000 -0.99680000
vn -0.00010000 -0.07960000 -0.99680000
vn 0.00010000 -0.07950000 -0.99680000
vn -0.00010000 -0.07960000 -0.99680000
vn -0.00000000 -0.07960000 -0.99680000
vn -0.00000000 -0.07980000 -0.99680000
vn 0.00020000 -0.07950000 -0.99680000
vn -0.00010000 -0.07960000 -0.99680000
vn -0.00000000 -0.07980000 -0.99680000
vn -0.00010000 -0.07960000 -0.99680000
vn -0.00000000 -0.07960000 -0.99680000
vn 0.00010000 -0.07960000 -0.99680000
vn -0.00000000 -0.07950000 -0.99680000
vn -0.00000000 -0.07960000 -0.99680000
vn -0.00000000 -0.07960000 -0.99680000
vn 0.00010000 -0.07960000 -0.99680000
vn -0.00000000 -0.07960000 -0.99680000
vn -0.00010000 -0.07950000 -0.99680000
vn 0.00010000 -0.07960000 -0.99680000
vn -0.00010000 -0.07950000 -0.99680000
vn -0.00010000 -0.07950000 -0.99680000
vn 0.00010000 -0.07960000 -0.99680000
vn 0.00020000 -0.07950000 -0.99680000
vn -0.00000000 -0.07980000 -0.99680000
vn -0.00000000 -0.07960000 -0.99680000
vn 0.00020000 -0.07950000 -0.99680000
vn 0.00020000 -0.07950000 -0.99680000
vn 0.00010000 -0.07960000 -0.99680000
vn -0.00010000 -0.07980000 -0.99680000
vn 0.00010000 -0.07960000 -0.99680000
vn -0.00010000 -0.07990000 -0.99680000
vn -0.00000000 -0.07960000 -0.99680000
vn -0.00000000 -0.07950000 -0.99680000
vn -0.00000000 -0.07940000 -0.99680000
vn -0.00010000 -0.07990000 -0.99680000
vn 0.00010000 -0.07960000 -0.99680000
vn -0.00000000 -0.07960000 -0.99680000
vn -0.00000000 -0.07960000 -0.99680000
vn -0.00010000 -0.07960000 -0.99680000
vn -0.00010000 -0.07960000 -0.99680000
vn 0.00010000 -0.07960000 -0.99680000
f 1//1 3//3 4//4
f 4//4 3//3 10//10
f 8//8 11//11 14//14
f 18//18 20//20 24//24
f 25//25 19//19 26//26
f 23//23 27//27 28//28
f 29//29 26//26 30//30
f 29//29 30//30 33//33
f 35//35 38//38 41//41
f 43//43 37//37 44//44
f 46//46 8//8 49//49
f 48//48 9//9 56//56
f 52//52 55//55 57//57
f 59//59 62//62 66//66
f 64//64 61//61 40//40
f 65//65 42//42 67//67
f 68//68 41//41 45//45
f 36//36 43//43 70//70
f 69//69 39//39 72//72
f 70//70 71//71 73//73
f 73//73 71//71 74//74
f 73//73 74//74 75//75
f 77//77 78//78 80//80
f 82//82 79//79 87//87
f 90//90 93//93 50//50
f 96//96 97//97 100//100
f 60//60 63//63 103//103
f 103//103 63//63 107//107
f 104//104 106//106 109//109
f 111//111 113//113 116//116
f 112//112 77//77 115//115
f 115//115 77//77 80//80
f 114//114 84//84 121//121
f 122//122 81//81 17//17
f 120//120 15//15 125//125
f 123//123 16//16 23//23
f 10//10 126//126 13//13
f 12//12 127//127 129//129
f 13//13 128//128 130//130
f 130//130 128//128 131//131
f 130//130 131//131 132//132
f 132//132 131//131 133//133
f 132//132 133//133 134//134
f 134//134 133//133 137//137
f 135//135 136//136 139//139
f 138//138 137//137 32//32
f 138//138 32//32 141//141
f 140//140 34//34 31//31
f 47//47 142//142 7//7
f 5//5 143//143 145//145
f 6//6 144//144 2//2
f 108//108 147//147 105//105
f 103//103 146//146 148//148
f 103//103 148//148 94//94
f 94//94 148//148 149//149
f 94//94 149//149 98//98
f 150//150 151//151 154//154
f 153//153 152//152 157//157
f 155//155 158//158 159//159
f 160//160 156//156 162//162
f 161//161 163//163 164//164
f 164//164 163//163 51//51
f 164//164 51//51 165//165
f 166//166 53//53 92//92
f 167//167 168//168 171//171
f 170//170 169//169 89//89
f 172//172 90//90 173//173
f 174//174 91//91 51//51
f 174//174 51//51 175//175
f 176//176 54//54 58//58
f 74//74 177//177 75//75
f 75//75 177//177 179//179
f 76//76 180//180 181//181
f 182//182 178//178 183//183
f 182//182 183//183 186//186
f 185//185 184//184 187//187
f 185//185 187//187 188//188
f 188//188 187//187 190//190
f 188//188 190//190 23//23
f 21//21 189//189 192//192
f 22//22 191//191 124//124
f 193//193 197//197 199//199
f 200//200 203//203 204//204
f 207//207 209//209 210//210
f 198//198 213//213 195//195
f 196//196 212//212 215//215
f 194//194 214//214 88//88
f 86//86 215//215 216//216
f 85//85 217//217 83//83
f 205//205 219//219 201//201
f 200//200 218//218 221//221
f 202//202 222//222 102//102
f 101//101 220//220 224//224
f 99//99 223//223 95//95
f 211//211 225//225 208//208
f 206//206 226//226 227//227
f 206//206 227//227 119//119
f 117//117 228//228 229//229
f 118//118 230//230 110//110

