mtllib material.mtl
usemtl Material-塑胶.114
v -0.02244000 -0.10804600 -0.01872500
v -0.02244000 -0.10804600 -0.01872500
v -0.02244300 -0.10803200 -0.01872600
v -0.02244300 -0.10803200 -0.01872600
v -0.02146100 -0.10988700 -0.01857800
v -0.02146100 -0.10988700 -0.01857800
v -0.02146100 -0.10988700 -0.01857800
v -0.02146100 -0.10988700 -0.01857800
v -0.02146100 -0.10988700 -0.01857800
v -0.02146100 -0.10988700 -0.01857800
v -0.02146100 -0.10988700 -0.01857800
v -0.02377300 -0.10872300 -0.01867100
v -0.02377300 -0.10872300 -0.01867100
v -0.02377400 -0.10896400 -0.01865200
v -0.02500500 -0.10982000 -0.01858400
v -0.02500500 -0.10982000 -0.01858400
v -0.02500500 -0.10982000 -0.01858400
v -0.02377300 -0.10920500 -0.01863300
v -0.02372800 -0.10944000 -0.01861400
v -0.02493600 -0.11014400 -0.01855800
v -0.02493600 -0.11014400 -0.01855800
v -0.02359200 -0.10963800 -0.01859800
v -0.02359200 -0.10963800 -0.01859800
v -0.02359200 -0.10963800 -0.01859800
v -0.02359200 -0.10963800 -0.01859800
v -0.02481100 -0.11043900 -0.01853400
v -0.02481100 -0.11043900 -0.01853400
v -0.02243900 -0.10806400 -0.01872400
v -0.02243900 -0.10806400 -0.01872400
v -0.02326100 -0.10977500 -0.01858700
v -0.02326100 -0.10977500 -0.01858700
v -0.02326100 -0.10977500 -0.01858700
v -0.02365600 -0.11117300 -0.01847500
v -0.02365600 -0.11117300 -0.01847500
v -0.02344000 -0.10973700 -0.01859000
v -0.02418500 -0.11102800 -0.01848700
v -0.02418500 -0.11102800 -0.01848700
v -0.02462400 -0.11070000 -0.01851300
v -0.02462400 -0.11070000 -0.01851300
v -0.02149400 -0.10993800 -0.01857400
v -0.02164700 -0.11025500 -0.01854900
v -0.02164700 -0.11025500 -0.01854900
v -0.02261400 -0.10951100 -0.01860800
v -0.02261400 -0.10951100 -0.01860800
v -0.02261400 -0.10951100 -0.01860800
v -0.02261400 -0.10951100 -0.01860800
v -0.02185700 -0.11053600 -0.01852600
v -0.02185700 -0.11053600 -0.01852600
v -0.02185700 -0.11053600 -0.01852600
v -0.02291600 -0.10972900 -0.01859100
v -0.02291600 -0.10972900 -0.01859100
v -0.02223200 -0.11085500 -0.01850100
v -0.02223200 -0.11085500 -0.01850100
v -0.02308600 -0.10977100 -0.01858700
v -0.02308600 -0.10977100 -0.01858700
v -0.02267500 -0.11106900 -0.01848400
v -0.02267500 -0.11106900 -0.01848400
v -0.02267500 -0.11106900 -0.01848400
v -0.02315900 -0.11117600 -0.01847500
v -0.02315900 -0.11117600 -0.01847500
v -0.02494200 -0.10690600 -0.01881600
v -0.02494200 -0.10690600 -0.01881600
v -0.02494200 -0.10690600 -0.01881600
v -0.02492300 -0.10690200 -0.01881700
v -0.02492300 -0.10690200 -0.01881700
v -0.02376300 -0.10818000 -0.01871400
v -0.02376300 -0.10818000 -0.01871400
v -0.02376300 -0.10818000 -0.01871400
v -0.02376300 -0.10818000 -0.01871400
v -0.02376300 -0.10818000 -0.01871400
v -0.02472700 -0.10687700 -0.01881800
v -0.02472700 -0.10687700 -0.01881800
v -0.02472700 -0.10687700 -0.01881800
v -0.02375000 -0.10816700 -0.01871600
v -0.02375000 -0.10816700 -0.01871600
v -0.02375000 -0.10816700 -0.01871600
v -0.02147600 -0.10990000 -0.01857700
v -0.02147600 -0.10990000 -0.01857700
v -0.02147600 -0.10990000 -0.01857700
v -0.02246000 -0.10917300 -0.01863500
v -0.02246000 -0.10917300 -0.01863500
v -0.02246000 -0.10917300 -0.01863500
v -0.02244700 -0.10908600 -0.01864200
v -0.02244700 -0.10908600 -0.01864200
v -0.02244300 -0.10899800 -0.01864900
v -0.02132900 -0.10846100 -0.01869200
v -0.02132900 -0.10846100 -0.01869200
v -0.02132200 -0.10849600 -0.01868900
v -0.02132200 -0.10849600 -0.01868900
v -0.02389500 -0.10677900 -0.01882600
v -0.02389500 -0.10677900 -0.01882600
v -0.02389500 -0.10677900 -0.01882600
v -0.02372400 -0.10815800 -0.01871600
v -0.02372400 -0.10815800 -0.01871600
v -0.02372400 -0.10815800 -0.01871600
v -0.02421300 -0.10681600 -0.01882300
v -0.02421300 -0.10681600 -0.01882300
v -0.02453100 -0.10685400 -0.01882000
v -0.02453100 -0.10685400 -0.01882000
v -0.02131900 -0.10789000 -0.01873800
v -0.02131900 -0.10789000 -0.01873800
v -0.02245000 -0.10802100 -0.01872700
v -0.02245000 -0.10802100 -0.01872700
v -0.02245000 -0.10802100 -0.01872700
v -0.02183700 -0.10653200 -0.01884600
v -0.02183700 -0.10653200 -0.01884600
v -0.02183700 -0.10653200 -0.01884600
v -0.02183700 -0.10653200 -0.01884600
v -0.02246100 -0.10801400 -0.01872800
v -0.02246100 -0.10801400 -0.01872800
v -0.02246100 -0.10801400 -0.01872800
v -0.02217600 -0.10657300 -0.01884300
v -0.02217600 -0.10657300 -0.01884300
v -0.02497800 -0.10692900 -0.01881400
v -0.02500700 -0.10698300 -0.01881000
v -0.02500700 -0.10698300 -0.01881000
v -0.02501700 -0.10706700 -0.01880300
v -0.02501700 -0.10706700 -0.01880300
v -0.02377100 -0.10822500 -0.01871100
v -0.02377100 -0.10822500 -0.01871100
v -0.02377100 -0.10822500 -0.01871100
v -0.02502300 -0.10949000 -0.01861000
v -0.02502300 -0.10949000 -0.01861000
v -0.02502300 -0.10949000 -0.01861000
v -0.02377200 -0.10847400 -0.01869100
v -0.02377200 -0.10847400 -0.01869100
v -0.02244100 -0.10854000 -0.01868600
v -0.02244100 -0.10854000 -0.01868600
v -0.02243900 -0.10808200 -0.01872200
v -0.02243900 -0.10808200 -0.01872200
v -0.02130500 -0.10851700 -0.01868800
v -0.02130500 -0.10851700 -0.01868800
v -0.02130500 -0.10851700 -0.01868800
v -0.02144400 -0.10988400 -0.01857800
v -0.02144400 -0.10988400 -0.01857800
v -0.02126500 -0.10853600 -0.01868600
v -0.02126500 -0.10853600 -0.01868600
v -0.02140000 -0.10989400 -0.01857800
v -0.02140000 -0.10989400 -0.01857800
v -0.02140000 -0.10989400 -0.01857800
v -0.02107100 -0.10859500 -0.01868100
v -0.02087600 -0.10865500 -0.01867700
v -0.02057900 -0.10778800 -0.01874600
v -0.02057900 -0.10778800 -0.01874600
v -0.02057900 -0.10778800 -0.01874600
v -0.02110500 -0.10785000 -0.01874100
v -0.02113300 -0.10644900 -0.01885300
v -0.02113300 -0.10644900 -0.01885300
v -0.02113300 -0.10644900 -0.01885300
v -0.02118900 -0.10786000 -0.01874000
v -0.02118900 -0.10786000 -0.01874000
v -0.02118900 -0.10786000 -0.01874000
v -0.02148500 -0.10649100 -0.01884900
v -0.02148500 -0.10649100 -0.01884900
v -0.02127300 -0.10786800 -0.01873900
v -0.02127300 -0.10786800 -0.01873900
v -0.02130400 -0.10787600 -0.01873900
v -0.02130400 -0.10787600 -0.01873900
v -0.02355600 -0.10673800 -0.01883000
v -0.02355600 -0.10673800 -0.01883000
v -0.02358000 -0.10814200 -0.01871800
v -0.02358000 -0.10814200 -0.01871800
v -0.02365200 -0.10815000 -0.01871700
v -0.02365200 -0.10815000 -0.01871700
v -0.01889500 -0.11064200 -0.01851800
v -0.01889500 -0.11064200 -0.01851800
v -0.01889500 -0.11064200 -0.01851800
v -0.01889500 -0.11064200 -0.01851800
v -0.01889500 -0.11064200 -0.01851800
v -0.01970400 -0.11047800 -0.01853100
v -0.01987400 -0.11042000 -0.01853600
v -0.01887700 -0.10625900 -0.01886800
v -0.01888100 -0.10750500 -0.01876800
v -0.01888100 -0.10750500 -0.01876800
v -0.01891300 -0.10620700 -0.01887200
v -0.01891300 -0.10620700 -0.01887200
v -0.01891300 -0.10620700 -0.01887200
v -0.01891800 -0.10756100 -0.01876400
v -0.01891800 -0.10756100 -0.01876400
v -0.01891800 -0.10756100 -0.01876400
v -0.02079100 -0.10640800 -0.01885600
v -0.02079100 -0.10640800 -0.01885600
v -0.02044900 -0.10636700 -0.01885900
v -0.02044900 -0.10636700 -0.01885900
v -0.02005300 -0.10772500 -0.01875100
v -0.02005300 -0.10772500 -0.01875100
v -0.02010600 -0.10632700 -0.01886200
v -0.02010600 -0.10632700 -0.01886200
v -0.01955700 -0.10766600 -0.01875500
v -0.01955700 -0.10766600 -0.01875500
v -0.01976200 -0.10628600 -0.01886600
v -0.01976200 -0.10628600 -0.01886600
v -0.01976200 -0.10628600 -0.01886600
v -0.01906200 -0.10760800 -0.01876000
v -0.01906200 -0.10760800 -0.01876000
v -0.01906200 -0.10760800 -0.01876000
v -0.01938000 -0.10624000 -0.01886900
v -0.01938000 -0.10624000 -0.01886900
v -0.01897600 -0.10759200 -0.01876100
v -0.01897600 -0.10759200 -0.01876100
v -0.01897600 -0.10759200 -0.01876100
v -0.01899800 -0.10619500 -0.01887300
v -0.01899800 -0.10619500 -0.01887300
v -0.01893500 -0.10619500 -0.01887300
v -0.01893500 -0.10619500 -0.01887300
v -0.02251600 -0.10661400 -0.01884000
v -0.02251600 -0.10661400 -0.01884000
v -0.02248100 -0.10801300 -0.01872800
v -0.02248100 -0.10801300 -0.01872800
v -0.02286600 -0.10665500 -0.01883600
v -0.02286600 -0.10665500 -0.01883600
v -0.02286600 -0.10665500 -0.01883600
v -0.02270700 -0.10804100 -0.01872600
v -0.02270700 -0.10804100 -0.01872600
v -0.02270700 -0.10804100 -0.01872600
v -0.02321600 -0.10669700 -0.01883300
v -0.02321600 -0.10669700 -0.01883300
v -0.02293200 -0.10806700 -0.01872300
v -0.02325600 -0.10810500 -0.01872000
v -0.01892200 -0.10927000 -0.01862700
v -0.01888700 -0.10932200 -0.01862300
v -0.01888700 -0.10932200 -0.01862300
v -0.01898400 -0.10923500 -0.01863000
v -0.01898400 -0.10923500 -0.01863000
v -0.01898400 -0.10923500 -0.01863000
v -0.01898400 -0.10923500 -0.01863000
v -0.01889100 -0.11063300 -0.01851900
v -0.01889100 -0.11063300 -0.01851900
v -0.02004400 -0.11036200 -0.01854000
v -0.02004400 -0.11036200 -0.01854000
v -0.02072100 -0.11012800 -0.01855900
v -0.02072100 -0.11012800 -0.01855900
v -0.02132600 -0.10791100 -0.01873600
v -0.02132600 -0.10791100 -0.01873600
v -0.02132700 -0.10792700 -0.01873500
v -0.02132700 -0.10792700 -0.01873500
v -0.02132700 -0.10819400 -0.01871300
v -0.02047900 -0.10877700 -0.01866700
v -0.02008200 -0.10889800 -0.01865700
v -0.01953400 -0.10906700 -0.01864400
v -0.01953400 -0.10906700 -0.01864400
v -0.01899500 -0.11071900 -0.01851200
v -0.01899500 -0.11071900 -0.01851200
v -0.01901600 -0.11071400 -0.01851200
v -0.01901600 -0.11071400 -0.01851200
v -0.01889800 -0.11065100 -0.01851700
v -0.01889800 -0.11065100 -0.01851700
v -0.01889800 -0.11065100 -0.01851700
v -0.01889800 -0.11065100 -0.01851700
v -0.01889800 -0.11065100 -0.01851700
v -0.01889800 -0.11065100 -0.01851700
v -0.01903800 -0.11070800 -0.01851300
v -0.01903800 -0.11070800 -0.01851300
v -0.01903800 -0.11070800 -0.01851300
v -0.01937100 -0.11059300 -0.01852200
v -0.01937100 -0.11059300 -0.01852200
v -0.01891600 -0.11069700 -0.01851300
v -0.01893600 -0.11071400 -0.01851200
v -0.01893600 -0.11071400 -0.01851200
v -0.01896500 -0.11072100 -0.01851200
v -0.01896500 -0.11072100 -0.01851200
vn -0.00030000 -0.07970000 -0.99680000
vn -0.00010000 -0.07970000 -0.99680000
vn -0.00000000 -0.07970000 -0.99680000
vn -0.00000000 -0.07960000 -0.99680000
vn 0.00030000 -0.07940000 -0.99680000
vn 0.00010000 -0.07950000 -0.99680000
vn -0.00000000 -0.07960000 -0.99680000
vn -0.00000000 -0.07970000 -0.99680000
vn 0.00010000 -0.07970000 -0.99680000
vn 0.00020000 -0.07930000 -0.99680000
vn 0.00010000 -0.07960000 -0.99680000
vn 0.00010000 -0.07970000 -0.99680000
vn -0.00000000 -0.07960000 -0.99680000
vn -0.00000000 -0.07960000 -0.99680000
vn -0.00000000 -0.07950000 -0.99680000
vn -0.00000000 -0.07960000 -0.99680000
vn 0.00010000 -0.07970000 -0.99680000
vn -0.00000000 -0.07960000 -0.99680000
vn -0.00000000 -0.07960000 -0.99680000
vn -0.00000000 -0.07960000 -0.99680000
vn -0.00010000 -0.07940000 -0.99680000
vn -0.00010000 -0.07950000 -0.99680000
vn -0.00010000 -0.07940000 -0.99680000
vn 0.00010000 -0.07960000 -0.99680000
vn -0.00000000 -0.07960000 -0.99680000
vn -0.00010000 -0.07950000 -0.99680000
vn -0.00010000 -0.07940000 -0.99680000
vn 0.00010000 -0.07950000 -0.99680000
vn -0.00000000 -0.07960000 -0.99680000
vn -0.00000000 -0.07960000 -0.99680000
vn -0.00010000 -0.07960000 -0.99680000
vn 0.00010000 -0.07960000 -0.99680000
vn -0.00000000 -0.07960000 -0.99680000
vn 0.00010000 -0.07960000 -0.99680000
vn -0.00000000 -0.07960000 -0.99680000
vn -0.00000000 -0.07960000 -0.99680000
vn 0.00010000 -0.07960000 -0.99680000
vn -0.00010000 -0.07950000 -0.99680000
vn 0.00010000 -0.07960000 -0.99680000
vn -0.00000000 -0.07960000 -0.99680000
vn -0.00000000 -0.07960000 -0.99680000
vn -0.00000000 -0.07950000 -0.99680000
vn 0.00010000 -0.07950000 -0.99680000
vn -0.00000000 -0.07960000 -0.99680000
vn -0.00000000 -0.07970000 -0.99680000
vn -0.00000000 -0.07950000 -0.99680000
vn 0.00010000 -0.07950000 -0.99680000
vn -0.00000000 -0.07950000 -0.99680000
vn -0.00000000 -0.07960000 -0.99680000
vn 0.00010000 -0.07950000 -0.99680000
vn -0.00000000 -0.07960000 -0.99680000
vn 0.00010000 -0.07960000 -0.99680000
vn -0.00000000 -0.07960000 -0.99680000
vn -0.00000000 -0.07960000 -0.99680000
vn 0.00010000 -0.07960000 -0.99680000
vn -0.00010000 -0.07960000 -0.99680000
vn -0.00000000 -0.07960000 -0.99680000
vn 0.00010000 -0.07960000 -0.99680000
vn -0.00010000 -0.07960000 -0.99680000
vn 0.00010000 -0.07960000 -0.99680000
vn 0.00020000 -0.07980000 -0.99680000
vn -0.00020000 -0.07980000 -0.99680000
vn -0.00010000 -0.07970000 -0.99680000
vn -0.00000000 -0.07960000 -0.99680000
vn -0.00010000 -0.07970000 -0.99680000
vn -0.00000000 -0.07950000 -0.99680000
vn -0.00000000 -0.07960000 -0.99680000
vn 0.00020000 -0.07940000 -0.99680000
vn -0.00010000 -0.07960000 -0.99680000
vn -0.00020000 -0.07980000 -0.99680000
vn -0.00000000 -0.07960000 -0.99680000
vn 0.00010000 -0.07960000 -0.99680000
vn -0.00010000 -0.07970000 -0.99680000
vn -0.00010000 -0.07970000 -0.99680000
vn 0.00010000 -0.07960000 -0.99680000
vn -0.00000000 -0.07960000 -0.99680000
vn 0.00010000 -0.07970000 -0.99680000
vn -0.00000000 -0.07960000 -0.99680000
vn -0.00000000 -0.07970000 -0.99680000
vn -0.00000000 -0.07970000 -0.99680000
vn 0.00010000 -0.07970000 -0.99680000
vn 0.00020000 -0.07930000 -0.99680000
vn 0.00020000 -0.07930000 -0.99680000
vn 0.00010000 -0.07950000 -0.99680000
vn 0.00010000 -0.07950000 -0.99680000
vn -0.00000000 -0.07960000 -0.99680000
vn -0.00000000 -0.07970000 -0.99680000
vn -0.00000000 -0.07970000 -0.99680000
vn -0.00000000 -0.07960000 -0.99680000
vn -0.00010000 -0.07960000 -0.99680000
vn -0.00000000 -0.07960000 -0.99680000
vn 0.00010000 -0.07960000 -0.99680000
vn 0.00010000 -0.07960000 -0.99680000
vn -0.00000000 -0.07960000 -0.99680000
vn -0.00010000 -0.07960000 -0.99680000
vn -0.00000000 -0.07960000 -0.99680000
vn 0.00010000 -0.07960000 -0.99680000
vn 0.00010000 -0.07960000 -0.99680000
vn -0.00010000 -0.07970000 -0.99680000
vn 0.00010000 -0.07960000 -0.99680000
vn -0.00000000 -0.07960000 -0.99680000
vn -0.00000000 -0.07950000 -0.99680000
vn 0.00020000 -0.07990000 -0.99680000
vn -0.00000000 -0.07960000 -0.99680000
vn -0.00020000 -0.07960000 -0.99680000
vn -0.00000000 -0.07960000 -0.99680000
vn 0.00010000 -0.07960000 -0.99680000
vn -0.00010000 -0.07960000 -0.99680000
vn -0.00010000 -0.07960000 -0.99680000
vn -0.00020000 -0.07960000 -0.99680000
vn 0.00010000 -0.07960000 -0.99680000
vn -0.00010000 -0.07960000 -0.99680000
vn 0.00010000 -0.07960000 -0.99680000
vn -0.00000000 -0.07950000 -0.99680000
vn -0.00020000 -0.07980000 -0.99680000
vn -0.00000000 -0.07960000 -0.99680000
vn -0.00000000 -0.07950000 -0.99680000
vn -0.00000000 -0.07960000 -0.99680000
vn -0.00000000 -0.07950000 -0.99680000
vn 0.00010000 -0.07970000 -0.99680000
vn -0.00000000 -0.07960000 -0.99680000
vn -0.00000000 -0.07960000 -0.99680000
vn 0.00010000 -0.07970000 -0.99680000
vn -0.00000000 -0.07950000 -0.99680000
vn -0.00000000 -0.07950000 -0.99680000
vn 0.00010000 -0.07970000 -0.99680000
vn 0.00030000 -0.07940000 -0.99680000
vn 0.00010000 -0.07950000 -0.99680000
vn 0.00030000 -0.07940000 -0.99680000
vn -0.00000000 -0.07960000 -0.99680000
vn -0.00000000 -0.07960000 -0.99680000
vn -0.00020000 -0.07960000 -0.99680000
vn 0.00010000 -0.07960000 -0.99680000
vn 0.00010000 -0.07960000 -0.99680000
vn -0.00020000 -0.07960000 -0.99680000
vn -0.00020000 -0.07960000 -0.99680000
vn -0.00000000 -0.07960000 -0.99680000
vn -0.00000000 -0.07970000 -0.99680000
vn -0.00000000 -0.07960000 -0.99680000
vn -0.00020000 -0.07960000 -0.99680000
vn -0.00000000 -0.07960000 -0.99680000
vn -0.00000000 -0.07960000 -0.99680000
vn -0.00010000 -0.07960000 -0.99680000
vn -0.00020000 -0.07960000 -0.99680000
vn 0.00010000 -0.07960000 -0.99680000
vn 0.00010000 -0.07960000 -0.99680000
vn -0.00020000 -0.07960000 -0.99680000
vn 0.00010000 -0.07960000 -0.99680000
vn -0.00000000 -0.07960000 -0.99680000
vn -0.00000000 -0.07960000 -0.99680000
vn 0.00010000 -0.07960000 -0.99680000
vn 0.00020000 -0.07950000 -0.99680000
vn -0.00000000 -0.07960000 -0.99680000
vn 0.00020000 -0.07950000 -0.99680000
vn 0.00020000 -0.07950000 -0.99680000
vn -0.00000000 -0.07960000 -0.99680000
vn 0.00010000 -0.07960000 -0.99680000
vn -0.00000000 -0.07960000 -0.99680000
vn -0.00000000 -0.07960000 -0.99680000
vn -0.00010000 -0.07960000 -0.99680000
vn -0.00010000 -0.07960000 -0.99680000
vn -0.00000000 -0.07960000 -0.99680000
vn -0.00000000 -0.07960000 -0.99680000
vn -0.00010000 -0.07960000 -0.99680000
vn 0.00020000 -0.07980000 -0.99680000
vn 0.00010000 -0.07960000 -0.99680000
vn -0.00010000 -0.07960000 -0.99680000
vn -0.00000000 -0.07960000 -0.99680000
vn -0.00000000 -0.07970000 -0.99680000
vn -0.00000000 -0.07970000 -0.99680000
vn -0.00000000 -0.07970000 -0.99680000
vn -0.00030000 -0.07960000 -0.99680000
vn -0.00020000 -0.07960000 -0.99680000
vn -0.00030000 -0.07960000 -0.99680000
vn -0.00000000 -0.07960000 -0.99680000
vn -0.00020000 -0.07960000 -0.99680000
vn -0.00030000 -0.07960000 -0.99680000
vn -0.00020000 -0.07960000 -0.99680000
vn 0.00010000 -0.07960000 -0.99680000
vn -0.00000000 -0.07960000 -0.99680000
vn -0.00020000 -0.07960000 -0.99680000
vn -0.00010000 -0.07960000 -0.99680000
vn -0.00010000 -0.07960000 -0.99680000
vn 0.00010000 -0.07960000 -0.99680000
vn 0.00010000 -0.07960000 -0.99680000
vn -0.00010000 -0.07960000 -0.99680000
vn -0.00010000 -0.07960000 -0.99680000
vn 0.00010000 -0.07960000 -0.99680000
vn 0.00010000 -0.07960000 -0.99680000
vn -0.00010000 -0.07960000 -0.99680000
vn -0.00000000 -0.07960000 -0.99680000
vn 0.00010000 -0.07960000 -0.99680000
vn -0.00010000 -0.07960000 -0.99680000
vn -0.00000000 -0.07960000 -0.99680000
vn 0.00010000 -0.07960000 -0.99680000
vn 0.00030000 -0.07950000 -0.99680000
vn 0.00030000 -0.07950000 -0.99680000
vn -0.00000000 -0.07960000 -0.99680000
vn -0.00000000 -0.07960000 -0.99680000
vn 0.00010000 -0.07960000 -0.99680000
vn 0.00030000 -0.07950000 -0.99680000
vn -0.00000000 -0.07960000 -0.99680000
vn 0.00010000 -0.07960000 -0.99680000
vn 0.00010000 -0.07960000 -0.99680000
vn -0.00000000 -0.07960000 -0.99680000
vn 0.00010000 -0.07960000 -0.99680000
vn -0.00010000 -0.07960000 -0.99680000
vn -0.00010000 -0.07960000 -0.99680000
vn 0.00030000 -0.07950000 -0.99680000
vn 0.00030000 -0.07950000 -0.99680000
vn -0.00010000 -0.07960000 -0.99680000
vn 0.00010000 -0.07960000 -0.99680000
vn 0.00010000 -0.07960000 -0.99680000
vn -0.00000000 -0.07960000 -0.99680000
vn 0.00030000 -0.07950000 -0.99680000
vn 0.00010000 -0.07960000 -0.99680000
vn -0.00000000 -0.07960000 -0.99680000
vn -0.00000000 -0.07960000 -0.99680000
vn -0.00000000 -0.07960000 -0.99680000
vn -0.00000000 -0.07950000 -0.99680000
vn 0.00050000 -0.07960000 -0.99680000
vn -0.00000000 -0.07950000 -0.99680000
vn -0.00000000 -0.07960000 -0.99680000
vn 0.00050000 -0.07960000 -0.99680000
vn -0.00010000 -0.07960000 -0.99680000
vn -0.00000000 -0.07950000 -0.99680000
vn -0.00040000 -0.07960000 -0.99680000
vn -0.00000000 -0.07960000 -0.99680000
vn -0.00000000 -0.07960000 -0.99680000
vn -0.00000000 -0.07920000 -0.99690000
vn -0.00000000 -0.07970000 -0.99680000
vn -0.00000000 -0.07960000 -0.99680000
vn -0.00000000 -0.07960000 -0.99680000
vn -0.00000000 -0.07950000 -0.99680000
vn -0.00000000 -0.07950000 -0.99680000
vn -0.00000000 -0.07960000 -0.99680000
vn -0.00000000 -0.07960000 -0.99680000
vn -0.00000000 -0.07960000 -0.99680000
vn -0.00000000 -0.07960000 -0.99680000
vn -0.00000000 -0.07960000 -0.99680000
vn -0.00010000 -0.07960000 -0.99680000
vn -0.00010000 -0.07950000 -0.99680000
vn 0.00010000 -0.07970000 -0.99680000
vn -0.00000000 -0.07950000 -0.99680000
vn 0.00010000 -0.07970000 -0.99680000
vn -0.00020000 -0.07940000 -0.99680000
vn 0.00010000 -0.07970000 -0.99680000
vn 0.00010000 -0.07980000 -0.99680000
vn -0.00010000 -0.07950000 -0.99680000
vn 0.00020000 -0.07980000 -0.99680000
vn -0.00000000 -0.07950000 -0.99680000
vn -0.00000000 -0.07950000 -0.99680000
vn 0.00020000 -0.07980000 -0.99680000
vn 0.00010000 -0.07960000 -0.99680000
vn 0.00010000 -0.07960000 -0.99680000
vn -0.00000000 -0.07970000 -0.99680000
vn -0.00020000 -0.07940000 -0.99680000
vn -0.00000000 -0.07950000 -0.99680000
vn -0.00020000 -0.07940000 -0.99680000
vn 0.00030000 -0.07980000 -0.99680000
vn -0.00000000 -0.07950000 -0.99680000
f 1//1 3//3 8//8
f 13//13 14//14 16//16
f 14//14 18//18 16//16
f 16//16 18//18 19//19
f 16//16 19//19 20//20
f 20//20 19//19 25//25
f 21//21 23//23 27//27
f 2//2 6//6 28//28
f 30//30 33//33 35//35
f 35//35 33//33 36//36
f 35//35 36//36 25//25
f 24//24 37//37 39//39
f 22//22 38//38 26//26
f 40//40 41//41 44//44
f 46//46 42//42 48//48
f 43//43 47//47 50//50
f 51//51 49//49 53//53
f 51//51 53//53 54//54
f 55//55 52//52 58//58
f 54//54 57//57 30//30
f 31//31 56//56 59//59
f 32//32 60//60 34//34
f 63//63 65//65 68//68
f 67//67 64//64 71//71
f 69//69 72//72 75//75
f 40//40 44//44 78//78
f 79//79 45//45 80//80
f 77//77 81//81 9//9
f 10//10 82//82 83//83
f 6//6 84//84 85//85
f 87//87 88//88 3//3
f 92//92 93//93 97//97
f 96//96 94//94 76//76
f 97//97 75//75 98//98
f 99//99 74//74 73//73
f 101//101 104//104 106//106
f 105//105 103//103 110//110
f 108//108 109//109 112//112
f 114//114 61//61 116//116
f 115//115 62//62 70//70
f 116//116 67//67 118//118
f 117//117 66//66 119//119
f 118//118 121//121 122//122
f 123//123 120//120 126//126
f 124//124 125//125 15//15
f 17//17 126//126 12//12
f 85//85 128//128 6//6
f 5//5 127//127 129//129
f 7//7 130//130 29//29
f 4//4 89//89 7//7
f 7//7 89//89 131//131
f 11//11 133//133 134//134
f 135//135 132//132 136//136
f 135//135 136//136 140//140
f 139//139 137//137 141//141
f 139//139 141//141 142//142
f 145//145 146//146 148//148
f 148//148 146//146 151//151
f 149//149 150//150 153//153
f 154//154 152//152 155//155
f 153//153 156//156 106//106
f 106//106 156//156 158//158
f 107//107 157//157 100//100
f 160//160 161//161 90//90
f 91//91 162//162 163//163
f 90//90 164//164 95//95
f 169//169 170//170 171//171
f 172//172 174//174 177//177
f 176//176 173//173 178//178
f 147//147 181//181 144//144
f 143//143 182//182 183//183
f 145//145 184//184 185//185
f 185//185 184//184 188//188
f 186//186 187//187 190//190
f 190//190 187//187 193//193
f 189//189 192//192 195//195
f 194//194 191//191 198//198
f 196//196 197//197 201//201
f 199//199 198//198 202//202
f 200//200 203//203 179//179
f 179//179 203//203 204//204
f 180//180 205//205 175//175
f 113//113 111//111 206//206
f 207//207 109//109 208//208
f 207//207 208//208 211//211
f 210//210 209//209 215//215
f 212//212 213//213 216//216
f 217//217 214//214 218//218
f 217//217 218//218 159//159
f 159//159 218//218 219//219
f 159//159 219//219 162//162
f 220//220 222//222 226//226
f 224//224 221//221 227//227
f 223//223 228//228 168//168
f 171//171 230//230 169//169
f 168//168 229//229 232//232
f 169//169 231//231 138//138
f 101//101 233//233 104//104
f 102//102 234//234 235//235
f 104//104 236//236 4//4
f 4//4 236//236 237//237
f 4//4 237//237 86//86
f 142//142 238//238 139//139
f 139//139 238//238 239//239
f 139//139 239//239 168//168
f 168//168 239//239 240//240
f 167//167 241//241 225//225
f 243//243 245//245 247//247
f 251//251 244//244 252//252
f 250//250 253//253 165//165
f 166//166 254//254 255//255
f 169//169 256//256 170//170
f 257//257 259//259 246//246
f 248//248 258//258 261//261
f 249//249 260//260 242//242

