mtllib material.mtl
usemtl Material-塑胶.113
v -0.02344400 -0.09400200 -0.01984700
v -0.02344400 -0.09400200 -0.01984700
v -0.02343200 -0.09249600 -0.01996700
v -0.02343200 -0.09249600 -0.01996700
v -0.02343200 -0.09249600 -0.01996700
v -0.02343200 -0.09249600 -0.01996700
v -0.02343200 -0.09249600 -0.01996700
v -0.02314300 -0.09258100 -0.01996000
v -0.02314300 -0.09258100 -0.01996000
v -0.02314300 -0.09258100 -0.01996000
v -0.02225600 -0.09082100 -0.02010100
v -0.02225600 -0.09082100 -0.02010100
v -0.02225600 -0.09082100 -0.02010100
v -0.02225600 -0.09082100 -0.02010100
v -0.02226200 -0.09081400 -0.02010100
v -0.02226200 -0.09081400 -0.02010100
v -0.02245400 -0.08941900 -0.02021300
v -0.02245400 -0.08941900 -0.02021300
v -0.02245400 -0.08941900 -0.02021300
v -0.02245400 -0.08941900 -0.02021300
v -0.02245400 -0.08941900 -0.02021300
v -0.02245400 -0.08941900 -0.02021300
v -0.02354200 -0.09399000 -0.01984800
v -0.02354200 -0.09399000 -0.01984800
v -0.02363900 -0.09397700 -0.01984900
v -0.02363900 -0.09397700 -0.01984900
v -0.02403200 -0.09387000 -0.01985700
v -0.02015800 -0.08914500 -0.02023400
v -0.02015800 -0.08914500 -0.02023400
v -0.01955400 -0.08907300 -0.02024000
v -0.01955400 -0.08907300 -0.02024000
v -0.01955400 -0.08907300 -0.02024000
v -0.01967000 -0.09049500 -0.02012700
v -0.01967000 -0.09049500 -0.02012700
v -0.02491600 -0.08973600 -0.02018700
v -0.02491600 -0.08973600 -0.02018700
v -0.02484300 -0.08970400 -0.02019000
v -0.02484300 -0.08970400 -0.02019000
v -0.02484300 -0.08970400 -0.02019000
v -0.02371100 -0.09100200 -0.02008600
v -0.02371100 -0.09100200 -0.02008600
v -0.02371100 -0.09100200 -0.02008600
v -0.02371100 -0.09100200 -0.02008600
v -0.02438200 -0.09366100 -0.01987400
v -0.02438200 -0.09366100 -0.01987400
v -0.02472500 -0.09326800 -0.01990500
v -0.02472500 -0.09326800 -0.01990500
v -0.02472500 -0.09326800 -0.01990500
v -0.02363500 -0.09227500 -0.01998400
v -0.02363500 -0.09227500 -0.01998400
v -0.02363500 -0.09227500 -0.01998400
v -0.02363500 -0.09227500 -0.01998400
v -0.02497100 -0.09237300 -0.01997700
v -0.02497100 -0.09237300 -0.01997700
v -0.02497100 -0.09237300 -0.01997700
v -0.02497100 -0.09237300 -0.01997700
v -0.02370100 -0.09209600 -0.01999900
v -0.02370100 -0.09209600 -0.01999900
v -0.02370100 -0.09209600 -0.01999900
v -0.02497100 -0.09242400 -0.01997300
v -0.02497100 -0.09242400 -0.01997300
v -0.02497100 -0.09242400 -0.01997300
v -0.02491600 -0.09278200 -0.01994400
v -0.02491600 -0.09278200 -0.01994400
v -0.01897600 -0.09041500 -0.02013300
v -0.01897600 -0.09041500 -0.02013300
v -0.01895000 -0.08900000 -0.02024600
v -0.01895000 -0.08900000 -0.02024600
v -0.01895400 -0.09041100 -0.02013300
v -0.01895400 -0.09041100 -0.02013300
v -0.01895400 -0.09041100 -0.02013300
v -0.01895400 -0.09041100 -0.02013300
v -0.02036400 -0.09057600 -0.02012000
v -0.02036400 -0.09057600 -0.02012000
v -0.02068000 -0.09061300 -0.02011700
v -0.02068000 -0.09061300 -0.02011700
v -0.02123800 -0.08927400 -0.02022400
v -0.02123800 -0.08927400 -0.02022400
v -0.02317500 -0.09400300 -0.01984600
v -0.02317500 -0.09400300 -0.01984600
v -0.02319600 -0.09400300 -0.01984600
v -0.02319600 -0.09400300 -0.01984600
v -0.02321800 -0.09400300 -0.01984600
v -0.02321800 -0.09400300 -0.01984600
v -0.02226000 -0.09184500 -0.02001900
v -0.02226000 -0.09184500 -0.02001900
v -0.02109200 -0.09179900 -0.02002200
v -0.02109200 -0.09179900 -0.02002200
v -0.02109200 -0.09179900 -0.02002200
v -0.02236300 -0.09217300 -0.01999300
v -0.02236300 -0.09217300 -0.01999300
v -0.02120700 -0.09252000 -0.01996500
v -0.02120700 -0.09252000 -0.01996500
v -0.02259100 -0.09242900 -0.01997200
v -0.02259100 -0.09242900 -0.01997200
v -0.02259100 -0.09242900 -0.01997200
v -0.02154500 -0.09316800 -0.01991300
v -0.02154500 -0.09316800 -0.01991300
v -0.02285300 -0.09255400 -0.01996200
v -0.02285300 -0.09255400 -0.01996200
v -0.02369900 -0.09098500 -0.02008700
v -0.02369900 -0.09098500 -0.02008700
v -0.02369900 -0.09098500 -0.02008700
v -0.02481400 -0.08969900 -0.02019000
v -0.02481400 -0.08969900 -0.02019000
v -0.02481400 -0.08969900 -0.02019000
v -0.02366900 -0.09097200 -0.02008800
v -0.02366900 -0.09097200 -0.02008800
v -0.02366900 -0.09097200 -0.02008800
v -0.02423600 -0.08963200 -0.02019600
v -0.02423600 -0.08963200 -0.02019600
v -0.02364800 -0.09096700 -0.02008900
v -0.02364800 -0.09096700 -0.02008900
v -0.02365800 -0.08956300 -0.02020100
v -0.02365800 -0.08956300 -0.02020100
v -0.02363200 -0.09096500 -0.02008900
v -0.02363200 -0.09096500 -0.02008900
v -0.02371800 -0.09128800 -0.02006300
v -0.02371800 -0.09128800 -0.02006300
v -0.02371900 -0.09159700 -0.02003900
v -0.02371900 -0.09159700 -0.02003900
v -0.02372000 -0.09190700 -0.02001400
v -0.02372000 -0.09190700 -0.02001400
v -0.01883700 -0.08903500 -0.02024300
v -0.01883700 -0.08903500 -0.02024300
v -0.01883700 -0.08903500 -0.02024300
v -0.01882400 -0.08905600 -0.02024100
v -0.01882800 -0.09032600 -0.02014000
v -0.01882800 -0.09032600 -0.02014000
v -0.02099700 -0.09065000 -0.02011400
v -0.02099700 -0.09065000 -0.02011400
v -0.02105600 -0.09066300 -0.02011300
v -0.02105600 -0.09066300 -0.02011300
v -0.02107400 -0.09067700 -0.02011200
v -0.02107400 -0.09067700 -0.02011200
v -0.02107400 -0.09067700 -0.02011200
v -0.02108300 -0.09069900 -0.02011000
v -0.02108300 -0.09069900 -0.02011000
v -0.02108300 -0.09069900 -0.02011000
v -0.02225000 -0.09084100 -0.02009900
v -0.02225000 -0.09084100 -0.02009900
v -0.02225000 -0.09084100 -0.02009900
v -0.02108700 -0.09075000 -0.02010600
v -0.02108700 -0.09075000 -0.02010600
v -0.02108700 -0.09075000 -0.02010600
v -0.02108700 -0.09075000 -0.02010600
v -0.02496300 -0.08979300 -0.02018300
v -0.02496300 -0.08979300 -0.02018300
v -0.02371700 -0.09104700 -0.02008300
v -0.02371700 -0.09104700 -0.02008300
v -0.02371800 -0.09116700 -0.02007300
v -0.02371800 -0.09116700 -0.02007300
v -0.01887700 -0.08900700 -0.02024500
v -0.01887700 -0.08900700 -0.02024500
v -0.01887200 -0.09037900 -0.02013600
v -0.02215200 -0.09371100 -0.01987000
v -0.02292000 -0.09398100 -0.01984800
v -0.02314300 -0.09258100 -0.01996000
v -0.02314300 -0.09258100 -0.01996000
v -0.02304700 -0.09399600 -0.01984700
v -0.02304700 -0.09399600 -0.01984700
v -0.02227500 -0.09081000 -0.02010100
v -0.02227500 -0.09081000 -0.02010100
v -0.02231500 -0.09081200 -0.02010100
v -0.02231500 -0.09081200 -0.02010100
v -0.02231500 -0.09081200 -0.02010100
v -0.02305600 -0.08949100 -0.02020700
v -0.02305600 -0.08949100 -0.02020700
v -0.02296500 -0.09088800 -0.02009500
v -0.02361600 -0.09096300 -0.02008900
v -0.02225100 -0.09158500 -0.02004000
v -0.02225100 -0.09158500 -0.02004000
v -0.02225100 -0.09135200 -0.02005800
v -0.02225100 -0.09135200 -0.02005800
v -0.02108700 -0.09127500 -0.02006400
v -0.02108700 -0.09127500 -0.02006400
v -0.02225000 -0.09109700 -0.02007800
v -0.02225000 -0.09109700 -0.02007800
v -0.02224900 -0.09086900 -0.02009700
v -0.02224900 -0.09086900 -0.02009700
vn -0.00000000 -0.07960000 -0.99680000
vn -0.00010000 -0.07960000 -0.99680000
vn -0.00000000 -0.07960000 -0.99680000
vn 0.00010000 -0.07960000 -0.99680000
vn -0.00010000 -0.07960000 -0.99680000
vn -0.00030000 -0.07950000 -0.99680000
vn 0.00010000 -0.07970000 -0.99680000
vn -0.00010000 -0.07960000 -0.99680000
vn -0.00000000 -0.07950000 -0.99680000
vn -0.00000000 -0.07960000 -0.99680000
vn -0.00010000 -0.07970000 -0.99680000
vn -0.00000000 -0.07960000 -0.99680000
vn -0.00000000 -0.07940000 -0.99680000
vn -0.00010000 -0.07950000 -0.99680000
vn 0.00040000 -0.07950000 -0.99680000
vn -0.00010000 -0.07970000 -0.99680000
vn -0.00010000 -0.07960000 -0.99680000
vn -0.00000000 -0.07960000 -0.99680000
vn 0.00040000 -0.07950000 -0.99680000
vn 0.00030000 -0.07960000 -0.99680000
vn -0.00010000 -0.07970000 -0.99680000
vn 0.00020000 -0.07960000 -0.99680000
vn -0.00010000 -0.07960000 -0.99680000
vn -0.00030000 -0.07950000 -0.99680000
vn -0.00030000 -0.07950000 -0.99680000
vn -0.00000000 -0.07960000 -0.99680000
vn -0.00000000 -0.07960000 -0.99680000
vn -0.00000000 -0.07960000 -0.99680000
vn 0.00010000 -0.07960000 -0.99680000
vn -0.00010000 -0.07960000 -0.99680000
vn 0.00010000 -0.07960000 -0.99680000
vn -0.00000000 -0.07960000 -0.99680000
vn -0.00000000 -0.07960000 -0.99680000
vn 0.00010000 -0.07960000 -0.99680000
vn 0.00010000 -0.07960000 -0.99680000
vn 0.00010000 -0.07950000 -0.99680000
vn 0.00010000 -0.07950000 -0.99680000
vn -0.00010000 -0.07980000 -0.99680000
vn 0.00010000 -0.07960000 -0.99680000
vn 0.00010000 -0.07950000 -0.99680000
vn -0.00000000 -0.07960000 -0.99680000
vn 0.00010000 -0.07960000 -0.99680000
vn -0.00010000 -0.07980000 -0.99680000
vn 0.00010000 -0.07970000 -0.99680000
vn -0.00000000 -0.07960000 -0.99680000
vn 0.00010000 -0.07970000 -0.99680000
vn -0.00000000 -0.07950000 -0.99680000
vn 0.00010000 -0.07960000 -0.99680000
vn 0.00010000 -0.07980000 -0.99680000
vn -0.00000000 -0.07960000 -0.99680000
vn -0.00000000 -0.07950000 -0.99680000
vn 0.00010000 -0.07960000 -0.99680000
vn -0.00000000 -0.07960000 -0.99680000
vn -0.00000000 -0.07950000 -0.99680000
vn 0.00010000 -0.07970000 -0.99680000
vn 0.00010000 -0.07990000 -0.99680000
vn 0.00010000 -0.07990000 -0.99680000
vn 0.00010000 -0.07980000 -0.99680000
vn -0.00000000 -0.07960000 -0.99680000
vn 0.00010000 -0.07980000 -0.99680000
vn 0.00010000 -0.07990000 -0.99680000
vn -0.00000000 -0.07960000 -0.99680000
vn -0.00000000 -0.07950000 -0.99680000
vn -0.00000000 -0.07960000 -0.99680000
vn -0.00000000 -0.07960000 -0.99680000
vn -0.00010000 -0.07960000 -0.99680000
vn -0.00010000 -0.07960000 -0.99680000
vn 0.00050000 -0.07960000 -0.99680000
vn 0.00050000 -0.07960000 -0.99680000
vn -0.00010000 -0.07960000 -0.99680000
vn -0.00000000 -0.07960000 -0.99680000
vn 0.00010000 -0.07960000 -0.99680000
vn -0.00000000 -0.07960000 -0.99680000
vn 0.00010000 -0.07960000 -0.99680000
vn -0.00000000 -0.07960000 -0.99680000
vn 0.00010000 -0.07960000 -0.99680000
vn 0.00020000 -0.07960000 -0.99680000
vn -0.00000000 -0.07960000 -0.99680000
vn -0.00010000 -0.07960000 -0.99680000
vn -0.00000000 -0.07950000 -0.99680000
vn -0.00000000 -0.07950000 -0.99680000
vn -0.00010000 -0.07960000 -0.99680000
vn -0.00000000 -0.07960000 -0.99680000
vn -0.00010000 -0.07960000 -0.99680000
vn -0.00000000 -0.07960000 -0.99680000
vn -0.00000000 -0.07940000 -0.99680000
vn 0.00010000 -0.07940000 -0.99680000
vn -0.00000000 -0.07940000 -0.99680000
vn -0.00000000 -0.07960000 -0.99680000
vn -0.00000000 -0.07950000 -0.99680000
vn -0.00000000 -0.07960000 -0.99680000
vn -0.00000000 -0.07950000 -0.99680000
vn -0.00000000 -0.07960000 -0.99680000
vn -0.00010000 -0.07970000 -0.99680000
vn -0.00000000 -0.07960000 -0.99680000
vn -0.00000000 -0.07950000 -0.99680000
vn -0.00000000 -0.07960000 -0.99680000
vn -0.00010000 -0.07970000 -0.99680000
vn -0.00010000 -0.07970000 -0.99680000
vn -0.00000000 -0.07960000 -0.99680000
vn -0.00010000 -0.07980000 -0.99680000
vn -0.00030000 -0.07980000 -0.99680000
vn 0.00010000 -0.07950000 -0.99680000
vn -0.00030000 -0.07980000 -0.99680000
vn 0.00010000 -0.07950000 -0.99680000
vn -0.00000000 -0.07960000 -0.99680000
vn -0.00000000 -0.07960000 -0.99680000
vn 0.00020000 -0.07960000 -0.99680000
vn -0.00030000 -0.07980000 -0.99680000
vn 0.00020000 -0.07960000 -0.99680000
vn -0.00000000 -0.07960000 -0.99680000
vn -0.00000000 -0.07960000 -0.99680000
vn 0.00020000 -0.07960000 -0.99680000
vn 0.00020000 -0.07960000 -0.99680000
vn -0.00000000 -0.07960000 -0.99680000
vn -0.00000000 -0.07960000 -0.99680000
vn 0.00020000 -0.07960000 -0.99680000
vn -0.00000000 -0.07960000 -0.99680000
vn 0.00010000 -0.07970000 -0.99680000
vn -0.00000000 -0.07950000 -0.99680000
vn 0.00010000 -0.07970000 -0.99680000
vn -0.00000000 -0.07960000 -0.99680000
vn -0.00000000 -0.07950000 -0.99680000
vn -0.00000000 -0.07960000 -0.99680000
vn -0.00010000 -0.07960000 -0.99680000
vn 0.00010000 -0.07960000 -0.99680000
vn -0.00010000 -0.07960000 -0.99680000
vn -0.00010000 -0.07960000 -0.99680000
vn -0.00000000 -0.07960000 -0.99680000
vn -0.00000000 -0.07960000 -0.99680000
vn 0.00020000 -0.07960000 -0.99680000
vn 0.00020000 -0.07960000 -0.99680000
vn -0.00000000 -0.07960000 -0.99680000
vn -0.00000000 -0.07960000 -0.99680000
vn 0.00020000 -0.07960000 -0.99680000
vn -0.00000000 -0.07940000 -0.99680000
vn -0.00000000 -0.07920000 -0.99690000
vn -0.00000000 -0.07940000 -0.99680000
vn -0.00000000 -0.07950000 -0.99680000
vn -0.00000000 -0.07950000 -0.99680000
vn -0.00000000 -0.07990000 -0.99680000
vn -0.00000000 -0.07920000 -0.99690000
vn -0.00000000 -0.07990000 -0.99680000
vn -0.00000000 -0.07970000 -0.99680000
vn -0.00000000 -0.07960000 -0.99680000
vn -0.00000000 -0.07950000 -0.99680000
vn -0.00000000 -0.07960000 -0.99680000
vn 0.00010000 -0.07950000 -0.99680000
vn 0.00010000 -0.07970000 -0.99680000
vn -0.00000000 -0.07960000 -0.99680000
vn -0.00000000 -0.07960000 -0.99680000
vn 0.00010000 -0.07970000 -0.99680000
vn 0.00050000 -0.07960000 -0.99680000
vn 0.00010000 -0.07960000 -0.99680000
vn -0.00000000 -0.07960000 -0.99680000
vn -0.00000000 -0.07960000 -0.99680000
vn -0.00000000 -0.07960000 -0.99680000
vn -0.00000000 -0.07960000 -0.99680000
vn -0.00010000 -0.07960000 -0.99680000
vn -0.00010000 -0.07960000 -0.99680000
vn -0.00000000 -0.07960000 -0.99680000
vn 0.00040000 -0.07950000 -0.99680000
vn 0.00030000 -0.07960000 -0.99680000
vn -0.00000000 -0.07960000 -0.99680000
vn -0.00010000 -0.07960000 -0.99680000
vn 0.00030000 -0.07960000 -0.99680000
vn -0.00000000 -0.07960000 -0.99680000
vn -0.00010000 -0.07960000 -0.99680000
vn -0.00000000 -0.07960000 -0.99680000
vn -0.00000000 -0.07960000 -0.99680000
vn 0.00010000 -0.07940000 -0.99680000
vn -0.00000000 -0.07940000 -0.99680000
vn 0.00010000 -0.07940000 -0.99680000
vn -0.00000000 -0.07960000 -0.99680000
vn -0.00000000 -0.07970000 -0.99680000
vn -0.00000000 -0.07960000 -0.99680000
vn -0.00000000 -0.07970000 -0.99680000
vn -0.00000000 -0.07960000 -0.99680000
vn -0.00000000 -0.07960000 -0.99680000
vn -0.00000000 -0.07990000 -0.99680000
f 1//1 3//3 10//10
f 11//11 16//16 21//21
f 2//2 23//23 5//5
f 6//6 24//24 25//25
f 3//3 26//26 27//27
f 29//29 31//31 34//34
f 35//35 39//39 42//42
f 27//27 45//45 3//3
f 7//7 44//44 46//46
f 4//4 48//48 52//52
f 56//56 57//57 61//61
f 60//60 58//58 49//49
f 62//62 50//50 64//64
f 63//63 51//51 47//47
f 33//33 32//32 65//65
f 66//66 30//30 67//67
f 66//66 67//67 70//70
f 33//33 73//73 28//28
f 29//29 74//74 76//76
f 28//28 75//75 78//78
f 80//80 81//81 9//9
f 8//8 82//82 84//84
f 10//10 83//83 1//1
f 85//85 89//89 91//91
f 91//91 89//89 93//93
f 90//90 92//92 96//96
f 95//95 93//93 97//97
f 94//94 98//98 99//99
f 43//43 38//38 101//101
f 103//103 37//37 105//105
f 102//102 104//104 109//109
f 107//107 106//106 111//111
f 108//108 110//110 113//113
f 112//112 111//111 115//115
f 113//113 114//114 117//117
f 119//119 121//121 55//55
f 54//54 120//120 123//123
f 53//53 122//122 59//59
f 125//125 127//127 128//128
f 75//75 130//130 78//78
f 77//77 131//131 132//132
f 78//78 133//133 18//18
f 22//22 132//132 135//135
f 18//18 134//134 12//12
f 13//13 136//136 138//138
f 14//14 137//137 142//142
f 140//140 139//139 146//146
f 36//36 40//40 148//148
f 147//147 41//41 150//150
f 147//147 150//150 53//53
f 55//55 149//149 152//152
f 53//53 151//151 118//118
f 68//68 153//153 69//69
f 72//72 154//154 126//126
f 71//71 124//124 155//155
f 155//155 124//124 129//129
f 97//97 156//156 100//100
f 100//100 156//156 157//157
f 100//100 157//157 158//158
f 158//158 157//157 161//161
f 159//159 160//160 79//79
f 15//15 162//162 19//19
f 20//20 163//163 166//166
f 17//17 165//165 168//168
f 167//167 164//164 169//169
f 167//167 169//169 115//115
f 115//115 169//169 170//170
f 115//115 170//170 116//116
f 86//86 172//172 88//88
f 87//87 171//171 173//173
f 89//89 174//174 176//176
f 176//176 174//174 178//178
f 175//175 177//177 144//144
f 145//145 178//178 179//179
f 143//143 180//180 141//141

