mtllib material.mtl
usemtl Material-塑胶__3_.066
v -0.02379100 -0.09514600 -0.01975500
v -0.02379100 -0.09514600 -0.01975500
v -0.02379100 -0.09514600 -0.01975500
v -0.02379100 -0.09514600 -0.01975500
v -0.02377100 -0.09535100 -0.01973900
v -0.02385200 -0.09569100 -0.01971200
v -0.02385200 -0.09569100 -0.01971200
v -0.02385200 -0.09569100 -0.01971200
v -0.02385200 -0.09569100 -0.01971200
v -0.02385200 -0.09569100 -0.01971200
v -0.02385200 -0.09569100 -0.01971200
v -0.02385200 -0.09569100 -0.01971200
v -0.02385200 -0.09569100 -0.01971200
v -0.02530400 -0.09562000 -0.01971700
v -0.02530400 -0.09562000 -0.01971700
v -0.02530400 -0.09562000 -0.01971700
v -0.02530300 -0.09540300 -0.01973500
v -0.02530000 -0.09539300 -0.01973500
v -0.02530000 -0.09539300 -0.01973500
v -0.02530000 -0.09539300 -0.01973500
v -0.02527200 -0.09575200 -0.01970700
v -0.02527200 -0.09575200 -0.01970700
v -0.02414000 -0.09601800 -0.01968600
v -0.02442000 -0.09614800 -0.01967500
v -0.02442000 -0.09614800 -0.01967500
v -0.02472800 -0.09617000 -0.01967300
v -0.02472800 -0.09617000 -0.01967300
v -0.02501100 -0.09608700 -0.01968000
v -0.02501100 -0.09608700 -0.01968000
v -0.02521800 -0.09587800 -0.01969700
v -0.02521800 -0.09587800 -0.01969700
v -0.02529800 -0.09538400 -0.01973600
v -0.02529800 -0.09538400 -0.01973600
v -0.02522500 -0.09514500 -0.01975500
v -0.02522500 -0.09514500 -0.01975500
v -0.02508200 -0.09493900 -0.01977200
v -0.02508200 -0.09493900 -0.01977200
v -0.02409400 -0.09475100 -0.01978700
v -0.02386700 -0.09496000 -0.01977000
v -0.02386700 -0.09496000 -0.01977000
v -0.02441100 -0.09467100 -0.01979300
v -0.02441100 -0.09467100 -0.01979300
v -0.02479100 -0.09473700 -0.01978800
v -0.02479100 -0.09473700 -0.01978800
vn -0.00000000 -0.07970000 -0.99680000
vn 0.00010000 -0.07960000 -0.99680000
vn -0.00000000 -0.07960000 -0.99680000
vn -0.00000000 -0.07950000 -0.99680000
vn 0.00010000 -0.07960000 -0.99680000
vn 0.00010000 -0.07960000 -0.99680000
vn -0.00000000 -0.07970000 -0.99680000
vn -0.00000000 -0.07960000 -0.99680000
vn -0.00000000 -0.07950000 -0.99680000
vn -0.00000000 -0.07990000 -0.99680000
vn -0.00000000 -0.07980000 -0.99680000
vn -0.00010000 -0.07940000 -0.99680000
vn -0.00000000 -0.07930000 -0.99690000
vn -0.00000000 -0.07980000 -0.99680000
vn -0.00000000 -0.07950000 -0.99680000
vn -0.00000000 -0.07990000 -0.99680000
vn -0.00000000 -0.07980000 -0.99680000
vn -0.00000000 -0.07980000 -0.99680000
vn -0.00000000 -0.07940000 -0.99680000
vn -0.00000000 -0.07950000 -0.99680000
vn -0.00000000 -0.07990000 -0.99680000
vn -0.00000000 -0.07930000 -0.99690000
vn 0.00010000 -0.07960000 -0.99680000
vn -0.00000000 -0.07960000 -0.99680000
vn 0.00010000 -0.07960000 -0.99680000
vn -0.00000000 -0.07960000 -0.99680000
vn -0.00010000 -0.07940000 -0.99680000
vn -0.00000000 -0.07960000 -0.99680000
vn -0.00010000 -0.07940000 -0.99680000
vn -0.00000000 -0.07930000 -0.99690000
vn -0.00000000 -0.07960000 -0.99680000
vn -0.00000000 -0.07940000 -0.99680000
vn -0.00000000 -0.07970000 -0.99680000
vn -0.00000000 -0.07960000 -0.99680000
vn -0.00000000 -0.07970000 -0.99680000
vn -0.00000000 -0.07950000 -0.99680000
vn -0.00000000 -0.07960000 -0.99680000
vn -0.00000000 -0.07970000 -0.99680000
vn -0.00000000 -0.07970000 -0.99680000
vn -0.00000000 -0.07960000 -0.99680000
vn -0.00000000 -0.07960000 -0.99680000
vn -0.00000000 -0.07970000 -0.99680000
vn -0.00000000 -0.07950000 -0.99680000
vn -0.00000000 -0.07960000 -0.99680000
f 2//2 5//5 6//6
f 14//14 17//17 18//18
f 10//10 21//21 16//16
f 23//23 25//25 6//6
f 8//8 24//24 26//26
f 27//27 29//29 12//12
f 8//8 28//28 31//31
f 13//13 30//30 22//22
f 15//15 20//20 9//9
f 11//11 19//19 32//32
f 7//7 33//33 1//1
f 1//1 33//33 35//35
f 3//3 34//34 37//37
f 38//38 39//39 42//42
f 41//41 40//40 3//3
f 41//41 3//3 44//44
f 43//43 4//4 36//36

