mtllib material.mtl
usemtl Material-塑胶.116
v -0.02227700 -0.09803900 -0.01952400
v -0.02227700 -0.09803900 -0.01952400
v -0.02227700 -0.09803900 -0.01952400
v -0.02227700 -0.09803900 -0.01952400
v -0.02228300 -0.09803300 -0.01952500
v -0.02228300 -0.09803300 -0.01952500
v -0.02276700 -0.09667500 -0.01963300
v -0.02276700 -0.09667500 -0.01963300
v -0.02276700 -0.09667500 -0.01963300
v -0.02276700 -0.09667500 -0.01963300
v -0.02229400 -0.09803000 -0.01952500
v -0.02229400 -0.09803000 -0.01952500
v -0.02485300 -0.09692400 -0.01961300
v -0.02485300 -0.09692400 -0.01961300
v -0.02372100 -0.09820400 -0.01951100
v -0.02372100 -0.09820400 -0.01951100
v -0.02372100 -0.09820400 -0.01951100
v -0.02372100 -0.09820400 -0.01951100
v -0.02486900 -0.09692600 -0.01961300
v -0.02486900 -0.09692600 -0.01961300
v -0.02486900 -0.09692600 -0.01961300
v -0.02373400 -0.09822100 -0.01951000
v -0.02364300 -0.09953000 -0.01940500
v -0.02364300 -0.09953000 -0.01940500
v -0.02342500 -0.09973300 -0.01938900
v -0.02342500 -0.09973300 -0.01938900
v -0.02342500 -0.09973300 -0.01938900
v -0.02458400 -0.10071000 -0.01931100
v -0.02458400 -0.10071000 -0.01931100
v -0.01891000 -0.09761100 -0.01955800
v -0.01891000 -0.09761100 -0.01955800
v -0.01891000 -0.09761100 -0.01955800
v -0.01891000 -0.09761100 -0.01955800
v -0.01896900 -0.09763100 -0.01955700
v -0.01896900 -0.09763100 -0.01955700
v -0.01897500 -0.09622200 -0.01966900
v -0.01897500 -0.09622200 -0.01966900
v -0.01932100 -0.09626400 -0.01966600
v -0.01932100 -0.09626400 -0.01966600
v -0.01932100 -0.09626400 -0.01966600
v -0.01932100 -0.09626400 -0.01966600
v -0.01907500 -0.09764400 -0.01955600
v -0.01907500 -0.09764400 -0.01955600
v -0.01918100 -0.09765600 -0.01955500
v -0.01918100 -0.09765600 -0.01955500
v -0.01918100 -0.09765600 -0.01955500
v -0.01966700 -0.09630500 -0.01966300
v -0.01966700 -0.09630500 -0.01966300
v -0.01954100 -0.09769700 -0.01955200
v -0.01954100 -0.09769700 -0.01955200
v -0.01954100 -0.09769700 -0.01955200
v -0.02001300 -0.09634600 -0.01965900
v -0.02001300 -0.09634600 -0.01965900
v -0.02001300 -0.09634600 -0.01965900
v -0.01990100 -0.09773800 -0.01954800
v -0.01990100 -0.09773800 -0.01954800
v -0.02035900 -0.09638800 -0.01965600
v -0.02035900 -0.09638800 -0.01965600
v -0.02028500 -0.09778300 -0.01954500
v -0.02028500 -0.09778300 -0.01954500
v -0.02028500 -0.09778300 -0.01954500
v -0.02070200 -0.09642900 -0.01965300
v -0.02070200 -0.09642900 -0.01965300
v -0.02066900 -0.09782900 -0.01954100
v -0.02066900 -0.09782900 -0.01954100
v -0.02066900 -0.09782900 -0.01954100
v -0.02104600 -0.09646900 -0.01964900
v -0.02104600 -0.09646900 -0.01964900
v -0.02104600 -0.09646900 -0.01964900
v -0.02085100 -0.09785000 -0.01953900
v -0.02085100 -0.09785000 -0.01953900
v -0.02085100 -0.09785000 -0.01953900
v -0.02139200 -0.09651100 -0.01964600
v -0.02139200 -0.09651100 -0.01964600
v -0.02139200 -0.09651100 -0.01964600
v -0.02103300 -0.09787000 -0.01953800
v -0.02103300 -0.09787000 -0.01953800
v -0.02173800 -0.09655200 -0.01964300
v -0.02173800 -0.09655200 -0.01964300
v -0.02173800 -0.09655200 -0.01964300
v -0.02108200 -0.09788200 -0.01953700
v -0.02108200 -0.09788200 -0.01953700
v -0.02108200 -0.09788200 -0.01953700
v -0.02208200 -0.09659300 -0.01964000
v -0.02208200 -0.09659300 -0.01964000
v -0.02109800 -0.09789600 -0.01953600
v -0.02109800 -0.09789600 -0.01953600
v -0.02109800 -0.09789600 -0.01953600
v -0.02109800 -0.09789600 -0.01953600
v -0.02242600 -0.09663400 -0.01963600
v -0.02242600 -0.09663400 -0.01963600
v -0.02228300 -0.09907200 -0.01944200
v -0.02228300 -0.09907200 -0.01944200
v -0.02228300 -0.09907200 -0.01944200
v -0.02123200 -0.09973600 -0.01938900
v -0.02123200 -0.09973600 -0.01938900
v -0.02239300 -0.09941000 -0.01941500
v -0.02239300 -0.09941000 -0.01941500
v -0.02139100 -0.10011100 -0.01935900
v -0.02263800 -0.09966800 -0.01939400
v -0.02263800 -0.09966800 -0.01939400
v -0.02175600 -0.10060400 -0.01931900
v -0.02175600 -0.10060400 -0.01931900
v -0.02286600 -0.09977200 -0.01938600
v -0.02286600 -0.09977200 -0.01938600
v -0.02225200 -0.10096400 -0.01929100
v -0.02311500 -0.09980600 -0.01938300
v -0.02311500 -0.09980600 -0.01938300
v -0.02291800 -0.10118900 -0.01927300
v -0.02291800 -0.10118900 -0.01927300
v -0.02327500 -0.09979100 -0.01938400
v -0.02327500 -0.09979100 -0.01938400
v -0.02327500 -0.09979100 -0.01938400
v -0.02362000 -0.10120200 -0.01927200
v -0.02362000 -0.10120200 -0.01927200
v -0.02414800 -0.10104800 -0.01928400
v -0.01884600 -0.09628300 -0.01966400
v -0.01885000 -0.09754500 -0.01956400
v -0.01885000 -0.09754500 -0.01956400
v -0.01887800 -0.09624000 -0.01966800
v -0.01887800 -0.09624000 -0.01966800
v -0.01887800 -0.09624000 -0.01966800
v -0.01890600 -0.09622300 -0.01966900
v -0.01890600 -0.09622300 -0.01966900
v -0.02110800 -0.09792400 -0.01953300
v -0.02110800 -0.09792400 -0.01953300
v -0.02110800 -0.09792400 -0.01953300
v -0.02227300 -0.09805500 -0.01952300
v -0.02227300 -0.09805500 -0.01952300
v -0.02227300 -0.09805500 -0.01952300
v -0.02111000 -0.09795800 -0.01953100
v -0.02111000 -0.09795800 -0.01953100
v -0.02111000 -0.09795800 -0.01953100
v -0.02227100 -0.09808800 -0.01952000
v -0.02227100 -0.09808800 -0.01952000
v -0.02477000 -0.10044600 -0.01933200
v -0.02489800 -0.10015000 -0.01935600
v -0.02370100 -0.09940900 -0.01941500
v -0.02370100 -0.09940900 -0.01941500
v -0.02497200 -0.09980600 -0.01938300
v -0.02497200 -0.09980600 -0.01938300
v -0.02374000 -0.09918400 -0.01943300
v -0.02374000 -0.09918400 -0.01943300
v -0.02499200 -0.09945600 -0.01941100
v -0.02374000 -0.09825900 -0.01950700
v -0.02498500 -0.09706900 -0.01960200
v -0.02497100 -0.09699400 -0.01960800
v -0.02497100 -0.09699400 -0.01960800
v -0.02493700 -0.09695300 -0.01961100
v -0.02233200 -0.09803200 -0.01952500
v -0.02233200 -0.09803200 -0.01952500
v -0.02269600 -0.09807500 -0.01952100
v -0.02269600 -0.09807500 -0.01952100
v -0.02310900 -0.09671500 -0.01963000
v -0.02310900 -0.09671500 -0.01963000
v -0.02310900 -0.09671500 -0.01963000
v -0.02306000 -0.09811700 -0.01951800
v -0.02306000 -0.09811700 -0.01951800
v -0.02345700 -0.09675700 -0.01962700
v -0.02345700 -0.09675700 -0.01962700
v -0.02345700 -0.09675700 -0.01962700
v -0.02336800 -0.09815300 -0.01951500
v -0.02336800 -0.09815300 -0.01951500
v -0.02380500 -0.09679800 -0.01962300
v -0.02380500 -0.09679800 -0.01962300
v -0.02380500 -0.09679800 -0.01962300
v -0.02367600 -0.09818900 -0.01951200
v -0.02367600 -0.09818900 -0.01951200
v -0.02367600 -0.09818900 -0.01951200
v -0.02411900 -0.09683600 -0.01962000
v -0.02411900 -0.09683600 -0.01962000
v -0.02411900 -0.09683600 -0.01962000
v -0.02369300 -0.09819200 -0.01951200
v -0.02369300 -0.09819200 -0.01951200
v -0.02443300 -0.09687400 -0.01961700
v -0.02464300 -0.09689900 -0.01961500
v -0.02464300 -0.09689900 -0.01961500
v -0.02227200 -0.09832000 -0.01950200
v -0.02227200 -0.09832000 -0.01950200
v -0.02227200 -0.09832000 -0.01950200
v -0.02111100 -0.09852700 -0.01948500
v -0.02111100 -0.09852700 -0.01948500
v -0.02227300 -0.09857700 -0.01948100
v -0.02227300 -0.09857700 -0.01948100
v -0.02112000 -0.09909500 -0.01944000
v -0.02112000 -0.09909500 -0.01944000
v -0.02112000 -0.09909500 -0.01944000
v -0.02227200 -0.09881200 -0.01946200
v -0.02227200 -0.09881200 -0.01946200
v -0.02112800 -0.09921800 -0.01943000
v -0.02112800 -0.09921800 -0.01943000
v -0.02114200 -0.09933900 -0.01942000
v -0.02114200 -0.09933900 -0.01942000
vn -0.00000000 -0.07970000 -0.99680000
vn -0.00000000 -0.07960000 -0.99680000
vn -0.00000000 -0.07930000 -0.99680000
vn 0.00010000 -0.07950000 -0.99680000
vn -0.00000000 -0.07960000 -0.99680000
vn 0.00010000 -0.07960000 -0.99680000
vn -0.00000000 -0.07960000 -0.99680000
vn -0.00010000 -0.07960000 -0.99680000
vn 0.00010000 -0.07950000 -0.99680000
vn -0.00040000 -0.07980000 -0.99680000
vn -0.00000000 -0.07960000 -0.99680000
vn -0.00040000 -0.07980000 -0.99680000
vn -0.00020000 -0.07970000 -0.99680000
vn -0.00010000 -0.07960000 -0.99680000
vn -0.00000000 -0.07960000 -0.99680000
vn -0.00010000 -0.07960000 -0.99680000
vn 0.00020000 -0.07950000 -0.99680000
vn -0.00020000 -0.07970000 -0.99680000
vn -0.00000000 -0.07960000 -0.99680000
vn 0.00010000 -0.07960000 -0.99680000
vn -0.00010000 -0.07960000 -0.99680000
vn -0.00000000 -0.07960000 -0.99680000
vn -0.00000000 -0.07960000 -0.99680000
vn 0.00010000 -0.07970000 -0.99680000
vn -0.00010000 -0.07960000 -0.99680000
vn -0.00000000 -0.07960000 -0.99680000
vn 0.00010000 -0.07970000 -0.99680000
vn -0.00000000 -0.07960000 -0.99680000
vn 0.00010000 -0.07970000 -0.99680000
vn -0.00030000 -0.07960000 -0.99680000
vn -0.00010000 -0.07960000 -0.99680000
vn 0.00010000 -0.07960000 -0.99680000
vn -0.00020000 -0.07960000 -0.99680000
vn 0.00040000 -0.07950000 -0.99680000
vn -0.00020000 -0.07960000 -0.99680000
vn -0.00020000 -0.07960000 -0.99680000
vn -0.00030000 -0.07960000 -0.99680000
vn -0.00000000 -0.07960000 -0.99680000
vn -0.00020000 -0.07960000 -0.99680000
vn 0.00040000 -0.07950000 -0.99680000
vn -0.00040000 -0.07970000 -0.99680000
vn 0.00040000 -0.07950000 -0.99680000
vn -0.00040000 -0.07970000 -0.99680000
vn -0.00040000 -0.07970000 -0.99680000
vn -0.00000000 -0.07960000 -0.99680000
vn 0.00010000 -0.07960000 -0.99680000
vn -0.00000000 -0.07960000 -0.99680000
vn 0.00010000 -0.07960000 -0.99680000
vn 0.00010000 -0.07960000 -0.99680000
vn -0.00010000 -0.07960000 -0.99680000
vn -0.00000000 -0.07960000 -0.99680000
vn -0.00010000 -0.07960000 -0.99680000
vn 0.00010000 -0.07960000 -0.99680000
vn -0.00000000 -0.07960000 -0.99680000
vn -0.00010000 -0.07960000 -0.99680000
vn 0.00010000 -0.07960000 -0.99680000
vn -0.00010000 -0.07960000 -0.99680000
vn 0.00010000 -0.07960000 -0.99680000
vn 0.00010000 -0.07960000 -0.99680000
vn -0.00000000 -0.07960000 -0.99680000
vn -0.00010000 -0.07960000 -0.99680000
vn -0.00010000 -0.07960000 -0.99680000
vn -0.00000000 -0.07960000 -0.99680000
vn -0.00000000 -0.07960000 -0.99680000
vn 0.00020000 -0.07960000 -0.99680000
vn -0.00010000 -0.07960000 -0.99680000
vn -0.00010000 -0.07960000 -0.99680000
vn 0.00010000 -0.07960000 -0.99680000
vn 0.00020000 -0.07960000 -0.99680000
vn 0.00010000 -0.07960000 -0.99680000
vn 0.00020000 -0.07960000 -0.99680000
vn -0.00000000 -0.07960000 -0.99680000
vn -0.00010000 -0.07960000 -0.99680000
vn -0.00000000 -0.07960000 -0.99680000
vn 0.00010000 -0.07960000 -0.99680000
vn -0.00010000 -0.07960000 -0.99680000
vn -0.00000000 -0.07960000 -0.99680000
vn 0.00010000 -0.07950000 -0.99680000
vn -0.00010000 -0.07960000 -0.99680000
vn -0.00000000 -0.07960000 -0.99680000
vn 0.00010000 -0.07950000 -0.99680000
vn -0.00000000 -0.07960000 -0.99680000
vn -0.00010000 -0.07970000 -0.99680000
vn 0.00010000 -0.07950000 -0.99680000
vn -0.00010000 -0.07970000 -0.99680000
vn -0.00010000 -0.07970000 -0.99680000
vn -0.00000000 -0.07960000 -0.99680000
vn -0.00000000 -0.07970000 -0.99680000
vn 0.00010000 -0.07950000 -0.99680000
vn -0.00010000 -0.07970000 -0.99680000
vn 0.00010000 -0.07950000 -0.99680000
vn -0.00000000 -0.07950000 -0.99680000
vn 0.00010000 -0.07950000 -0.99680000
vn -0.00000000 -0.07960000 -0.99680000
vn -0.00000000 -0.07960000 -0.99680000
vn 0.00010000 -0.07950000 -0.99680000
vn 0.00010000 -0.07950000 -0.99680000
vn -0.00000000 -0.07960000 -0.99680000
vn -0.00000000 -0.07960000 -0.99680000
vn 0.00010000 -0.07960000 -0.99680000
vn -0.00000000 -0.07960000 -0.99680000
vn -0.00000000 -0.07960000 -0.99680000
vn 0.00010000 -0.07960000 -0.99680000
vn 0.00010000 -0.07960000 -0.99680000
vn -0.00000000 -0.07960000 -0.99680000
vn -0.00000000 -0.07960000 -0.99680000
vn -0.00000000 -0.07960000 -0.99680000
vn 0.00020000 -0.07960000 -0.99680000
vn 0.00020000 -0.07960000 -0.99680000
vn -0.00000000 -0.07960000 -0.99680000
vn -0.00010000 -0.07960000 -0.99680000
vn -0.00000000 -0.07960000 -0.99680000
vn 0.00020000 -0.07960000 -0.99680000
vn -0.00000000 -0.07960000 -0.99680000
vn -0.00010000 -0.07960000 -0.99680000
vn -0.00000000 -0.07960000 -0.99680000
vn 0.00020000 -0.07960000 -0.99680000
vn 0.00020000 -0.07960000 -0.99680000
vn -0.00010000 -0.07960000 -0.99680000
vn 0.00020000 -0.07960000 -0.99680000
vn -0.00010000 -0.07960000 -0.99680000
vn 0.00010000 -0.07960000 -0.99680000
vn 0.00010000 -0.07960000 -0.99680000
vn -0.00030000 -0.07960000 -0.99680000
vn -0.00000000 -0.07960000 -0.99680000
vn -0.00000000 -0.07970000 -0.99680000
vn -0.00000000 -0.07930000 -0.99680000
vn -0.00000000 -0.07960000 -0.99680000
vn -0.00000000 -0.07930000 -0.99680000
vn -0.00000000 -0.07940000 -0.99680000
vn -0.00000000 -0.07940000 -0.99680000
vn -0.00000000 -0.07970000 -0.99680000
vn -0.00000000 -0.07960000 -0.99680000
vn -0.00000000 -0.07940000 -0.99680000
vn -0.00000000 -0.07960000 -0.99680000
vn -0.00000000 -0.07960000 -0.99680000
vn -0.00000000 -0.07960000 -0.99680000
vn -0.00000000 -0.07960000 -0.99680000
vn -0.00010000 -0.07940000 -0.99680000
vn -0.00010000 -0.07940000 -0.99680000
vn -0.00000000 -0.07960000 -0.99680000
vn -0.00010000 -0.07940000 -0.99680000
vn -0.00000000 -0.07960000 -0.99680000
vn -0.00000000 -0.07960000 -0.99680000
vn -0.00000000 -0.07960000 -0.99680000
vn -0.00000000 -0.07960000 -0.99680000
vn 0.00010000 -0.07960000 -0.99680000
vn -0.00000000 -0.07960000 -0.99680000
vn 0.00010000 -0.07960000 -0.99680000
vn -0.00040000 -0.07980000 -0.99680000
vn -0.00000000 -0.07960000 -0.99680000
vn -0.00010000 -0.07960000 -0.99680000
vn -0.00000000 -0.07960000 -0.99680000
vn -0.00000000 -0.07960000 -0.99680000
vn 0.00010000 -0.07960000 -0.99680000
vn -0.00010000 -0.07960000 -0.99680000
vn -0.00000000 -0.07960000 -0.99680000
vn 0.00010000 -0.07960000 -0.99680000
vn 0.00010000 -0.07960000 -0.99680000
vn -0.00000000 -0.07960000 -0.99680000
vn -0.00010000 -0.07960000 -0.99680000
vn -0.00010000 -0.07960000 -0.99680000
vn -0.00000000 -0.07960000 -0.99680000
vn 0.00010000 -0.07960000 -0.99680000
vn -0.00010000 -0.07960000 -0.99680000
vn -0.00000000 -0.07960000 -0.99680000
vn -0.00000000 -0.07960000 -0.99680000
vn -0.00010000 -0.07960000 -0.99680000
vn 0.00010000 -0.07960000 -0.99680000
vn 0.00010000 -0.07960000 -0.99680000
vn 0.00020000 -0.07950000 -0.99680000
vn -0.00010000 -0.07960000 -0.99680000
vn -0.00010000 -0.07960000 -0.99680000
vn 0.00020000 -0.07950000 -0.99680000
vn 0.00020000 -0.07950000 -0.99680000
vn -0.00020000 -0.07970000 -0.99680000
vn 0.00020000 -0.07950000 -0.99680000
vn -0.00000000 -0.07960000 -0.99680000
vn -0.00000000 -0.07970000 -0.99680000
vn -0.00000000 -0.07950000 -0.99680000
vn -0.00000000 -0.07970000 -0.99680000
vn -0.00000000 -0.07950000 -0.99680000
vn -0.00000000 -0.07950000 -0.99680000
vn -0.00010000 -0.07980000 -0.99680000
vn -0.00010000 -0.07980000 -0.99680000
vn -0.00000000 -0.07950000 -0.99680000
vn -0.00000000 -0.07960000 -0.99680000
vn -0.00000000 -0.07960000 -0.99680000
vn -0.00010000 -0.07980000 -0.99680000
vn -0.00000000 -0.07960000 -0.99680000
vn -0.00000000 -0.07950000 -0.99680000
vn -0.00000000 -0.07960000 -0.99680000
vn -0.00000000 -0.07950000 -0.99680000
f 4//4 6//6 7//7
f 7//7 5//5 11//11
f 14//14 16//16 21//21
f 19//19 15//15 22//22
f 24//24 27//27 29//29
f 33//33 35//35 36//36
f 36//36 35//35 39//39
f 34//34 42//42 40//40
f 41//41 43//43 44//44
f 38//38 45//45 47//47
f 48//48 46//46 49//49
f 47//47 51//51 54//54
f 52//52 50//50 55//55
f 53//53 56//56 58//58
f 58//58 56//56 59//59
f 57//57 61//61 62//62
f 63//63 60//60 64//64
f 62//62 66//66 67//67
f 69//69 65//65 71//71
f 68//68 70//70 75//75
f 74//74 72//72 77//77
f 73//73 76//76 79//79
f 80//80 77//77 82//82
f 78//78 81//81 84//84
f 85//85 83//83 86//86
f 85//85 86//86 90//90
f 91//91 89//89 9//9
f 93//93 96//96 97//97
f 98//98 95//95 99//99
f 98//98 99//99 101//101
f 101//101 99//99 102//102
f 100//100 103//103 104//104
f 105//105 102//102 106//106
f 105//105 106//106 107//107
f 107//107 106//106 110//110
f 108//108 109//109 113//113
f 112//112 110//110 114//114
f 111//111 115//115 25//25
f 26//26 114//114 116//116
f 26//26 116//116 28//28
f 117//117 118//118 120//120
f 121//121 119//119 31//31
f 122//122 32//32 123//123
f 124//124 30//30 37//37
f 7//7 87//87 2//2
f 1//1 88//88 126//126
f 3//3 127//127 129//129
f 128//128 125//125 133//133
f 130//130 131//131 134//134
f 28//28 136//136 23//23
f 23//23 136//136 137//137
f 23//23 137//137 138//138
f 138//138 137//137 141//141
f 139//139 140//140 142//142
f 143//143 141//141 144//144
f 143//143 144//144 145//145
f 145//145 144//144 146//146
f 145//145 146//146 22//22
f 22//22 146//146 148//148
f 22//22 148//148 19//19
f 20//20 147//147 149//149
f 12//12 150//150 10//10
f 7//7 151//151 153//153
f 8//8 152//152 156//156
f 154//154 153//153 157//157
f 155//155 158//158 159//159
f 160//160 157//157 163//163
f 161//161 162//162 165//165
f 166//166 163//163 167//167
f 164//164 169//169 170//170
f 172//172 168//168 173//173
f 171//171 174//174 175//175
f 175//175 174//174 17//17
f 175//175 17//17 177//177
f 176//176 18//18 13//13
f 135//135 133//133 178//178
f 179//179 132//132 181//181
f 180//180 182//182 183//183
f 183//183 182//182 186//186
f 184//184 185//185 189//189
f 188//188 187//187 190//190
f 188//188 190//190 94//94
f 92//92 191//191 193//193
f 94//94 192//192 95//95

