mtllib material.mtl
usemtl Material-塑胶.095
v -0.00888900 -0.01215300 0.02525000
v -0.00880600 -0.01270600 0.01475000
v -0.00880600 -0.01270600 0.02525000
v -0.00860200 -0.01322800 0.01475000
v -0.00860200 -0.01322800 0.02525000
v -0.00828700 -0.01369100 0.01475000
v -0.00828700 -0.01369100 0.02525000
v -0.00787700 -0.01407200 0.01475000
v -0.00787700 -0.01407200 0.02525000
v -0.00739200 -0.01435200 0.01475000
v -0.00739200 -0.01435200 0.02525000
v -0.00685800 -0.01451800 0.01475000
v -0.00685800 -0.01451800 0.02525000
v -0.00629900 -0.01456000 0.01475000
v -0.00629900 -0.01456000 0.02525000
v -0.00574600 -0.01447700 0.01475000
v -0.00574600 -0.01447700 0.02525000
v -0.00522400 -0.01427300 0.01475000
v -0.00522400 -0.01427300 0.02525000
v -0.00476200 -0.01395800 0.01475000
v -0.00476200 -0.01395800 0.02525000
v -0.00438000 -0.01354800 0.01475000
v -0.00438000 -0.01354800 0.02525000
v -0.00410000 -0.01306400 0.01475000
v -0.00410000 -0.01306400 0.02525000
v -0.00393400 -0.01252900 0.01475000
v -0.00393400 -0.01252900 0.02525000
v -0.00389200 -0.01197100 0.01475000
v -0.00389200 -0.01197100 0.02525000
v -0.00397500 -0.01141700 0.01475000
v -0.00397500 -0.01141700 0.02525000
v -0.00417900 -0.01089600 0.01475000
v -0.00417900 -0.01089600 0.02525000
v -0.00449400 -0.01043300 0.01475000
v -0.00449400 -0.01043300 0.02525000
v -0.00490400 -0.01005200 0.01475000
v -0.00490400 -0.01005200 0.02525000
v -0.00538800 -0.00977100 0.01475000
v -0.00538800 -0.00977100 0.02525000
v -0.00592300 -0.00960600 0.01475000
v -0.00592300 -0.00960600 0.02525000
v -0.00648100 -0.00956300 0.01475000
v -0.00648100 -0.00956300 0.02525000
v -0.00703500 -0.00964600 0.01475000
v -0.00703500 -0.00964600 0.02525000
v -0.00755600 -0.00985000 0.01475000
v -0.00755600 -0.00985000 0.02525000
v -0.00801900 -0.01016500 0.01475000
v -0.00801900 -0.01016500 0.02525000
v -0.00840000 -0.01057500 0.01475000
v -0.00840000 -0.01057500 0.02525000
v -0.00868100 -0.01106000 0.01475000
v -0.00868100 -0.01106000 0.02525000
v -0.00884600 -0.01159400 0.01475000
v -0.00884600 -0.01159400 0.02525000
v -0.00888900 -0.01215300 0.01475000
v -0.00439200 -0.01198900 0.01425000
v -0.00442600 -0.01243500 0.01425000
v -0.00639000 -0.01206200 0.01425000
v -0.00487300 -0.01075900 0.01425000
v -0.00462100 -0.01112900 0.01425000
v -0.00445800 -0.01154600 0.01425000
v -0.00601700 -0.01009700 0.01425000
v -0.00558900 -0.01022900 0.01425000
v -0.00520100 -0.01045400 0.01425000
v -0.00732300 -0.01029300 0.01425000
v -0.00690600 -0.01012900 0.01425000
v -0.00646300 -0.01006300 0.01425000
v -0.00822300 -0.01126000 0.01425000
v -0.00799800 -0.01087200 0.01425000
v -0.00769300 -0.01054400 0.01425000
v -0.00832300 -0.01257700 0.01425000
v -0.00838900 -0.01213400 0.01425000
v -0.00835500 -0.01168800 0.01425000
v -0.00758000 -0.01367000 0.01425000
v -0.00790800 -0.01336500 0.01425000
v -0.00816000 -0.01299400 0.01425000
v -0.00631800 -0.01406000 0.01425000
v -0.00676400 -0.01402600 0.01425000
v -0.00719200 -0.01389400 0.01425000
v -0.00508700 -0.01357900 0.01425000
v -0.00545800 -0.01383100 0.01425000
v -0.00587500 -0.01399400 0.01425000
v -0.00455800 -0.01286300 0.01425000
v -0.00478200 -0.01325100 0.01425000
v -0.00439200 -0.01198900 0.02575000
v -0.00445800 -0.01154600 0.02575000
v -0.00639000 -0.01206200 0.02575000
v -0.00478200 -0.01325100 0.02575000
v -0.00455800 -0.01286300 0.02575000
v -0.00442600 -0.01243500 0.02575000
v -0.00587500 -0.01399400 0.02575000
v -0.00545800 -0.01383100 0.02575000
v -0.00508700 -0.01357900 0.02575000
v -0.00719200 -0.01389400 0.02575000
v -0.00676400 -0.01402600 0.02575000
v -0.00631800 -0.01406000 0.02575000
v -0.00816000 -0.01299400 0.02575000
v -0.00790800 -0.01336500 0.02575000
v -0.00758000 -0.01367000 0.02575000
v -0.00835500 -0.01168800 0.02575000
v -0.00838900 -0.01213400 0.02575000
v -0.00832300 -0.01257700 0.02575000
v -0.00769300 -0.01054400 0.02575000
v -0.00799800 -0.01087200 0.02575000
v -0.00822300 -0.01126000 0.02575000
v -0.00646300 -0.01006300 0.02575000
v -0.00690600 -0.01012900 0.02575000
v -0.00732300 -0.01029300 0.02575000
v -0.00520100 -0.01045400 0.02575000
v -0.00558900 -0.01022900 0.02575000
v -0.00601700 -0.01009700 0.02575000
v -0.00462100 -0.01112900 0.02575000
v -0.00487300 -0.01075900 0.02575000
v -0.00888900 -0.01215300 0.01475000
v -0.00832300 -0.01257700 0.01425000
v -0.00880600 -0.01270600 0.01475000
v -0.00816000 -0.01299400 0.01425000
v -0.00860200 -0.01322800 0.01475000
v -0.00790800 -0.01336500 0.01425000
v -0.00828700 -0.01369100 0.01475000
v -0.00758000 -0.01367000 0.01425000
v -0.00787700 -0.01407200 0.01475000
v -0.00719200 -0.01389400 0.01425000
v -0.00739200 -0.01435200 0.01475000
v -0.00676400 -0.01402600 0.01425000
v -0.00685800 -0.01451800 0.01475000
v -0.00631800 -0.01406000 0.01425000
v -0.00629900 -0.01456000 0.01475000
v -0.00587500 -0.01399400 0.01425000
v -0.00574600 -0.01447700 0.01475000
v -0.00545800 -0.01383100 0.01425000
v -0.00522400 -0.01427300 0.01475000
v -0.00508700 -0.01357900 0.01425000
v -0.00476200 -0.01395800 0.01475000
v -0.00478200 -0.01325100 0.01425000
v -0.00438000 -0.01354800 0.01475000
v -0.00455800 -0.01286300 0.01425000
v -0.00410000 -0.01306400 0.01475000
v -0.00442600 -0.01243500 0.01425000
v -0.00393400 -0.01252900 0.01475000
v -0.00439200 -0.01198900 0.01425000
v -0.00389200 -0.01197100 0.01475000
v -0.00445800 -0.01154600 0.01425000
v -0.00397500 -0.01141700 0.01475000
v -0.00462100 -0.01112900 0.01425000
v -0.00417900 -0.01089600 0.01475000
v -0.00487300 -0.01075900 0.01425000
v -0.00449400 -0.01043300 0.01475000
v -0.00520100 -0.01045400 0.01425000
v -0.00490400 -0.01005200 0.01475000
v -0.00558900 -0.01022900 0.01425000
v -0.00538800 -0.00977100 0.01475000
v -0.00601700 -0.01009700 0.01425000
v -0.00592300 -0.00960600 0.01475000
v -0.00646300 -0.01006300 0.01425000
v -0.00648100 -0.00956300 0.01475000
v -0.00690600 -0.01012900 0.01425000
v -0.00703500 -0.00964600 0.01475000
v -0.00732300 -0.01029300 0.01425000
v -0.00755600 -0.00985000 0.01475000
v -0.00769300 -0.01054400 0.01425000
v -0.00801900 -0.01016500 0.01475000
v -0.00799800 -0.01087200 0.01425000
v -0.00840000 -0.01057500 0.01475000
v -0.00822300 -0.01126000 0.01425000
v -0.00868100 -0.01106000 0.01475000
v -0.00835500 -0.01168800 0.01425000
v -0.00884600 -0.01159400 0.01475000
v -0.00838900 -0.01213400 0.01425000
v -0.00389200 -0.01197100 0.02525000
v -0.00442600 -0.01243500 0.02575000
v -0.00393400 -0.01252900 0.02525000
v -0.00455800 -0.01286300 0.02575000
v -0.00410000 -0.01306400 0.02525000
v -0.00478200 -0.01325100 0.02575000
v -0.00438000 -0.01354800 0.02525000
v -0.00508700 -0.01357900 0.02575000
v -0.00476200 -0.01395800 0.02525000
v -0.00545800 -0.01383100 0.02575000
v -0.00522400 -0.01427300 0.02525000
v -0.00587500 -0.01399400 0.02575000
v -0.00574600 -0.01447700 0.02525000
v -0.00631800 -0.01406000 0.02575000
v -0.00629900 -0.01456000 0.02525000
v -0.00676400 -0.01402600 0.02575000
v -0.00685800 -0.01451800 0.02525000
v -0.00719200 -0.01389400 0.02575000
v -0.00739200 -0.01435200 0.02525000
v -0.00758000 -0.01367000 0.02575000
v -0.00787700 -0.01407200 0.02525000
v -0.00790800 -0.01336500 0.02575000
v -0.00828700 -0.01369100 0.02525000
v -0.00816000 -0.01299400 0.02575000
v -0.00860200 -0.01322800 0.02525000
v -0.00832300 -0.01257700 0.02575000
v -0.00880600 -0.01270600 0.02525000
v -0.00838900 -0.01213400 0.02575000
v -0.00888900 -0.01215300 0.02525000
v -0.00835500 -0.01168800 0.02575000
v -0.00884600 -0.01159400 0.02525000
v -0.00822300 -0.01126000 0.02575000
v -0.00868100 -0.01106000 0.02525000
v -0.00799800 -0.01087200 0.02575000
v -0.00840000 -0.01057500 0.02525000
v -0.00769300 -0.01054400 0.02575000
v -0.00801900 -0.01016500 0.02525000
v -0.00732300 -0.01029300 0.02575000
v -0.00755600 -0.00985000 0.02525000
v -0.00690600 -0.01012900 0.02575000
v -0.00703500 -0.00964600 0.02525000
v -0.00646300 -0.01006300 0.02575000
v -0.00648100 -0.00956300 0.02525000
v -0.00601700 -0.01009700 0.02575000
v -0.00592300 -0.00960600 0.02525000
v -0.00558900 -0.01022900 0.02575000
v -0.00538800 -0.00977100 0.02525000
v -0.00520100 -0.01045400 0.02575000
v -0.00490400 -0.01005200 0.02525000
v -0.00487300 -0.01075900 0.02575000
v -0.00449400 -0.01043300 0.02525000
v -0.00462100 -0.01112900 0.02575000
v -0.00417900 -0.01089600 0.02525000
v -0.00445800 -0.01154600 0.02575000
v -0.00397500 -0.01141700 0.02525000
v -0.00439200 -0.01198900 0.02575000
vn -0.99730000 -0.07380000 -0.00000000
vn -0.97520000 -0.22140000 -0.00000000
vn -0.95580000 -0.29390000 -0.00000000
vn -0.90140000 -0.43290000 -0.00000000
vn -0.86650000 -0.49920000 -0.00000000
vn -0.78250000 -0.62260000 -0.00000000
vn -0.73370000 -0.67950000 -0.00000000
vn -0.62440000 -0.78110000 -0.00000000
vn -0.56410000 -0.82570000 -0.00000000
vn -0.43490000 -0.90050000 -0.00000000
vn -0.36620000 -0.93050000 -0.00000000
vn -0.22360000 -0.97470000 -0.00000000
vn -0.14990000 -0.98870000 -0.00000000
vn -0.00110000 -1.00000000 -0.00000000
vn 0.07380000 -0.99730000 -0.00000000
vn 0.22150000 -0.97520000 -0.00000000
vn 0.29390000 -0.95580000 -0.00000000
vn 0.43290000 -0.90140000 -0.00000000
vn 0.49920000 -0.86650000 -0.00000000
vn 0.62260000 -0.78250000 -0.00000000
vn 0.67950000 -0.73370000 -0.00000000
vn 0.78110000 -0.62440000 -0.00000000
vn 0.82570000 -0.56410000 -0.00000000
vn 0.90050000 -0.43490000 -0.00000000
vn 0.93050000 -0.36620000 -0.00000000
vn 0.97470000 -0.22360000 -0.00000000
vn 0.98870000 -0.14990000 -0.00000000
vn 1.00000000 -0.00110000 -0.00000000
vn 0.99730000 0.07380000 -0.00000000
vn 0.97520000 0.22140000 -0.00000000
vn 0.95580000 0.29390000 -0.00000000
vn 0.90140000 0.43290000 -0.00000000
vn 0.86650000 0.49920000 -0.00000000
vn 0.78250000 0.62260000 -0.00000000
vn 0.73370000 0.67950000 -0.00000000
vn 0.62440000 0.78110000 -0.00000000
vn 0.56410000 0.82570000 -0.00000000
vn 0.43490000 0.90050000 -0.00000000
vn 0.36610000 0.93060000 -0.00000000
vn 0.22360000 0.97470000 -0.00000000
vn 0.14990000 0.98870000 -0.00000000
vn 0.00110000 1.00000000 -0.00000000
vn -0.07380000 0.99730000 -0.00000000
vn -0.22140000 0.97520000 -0.00000000
vn -0.29390000 0.95580000 -0.00000000
vn -0.43290000 0.90140000 -0.00000000
vn -0.49920000 0.86650000 -0.00000000
vn -0.62260000 0.78250000 -0.00000000
vn -0.67950000 0.73370000 -0.00000000
vn -0.78110000 0.62430000 -0.00000000
vn -0.82570000 0.56410000 -0.00000000
vn -0.90050000 0.43490000 -0.00000000
vn -0.93050000 0.36620000 -0.00000000
vn -0.97470000 0.22360000 -0.00000000
vn -0.98870000 0.14990000 -0.00000000
vn -1.00000000 0.00110000 -0.00000000
vn -0.00000000 -0.00000000 -1.00000000
vn -0.00000000 -0.00000000 -1.00000000
vn -0.00000000 -0.00000000 -1.00000000
vn -0.00000000 -0.00000000 -1.00000000
vn -0.00000000 -0.00000000 -1.00000000
vn -0.00000000 -0.00000000 -1.00000000
vn -0.00000000 -0.00000000 -1.00000000
vn -0.00000000 -0.00000000 -1.00000000
vn -0.00000000 -0.00000000 -1.00000000
vn -0.00000000 -0.00000000 -1.00000000
vn -0.00000000 -0.00000000 -1.00000000
vn -0.00000000 -0.00000000 -1.00000000
vn -0.00000000 -0.00000000 -1.00000000
vn -0.00000000 -0.00000000 -1.00000000
vn -0.00000000 -0.00000000 -1.00000000
vn -0.00000000 -0.00000000 -1.00000000
vn -0.00000000 -0.00000000 -1.00000000
vn -0.00000000 -0.00000000 -1.00000000
vn -0.00000000 -0.00000000 -1.00000000
vn -0.00000000 -0.00000000 -1.00000000
vn -0.00000000 -0.00000000 -1.00000000
vn -0.00000000 -0.00000000 -1.00000000
vn -0.00000000 -0.00000000 -1.00000000
vn -0.00000000 -0.00000000 -1.00000000
vn -0.00000000 -0.00000000 -1.00000000
vn -0.00000000 -0.00000000 -1.00000000
vn -0.00000000 -0.00000000 -1.00000000
vn -0.00000000 -0.00000000 -1.00000000
vn -0.00000000 -0.00000000 -1.00000000
vn -0.00000000 -0.00000000 1.00000000
vn -0.00000000 -0.00000000 1.00000000
vn -0.00000000 -0.00000000 1.00000000
vn -0.00000000 -0.00000000 1.00000000
vn -0.00000000 -0.00000000 1.00000000
vn -0.00000000 -0.00000000 1.00000000
vn -0.00000000 -0.00000000 1.00000000
vn -0.00000000 -0.00000000 1.00000000
vn -0.00000000 -0.00000000 1.00000000
vn -0.00000000 -0.00000000 1.00000000
vn -0.00000000 -0.00000000 1.00000000
vn -0.00000000 -0.00000000 1.00000000
vn -0.00000000 -0.00000000 1.00000000
vn -0.00000000 -0.00000000 1.00000000
vn -0.00000000 -0.00000000 1.00000000
vn -0.00000000 -0.00000000 1.00000000
vn -0.00000000 -0.00000000 1.00000000
vn -0.00000000 -0.00000000 1.00000000
vn -0.00000000 -0.00000000 1.00000000
vn -0.00000000 -0.00000000 1.00000000
vn -0.00000000 -0.00000000 1.00000000
vn -0.00000000 -0.00000000 1.00000000
vn -0.00000000 -0.00000000 1.00000000
vn -0.00000000 -0.00000000 1.00000000
vn -0.00000000 -0.00000000 1.00000000
vn -0.00000000 -0.00000000 1.00000000
vn -0.00000000 -0.00000000 1.00000000
vn -0.00000000 -0.00000000 1.00000000
vn -0.00000000 -0.00000000 1.00000000
vn -0.70540000 -0.05230000 -0.70690000
vn -0.68980000 -0.15660000 -0.70690000
vn -0.67610000 -0.20790000 -0.70690000
vn -0.63770000 -0.30620000 -0.70690000
vn -0.61290000 -0.35320000 -0.70690000
vn -0.55350000 -0.44040000 -0.70690000
vn -0.51900000 -0.48070000 -0.70690000
vn -0.44170000 -0.55250000 -0.70690000
vn -0.39900000 -0.58410000 -0.70690000
vn -0.30760000 -0.63700000 -0.70690000
vn -0.25900000 -0.65820000 -0.70690000
vn -0.15820000 -0.68940000 -0.70690000
vn -0.10600000 -0.69940000 -0.70690000
vn -0.00080000 -0.70740000 -0.70690000
vn 0.05230000 -0.70540000 -0.70690000
vn 0.15660000 -0.68980000 -0.70690000
vn 0.20790000 -0.67610000 -0.70690000
vn 0.30620000 -0.63770000 -0.70690000
vn 0.35310000 -0.61290000 -0.70690000
vn 0.44040000 -0.55350000 -0.70690000
vn 0.48070000 -0.51900000 -0.70690000
vn 0.55250000 -0.44170000 -0.70690000
vn 0.58410000 -0.39900000 -0.70690000
vn 0.63700000 -0.30760000 -0.70690000
vn 0.65820000 -0.25900000 -0.70690000
vn 0.68940000 -0.15820000 -0.70690000
vn 0.69940000 -0.10600000 -0.70690000
vn 0.70740000 -0.00080000 -0.70690000
vn 0.70540000 0.05230000 -0.70680000
vn 0.68980000 0.15660000 -0.70690000
vn 0.67610000 0.20790000 -0.70690000
vn 0.63770000 0.30620000 -0.70690000
vn 0.61290000 0.35310000 -0.70680000
vn 0.55350000 0.44040000 -0.70680000
vn 0.51900000 0.48070000 -0.70680000
vn 0.44170000 0.55250000 -0.70690000
vn 0.39900000 0.58410000 -0.70690000
vn 0.30760000 0.63700000 -0.70690000
vn 0.25900000 0.65820000 -0.70690000
vn 0.15820000 0.68940000 -0.70690000
vn 0.10600000 0.69940000 -0.70690000
vn 0.00080000 0.70740000 -0.70690000
vn -0.05230000 0.70540000 -0.70690000
vn -0.15660000 0.68980000 -0.70690000
vn -0.20790000 0.67610000 -0.70690000
vn -0.30620000 0.63770000 -0.70690000
vn -0.35310000 0.61290000 -0.70690000
vn -0.44040000 0.55350000 -0.70680000
vn -0.48070000 0.51900000 -0.70680000
vn -0.55250000 0.44170000 -0.70680000
vn -0.58410000 0.39900000 -0.70690000
vn -0.63700000 0.30760000 -0.70690000
vn -0.65820000 0.25910000 -0.70690000
vn -0.68940000 0.15820000 -0.70690000
vn -0.69940000 0.10600000 -0.70690000
vn -0.70740000 0.00080000 -0.70690000
vn 0.70740000 -0.00080000 0.70690000
vn 0.69940000 -0.10600000 0.70690000
vn 0.68940000 -0.15820000 0.70690000
vn 0.65820000 -0.25900000 0.70690000
vn 0.63700000 -0.30760000 0.70690000
vn 0.58410000 -0.39900000 0.70690000
vn 0.55250000 -0.44170000 0.70690000
vn 0.48070000 -0.51900000 0.70690000
vn 0.44040000 -0.55350000 0.70690000
vn 0.35310000 -0.61290000 0.70690000
vn 0.30620000 -0.63770000 0.70690000
vn 0.20790000 -0.67610000 0.70690000
vn 0.15660000 -0.68980000 0.70690000
vn 0.05230000 -0.70540000 0.70690000
vn -0.00080000 -0.70740000 0.70690000
vn -0.10600000 -0.69940000 0.70690000
vn -0.15820000 -0.68940000 0.70690000
vn -0.25900000 -0.65820000 0.70690000
vn -0.30770000 -0.63690000 0.70690000
vn -0.39900000 -0.58410000 0.70690000
vn -0.44170000 -0.55250000 0.70690000
vn -0.51900000 -0.48070000 0.70690000
vn -0.55350000 -0.44040000 0.70690000
vn -0.61290000 -0.35320000 0.70690000
vn -0.63760000 -0.30620000 0.70690000
vn -0.67610000 -0.20790000 0.70690000
vn -0.68980000 -0.15660000 0.70690000
vn -0.70540000 -0.05230000 0.70690000
vn -0.70740000 0.00080000 0.70690000
vn -0.69940000 0.10600000 0.70690000
vn -0.68940000 0.15820000 0.70690000
vn -0.65820000 0.25900000 0.70690000
vn -0.63700000 0.30760000 0.70690000
vn -0.58410000 0.39900000 0.70690000
vn -0.55250000 0.44170000 0.70690000
vn -0.48060000 0.51900000 0.70680000
vn -0.44040000 0.55360000 0.70680000
vn -0.35310000 0.61290000 0.70690000
vn -0.30620000 0.63770000 0.70690000
vn -0.20790000 0.67610000 0.70690000
vn -0.15660000 0.68980000 0.70690000
vn -0.05220000 0.70540000 0.70690000
vn 0.00080000 0.70740000 0.70690000
vn 0.10610000 0.69940000 0.70690000
vn 0.15810000 0.68950000 0.70690000
vn 0.25900000 0.65820000 0.70690000
vn 0.30760000 0.63700000 0.70690000
vn 0.39900000 0.58410000 0.70690000
vn 0.44170000 0.55250000 0.70690000
vn 0.51900000 0.48070000 0.70680000
vn 0.55360000 0.44040000 0.70680000
vn 0.61290000 0.35310000 0.70680000
vn 0.63770000 0.30620000 0.70690000
vn 0.67610000 0.20790000 0.70690000
vn 0.68980000 0.15660000 0.70690000
vn 0.70540000 0.05220000 0.70690000
f 1//1 2//2 3//3
f 3//3 2//2 4//4
f 3//3 4//4 5//5
f 5//5 4//4 6//6
f 5//5 6//6 7//7
f 7//7 6//6 8//8
f 7//7 8//8 9//9
f 9//9 8//8 10//10
f 9//9 10//10 11//11
f 11//11 10//10 12//12
f 11//11 12//12 13//13
f 13//13 12//12 14//14
f 13//13 14//14 15//15
f 15//15 14//14 16//16
f 15//15 16//16 17//17
f 17//17 16//16 18//18
f 17//17 18//18 19//19
f 19//19 18//18 20//20
f 19//19 20//20 21//21
f 21//21 20//20 22//22
f 21//21 22//22 23//23
f 23//23 22//22 24//24
f 23//23 24//24 25//25
f 25//25 24//24 26//26
f 25//25 26//26 27//27
f 27//27 26//26 28//28
f 27//27 28//28 29//29
f 29//29 28//28 30//30
f 29//29 30//30 31//31
f 31//31 30//30 32//32
f 31//31 32//32 33//33
f 33//33 32//32 34//34
f 33//33 34//34 35//35
f 35//35 34//34 36//36
f 35//35 36//36 37//37
f 37//37 36//36 38//38
f 37//37 38//38 39//39
f 39//39 38//38 40//40
f 39//39 40//40 41//41
f 41//41 40//40 42//42
f 41//41 42//42 43//43
f 43//43 42//42 44//44
f 43//43 44//44 45//45
f 45//45 44//44 46//46
f 45//45 46//46 47//47
f 47//47 46//46 48//48
f 47//47 48//48 49//49
f 49//49 48//48 50//50
f 49//49 50//50 51//51
f 51//51 50//50 52//52
f 51//51 52//52 53//53
f 53//53 52//52 54//54
f 53//53 54//54 55//55
f 55//55 54//54 56//56
f 55//55 56//56 1//1
f 1//1 56//56 2//2
f 57//57 58//58 59//59
f 60//60 61//61 59//59
f 59//59 61//61 62//62
f 59//59 62//62 57//57
f 63//63 64//64 59//59
f 59//59 64//64 65//65
f 59//59 65//65 60//60
f 66//66 67//67 59//59
f 59//59 67//67 68//68
f 59//59 68//68 63//63
f 69//69 70//70 59//59
f 59//59 70//70 71//71
f 59//59 71//71 66//66
f 72//72 73//73 59//59
f 59//59 73//73 74//74
f 59//59 74//74 69//69
f 75//75 76//76 59//59
f 59//59 76//76 77//77
f 59//59 77//77 72//72
f 78//78 79//79 59//59
f 59//59 79//79 80//80
f 59//59 80//80 75//75
f 81//81 82//82 59//59
f 59//59 82//82 83//83
f 59//59 83//83 78//78
f 58//58 84//84 59//59
f 59//59 84//84 85//85
f 59//59 85//85 81//81
f 86//86 87//87 88//88
f 89//89 90//90 88//88
f 88//88 90//90 91//91
f 88//88 91//91 86//86
f 92//92 93//93 88//88
f 88//88 93//93 94//94
f 88//88 94//94 89//89
f 95//95 96//96 88//88
f 88//88 96//96 97//97
f 88//88 97//97 92//92
f 98//98 99//99 88//88
f 88//88 99//99 100//100
f 88//88 100//100 95//95
f 101//101 102//102 88//88
f 88//88 102//102 103//103
f 88//88 103//103 98//98
f 104//104 105//105 88//88
f 88//88 105//105 106//106
f 88//88 106//106 101//101
f 107//107 108//108 88//88
f 88//88 108//108 109//109
f 88//88 109//109 104//104
f 110//110 111//111 88//88
f 88//88 111//111 112//112
f 88//88 112//112 107//107
f 87//87 113//113 88//88
f 88//88 113//113 114//114
f 88//88 114//114 110//110
f 115//115 116//116 117//117
f 117//117 116//116 118//118
f 117//117 118//118 119//119
f 119//119 118//118 120//120
f 119//119 120//120 121//121
f 121//121 120//120 122//122
f 121//121 122//122 123//123
f 123//123 122//122 124//124
f 123//123 124//124 125//125
f 125//125 124//124 126//126
f 125//125 126//126 127//127
f 127//127 126//126 128//128
f 127//127 128//128 129//129
f 129//129 128//128 130//130
f 129//129 130//130 131//131
f 131//131 130//130 132//132
f 131//131 132//132 133//133
f 133//133 132//132 134//134
f 133//133 134//134 135//135
f 135//135 134//134 136//136
f 135//135 136//136 137//137
f 137//137 136//136 138//138
f 137//137 138//138 139//139
f 139//139 138//138 140//140
f 139//139 140//140 141//141
f 141//141 140//140 142//142
f 141//141 142//142 143//143
f 143//143 142//142 144//144
f 143//143 144//144 145//145
f 145//145 144//144 146//146
f 145//145 146//146 147//147
f 147//147 146//146 148//148
f 147//147 148//148 149//149
f 149//149 148//148 150//150
f 149//149 150//150 151//151
f 151//151 150//150 152//152
f 151//151 152//152 153//153
f 153//153 152//152 154//154
f 153//153 154//154 155//155
f 155//155 154//154 156//156
f 155//155 156//156 157//157
f 157//157 156//156 158//158
f 157//157 158//158 159//159
f 159//159 158//158 160//160
f 159//159 160//160 161//161
f 161//161 160//160 162//162
f 161//161 162//162 163//163
f 163//163 162//162 164//164
f 163//163 164//164 165//165
f 165//165 164//164 166//166
f 165//165 166//166 167//167
f 167//167 166//166 168//168
f 167//167 168//168 169//169
f 169//169 168//168 170//170
f 169//169 170//170 115//115
f 115//115 170//170 116//116
f 171//171 172//172 173//173
f 173//173 172//172 174//174
f 173//173 174//174 175//175
f 175//175 174//174 176//176
f 175//175 176//176 177//177
f 177//177 176//176 178//178
f 177//177 178//178 179//179
f 179//179 178//178 180//180
f 179//179 180//180 181//181
f 181//181 180//180 182//182
f 181//181 182//182 183//183
f 183//183 182//182 184//184
f 183//183 184//184 185//185
f 185//185 184//184 186//186
f 185//185 186//186 187//187
f 187//187 186//186 188//188
f 187//187 188//188 189//189
f 189//189 188//188 190//190
f 189//189 190//190 191//191
f 191//191 190//190 192//192
f 191//191 192//192 193//193
f 193//193 192//192 194//194
f 193//193 194//194 195//195
f 195//195 194//194 196//196
f 195//195 196//196 197//197
f 197//197 196//196 198//198
f 197//197 198//198 199//199
f 199//199 198//198 200//200
f 199//199 200//200 201//201
f 201//201 200//200 202//202
f 201//201 202//202 203//203
f 203//203 202//202 204//204
f 203//203 204//204 205//205
f 205//205 204//204 206//206
f 205//205 206//206 207//207
f 207//207 206//206 208//208
f 207//207 208//208 209//209
f 209//209 208//208 210//210
f 209//209 210//210 211//211
f 211//211 210//210 212//212
f 211//211 212//212 213//213
f 213//213 212//212 214//214
f 213//213 214//214 215//215
f 215//215 214//214 216//216
f 215//215 216//216 217//217
f 217//217 216//216 218//218
f 217//217 218//218 219//219
f 219//219 218//218 220//220
f 219//219 220//220 221//221
f 221//221 220//220 222//222
f 221//221 222//222 223//223
f 223//223 222//222 224//224
f 223//223 224//224 225//225
f 225//225 224//224 226//226
f 225//225 226//226 171//171
f 171//171 226//226 172//172

