mtllib material.mtl
usemtl Material-塑胶__3_.056
v 0.11817400 -0.01402800 -0.02040000
v 0.11823800 -0.01403000 -0.02050000
v 0.11823800 -0.01403000 -0.02040000
v 0.11830200 -0.01402000 -0.02050000
v 0.11830200 -0.01402000 -0.02040000
v 0.11836400 -0.01400100 -0.02050000
v 0.11836400 -0.01400100 -0.02040000
v 0.11842100 -0.01397300 -0.02050000
v 0.11842100 -0.01397300 -0.02040000
v 0.11847400 -0.01393500 -0.02050000
v 0.11847400 -0.01393500 -0.02040000
v 0.11851900 -0.01388900 -0.02050000
v 0.11851900 -0.01388900 -0.02040000
v 0.11855600 -0.01383700 -0.02050000
v 0.11855600 -0.01383700 -0.02040000
v 0.11858500 -0.01377900 -0.02050000
v 0.11858500 -0.01377900 -0.02040000
v 0.11860400 -0.01371800 -0.02050000
v 0.11860400 -0.01371800 -0.02040000
v 0.11861300 -0.01365400 -0.02050000
v 0.11861300 -0.01365400 -0.02040000
v 0.11861200 -0.01359000 -0.02050000
v 0.11861200 -0.01359000 -0.02040000
v 0.11860000 -0.01352600 -0.02050000
v 0.11860000 -0.01352600 -0.02040000
v 0.11857800 -0.01346600 -0.02050000
v 0.11857800 -0.01346600 -0.02040000
v 0.11854700 -0.01340900 -0.02050000
v 0.11854700 -0.01340900 -0.02040000
v 0.11850700 -0.01335900 -0.02050000
v 0.11850700 -0.01335900 -0.02040000
v 0.11846000 -0.01331500 -0.02050000
v 0.11846000 -0.01331500 -0.02040000
v 0.11840700 -0.01328000 -0.02050000
v 0.11840700 -0.01328000 -0.02040000
v 0.11834800 -0.01325400 -0.02050000
v 0.11834800 -0.01325400 -0.02040000
v 0.11828500 -0.01323700 -0.02050000
v 0.11828500 -0.01323700 -0.02040000
v 0.11822100 -0.01323100 -0.02050000
v 0.11822100 -0.01323100 -0.02040000
v 0.11815700 -0.01323500 -0.02050000
v 0.11815700 -0.01323500 -0.02040000
v 0.11809500 -0.01324900 -0.02050000
v 0.11809500 -0.01324900 -0.02040000
v 0.11803500 -0.01327300 -0.02050000
v 0.11803500 -0.01327300 -0.02040000
v 0.11798000 -0.01330700 -0.02050000
v 0.11798000 -0.01330700 -0.02040000
v 0.11793100 -0.01334800 -0.02050000
v 0.11793100 -0.01334800 -0.02040000
v 0.11788900 -0.01339700 -0.02050000
v 0.11788900 -0.01339700 -0.02040000
v 0.11785600 -0.01345200 -0.02050000
v 0.11785600 -0.01345200 -0.02040000
v 0.11783300 -0.01351200 -0.02050000
v 0.11783300 -0.01351200 -0.02040000
v 0.11781800 -0.01357500 -0.02050000
v 0.11781800 -0.01357500 -0.02040000
v 0.11781400 -0.01363900 -0.02050000
v 0.11781400 -0.01363900 -0.02040000
v 0.11782100 -0.01370300 -0.02050000
v 0.11782100 -0.01370300 -0.02040000
v 0.11783700 -0.01376600 -0.02050000
v 0.11783700 -0.01376600 -0.02040000
v 0.11786400 -0.01382400 -0.02050000
v 0.11786400 -0.01382400 -0.02040000
v 0.11790000 -0.01387700 -0.02050000
v 0.11790000 -0.01387700 -0.02040000
v 0.11794300 -0.01392500 -0.02050000
v 0.11794300 -0.01392500 -0.02040000
v 0.11799300 -0.01396400 -0.02050000
v 0.11799300 -0.01396400 -0.02040000
v 0.11805100 -0.01399500 -0.02050000
v 0.11805100 -0.01399500 -0.02040000
v 0.11811100 -0.01401700 -0.02050000
v 0.11811100 -0.01401700 -0.02040000
v 0.11817400 -0.01402800 -0.02050000
v 0.11830200 -0.01402000 -0.02050000
v 0.11823800 -0.01403000 -0.02050000
v 0.11821400 -0.01363000 -0.02050000
v 0.11817400 -0.01402800 -0.02050000
v 0.11811100 -0.01401700 -0.02050000
v 0.11847400 -0.01393500 -0.02050000
v 0.11842100 -0.01397300 -0.02050000
v 0.11836400 -0.01400100 -0.02050000
v 0.11858500 -0.01377900 -0.02050000
v 0.11855600 -0.01383700 -0.02050000
v 0.11851900 -0.01388900 -0.02050000
v 0.11861200 -0.01359000 -0.02050000
v 0.11861300 -0.01365400 -0.02050000
v 0.11860400 -0.01371800 -0.02050000
v 0.11854700 -0.01340900 -0.02050000
v 0.11857800 -0.01346600 -0.02050000
v 0.11860000 -0.01352600 -0.02050000
v 0.11840700 -0.01328000 -0.02050000
v 0.11846000 -0.01331500 -0.02050000
v 0.11850700 -0.01335900 -0.02050000
v 0.11822100 -0.01323100 -0.02050000
v 0.11828500 -0.01323700 -0.02050000
v 0.11834800 -0.01325400 -0.02050000
v 0.11803500 -0.01327300 -0.02050000
v 0.11809500 -0.01324900 -0.02050000
v 0.11815700 -0.01323500 -0.02050000
v 0.11788900 -0.01339700 -0.02050000
v 0.11793100 -0.01334800 -0.02050000
v 0.11798000 -0.01330700 -0.02050000
v 0.11781800 -0.01357500 -0.02050000
v 0.11783300 -0.01351200 -0.02050000
v 0.11785600 -0.01345200 -0.02050000
v 0.11783700 -0.01376600 -0.02050000
v 0.11782100 -0.01370300 -0.02050000
v 0.11781400 -0.01363900 -0.02050000
v 0.11794300 -0.01392500 -0.02050000
v 0.11790000 -0.01387700 -0.02050000
v 0.11786400 -0.01382400 -0.02050000
v 0.11805100 -0.01399500 -0.02050000
v 0.11799300 -0.01396400 -0.02050000
v 0.11805100 -0.01399500 -0.02040000
v 0.11811100 -0.01401700 -0.02040000
v 0.11821400 -0.01363000 -0.02040000
v 0.11817400 -0.01402800 -0.02040000
v 0.11823800 -0.01403000 -0.02040000
v 0.11790000 -0.01387700 -0.02040000
v 0.11794300 -0.01392500 -0.02040000
v 0.11799300 -0.01396400 -0.02040000
v 0.11782100 -0.01370300 -0.02040000
v 0.11783700 -0.01376600 -0.02040000
v 0.11786400 -0.01382400 -0.02040000
v 0.11783300 -0.01351200 -0.02040000
v 0.11781800 -0.01357500 -0.02040000
v 0.11781400 -0.01363900 -0.02040000
v 0.11793100 -0.01334800 -0.02040000
v 0.11788900 -0.01339700 -0.02040000
v 0.11785600 -0.01345200 -0.02040000
v 0.11809500 -0.01324900 -0.02040000
v 0.11803500 -0.01327300 -0.02040000
v 0.11798000 -0.01330700 -0.02040000
v 0.11828500 -0.01323700 -0.02040000
v 0.11822100 -0.01323100 -0.02040000
v 0.11815700 -0.01323500 -0.02040000
v 0.11846000 -0.01331500 -0.02040000
v 0.11840700 -0.01328000 -0.02040000
v 0.11834800 -0.01325400 -0.02040000
v 0.11857800 -0.01346600 -0.02040000
v 0.11854700 -0.01340900 -0.02040000
v 0.11850700 -0.01335900 -0.02040000
v 0.11861300 -0.01365400 -0.02040000
v 0.11861200 -0.01359000 -0.02040000
v 0.11860000 -0.01352600 -0.02040000
v 0.11855600 -0.01383700 -0.02040000
v 0.11858500 -0.01377900 -0.02040000
v 0.11860400 -0.01371800 -0.02040000
v 0.11842100 -0.01397300 -0.02040000
v 0.11847400 -0.01393500 -0.02040000
v 0.11851900 -0.01388900 -0.02040000
v 0.11830200 -0.01402000 -0.02040000
v 0.11836400 -0.01400100 -0.02040000
vn -0.07250000 -0.99740000 -0.00000000
vn 0.03470000 -0.99940000 -0.00000000
vn 0.08850000 -0.99610000 -0.00000000
vn 0.19470000 -0.98090000 -0.00000000
vn 0.24700000 -0.96900000 -0.00000000
vn 0.34940000 -0.93700000 -0.00000000
vn 0.39930000 -0.91680000 -0.00000000
vn 0.49530000 -0.86870000 -0.00000000
vn 0.54120000 -0.84090000 -0.00000000
vn 0.62820000 -0.77810000 -0.00000000
vn 0.66910000 -0.74320000 -0.00000000
vn 0.74480000 -0.66730000 -0.00000000
vn 0.77960000 -0.62630000 -0.00000000
vn 0.84220000 -0.53920000 -0.00000000
vn 0.86990000 -0.49320000 -0.00000000
vn 0.91780000 -0.39700000 -0.00000000
vn 0.93780000 -0.34720000 -0.00000000
vn 0.96960000 -0.24470000 -0.00000000
vn 0.98140000 -0.19220000 -0.00000000
vn 0.99630000 -0.08600000 -0.00000000
vn 0.99950000 -0.03240000 -0.00000000
vn 0.99720000 0.07490000 -0.00000000
vn 0.99170000 0.12840000 -0.00000000
vn 0.97220000 0.23400000 -0.00000000
vn 0.95830000 0.28590000 -0.00000000
vn 0.92220000 0.38680000 -0.00000000
vn 0.90000000 0.43580000 -0.00000000
vn 0.84810000 0.52980000 -0.00000000
vn 0.81840000 0.57460000 -0.00000000
vn 0.75220000 0.65900000 -0.00000000
vn 0.71560000 0.69850000 -0.00000000
vn 0.63670000 0.77110000 -0.00000000
vn 0.59430000 0.80420000 -0.00000000
vn 0.50480000 0.86320000 -0.00000000
vn 0.45770000 0.88910000 -0.00000000
vn 0.35970000 0.93310000 -0.00000000
vn 0.30910000 0.95100000 -0.00000000
vn 0.20540000 0.97870000 -0.00000000
vn 0.15250000 0.98830000 -0.00000000
vn 0.04590000 0.99890000 -0.00000000
vn -0.00790000 1.00000000 -0.00000000
vn -0.11500000 0.99340000 -0.00000000
vn -0.16820000 0.98580000 -0.00000000
vn -0.27290000 0.96200000 -0.00000000
vn -0.32420000 0.94600000 -0.00000000
vn -0.42360000 0.90580000 -0.00000000
vn -0.47170000 0.88170000 -0.00000000
vn -0.56350000 0.82610000 -0.00000000
vn -0.60710000 0.79460000 -0.00000000
vn -0.68870000 0.72510000 -0.00000000
vn -0.72680000 0.68690000 -0.00000000
vn -0.79610000 0.60510000 -0.00000000
vn -0.82740000 0.56160000 -0.00000000
vn -0.88290000 0.46960000 -0.00000000
vn -0.90680000 0.42160000 -0.00000000
vn -0.94680000 0.32190000 -0.00000000
vn -0.96270000 0.27070000 -0.00000000
vn -0.98620000 0.16580000 -0.00000000
vn -0.99360000 0.11270000 -0.00000000
vn -1.00000000 0.00550000 -0.00000000
vn -0.99880000 -0.04820000 -0.00000000
vn -0.98790000 -0.15490000 -0.00000000
vn -0.97820000 -0.20780000 -0.00000000
vn -0.95020000 -0.31150000 -0.00000000
vn -0.93220000 -0.36200000 -0.00000000
vn -0.88800000 -0.45980000 -0.00000000
vn -0.86200000 -0.50690000 -0.00000000
vn -0.80270000 -0.59630000 -0.00000000
vn -0.76950000 -0.63860000 -0.00000000
vn -0.69670000 -0.71740000 -0.00000000
vn -0.65710000 -0.75380000 -0.00000000
vn -0.57260000 -0.81980000 -0.00000000
vn -0.52770000 -0.84940000 -0.00000000
vn -0.43360000 -0.90110000 -0.00000000
vn -0.38460000 -0.92310000 -0.00000000
vn -0.28350000 -0.95900000 -0.00000000
vn -0.23160000 -0.97280000 -0.00000000
vn -0.12600000 -0.99200000 -0.00000000
vn -0.00000000 -0.00000000 -1.00000000
vn -0.00000000 -0.00000000 -1.00000000
vn -0.00000000 -0.00000000 -1.00000000
vn -0.00000000 -0.00000000 -1.00000000
vn -0.00000000 -0.00000000 -1.00000000
vn -0.00000000 -0.00000000 -1.00000000
vn -0.00000000 -0.00000000 -1.00000000
vn -0.00000000 -0.00000000 -1.00000000
vn -0.00000000 -0.00000000 -1.00000000
vn -0.00000000 -0.00000000 -1.00000000
vn -0.00000000 -0.00000000 -1.00000000
vn -0.00000000 -0.00000000 -1.00000000
vn -0.00000000 -0.00000000 -1.00000000
vn -0.00000000 -0.00000000 -1.00000000
vn -0.00000000 -0.00000000 -1.00000000
vn -0.00000000 -0.00000000 -1.00000000
vn -0.00000000 -0.00000000 -1.00000000
vn -0.00000000 -0.00000000 -1.00000000
vn -0.00000000 -0.00000000 -1.00000000
vn -0.00000000 -0.00000000 -1.00000000
vn -0.00000000 -0.00000000 -1.00000000
vn -0.00000000 -0.00000000 -1.00000000
vn -0.00000000 -0.00000000 -1.00000000
vn -0.00000000 -0.00000000 -1.00000000
vn -0.00000000 -0.00000000 -1.00000000
vn -0.00000000 -0.00000000 -1.00000000
vn -0.00000000 -0.00000000 -1.00000000
vn -0.00000000 -0.00000000 -1.00000000
vn -0.00000000 -0.00000000 -1.00000000
vn -0.00000000 -0.00000000 -1.00000000
vn -0.00000000 -0.00000000 -1.00000000
vn -0.00000000 -0.00000000 -1.00000000
vn -0.00000000 -0.00000000 -1.00000000
vn -0.00000000 -0.00000000 -1.00000000
vn -0.00000000 -0.00000000 -1.00000000
vn -0.00000000 -0.00000000 -1.00000000
vn -0.00000000 -0.00000000 -1.00000000
vn -0.00000000 -0.00000000 -1.00000000
vn -0.00000000 -0.00000000 -1.00000000
vn -0.00000000 -0.00000000 -1.00000000
vn -0.00000000 -0.00000000 1.00000000
vn -0.00000000 -0.00000000 1.00000000
vn -0.00000000 -0.00000000 1.00000000
vn -0.00000000 -0.00000000 1.00000000
vn -0.00000000 -0.00000000 1.00000000
vn -0.00000000 -0.00000000 1.00000000
vn -0.00000000 -0.00000000 1.00000000
vn -0.00000000 -0.00000000 1.00000000
vn -0.00000000 -0.00000000 1.00000000
vn -0.00000000 -0.00000000 1.00000000
vn -0.00000000 -0.00000000 1.00000000
vn -0.00000000 -0.00000000 1.00000000
vn -0.00000000 -0.00000000 1.00000000
vn -0.00000000 -0.00000000 1.00000000
vn -0.00000000 -0.00000000 1.00000000
vn -0.00000000 -0.00000000 1.00000000
vn -0.00000000 -0.00000000 1.00000000
vn -0.00000000 -0.00000000 1.00000000
vn -0.00000000 -0.00000000 1.00000000
vn -0.00000000 -0.00000000 1.00000000
vn -0.00000000 -0.00000000 1.00000000
vn -0.00000000 -0.00000000 1.00000000
vn -0.00000000 -0.00000000 1.00000000
vn -0.00000000 -0.00000000 1.00000000
vn -0.00000000 -0.00000000 1.00000000
vn -0.00000000 -0.00000000 1.00000000
vn -0.00000000 -0.00000000 1.00000000
vn -0.00000000 -0.00000000 1.00000000
vn -0.00000000 -0.00000000 1.00000000
vn -0.00000000 -0.00000000 1.00000000
vn -0.00000000 -0.00000000 1.00000000
vn -0.00000000 -0.00000000 1.00000000
vn -0.00000000 -0.00000000 1.00000000
vn -0.00000000 -0.00000000 1.00000000
vn -0.00000000 -0.00000000 1.00000000
vn -0.00000000 -0.00000000 1.00000000
vn -0.00000000 -0.00000000 1.00000000
vn -0.00000000 -0.00000000 1.00000000
vn -0.00000000 -0.00000000 1.00000000
vn -0.00000000 -0.00000000 1.00000000
f 1//1 2//2 3//3
f 3//3 2//2 4//4
f 3//3 4//4 5//5
f 5//5 4//4 6//6
f 5//5 6//6 7//7
f 7//7 6//6 8//8
f 7//7 8//8 9//9
f 9//9 8//8 10//10
f 9//9 10//10 11//11
f 11//11 10//10 12//12
f 11//11 12//12 13//13
f 13//13 12//12 14//14
f 13//13 14//14 15//15
f 15//15 14//14 16//16
f 15//15 16//16 17//17
f 17//17 16//16 18//18
f 17//17 18//18 19//19
f 19//19 18//18 20//20
f 19//19 20//20 21//21
f 21//21 20//20 22//22
f 21//21 22//22 23//23
f 23//23 22//22 24//24
f 23//23 24//24 25//25
f 25//25 24//24 26//26
f 25//25 26//26 27//27
f 27//27 26//26 28//28
f 27//27 28//28 29//29
f 29//29 28//28 30//30
f 29//29 30//30 31//31
f 31//31 30//30 32//32
f 31//31 32//32 33//33
f 33//33 32//32 34//34
f 33//33 34//34 35//35
f 35//35 34//34 36//36
f 35//35 36//36 37//37
f 37//37 36//36 38//38
f 37//37 38//38 39//39
f 39//39 38//38 40//40
f 39//39 40//40 41//41
f 41//41 40//40 42//42
f 41//41 42//42 43//43
f 43//43 42//42 44//44
f 43//43 44//44 45//45
f 45//45 44//44 46//46
f 45//45 46//46 47//47
f 47//47 46//46 48//48
f 47//47 48//48 49//49
f 49//49 48//48 50//50
f 49//49 50//50 51//51
f 51//51 50//50 52//52
f 51//51 52//52 53//53
f 53//53 52//52 54//54
f 53//53 54//54 55//55
f 55//55 54//54 56//56
f 55//55 56//56 57//57
f 57//57 56//56 58//58
f 57//57 58//58 59//59
f 59//59 58//58 60//60
f 59//59 60//60 61//61
f 61//61 60//60 62//62
f 61//61 62//62 63//63
f 63//63 62//62 64//64
f 63//63 64//64 65//65
f 65//65 64//64 66//66
f 65//65 66//66 67//67
f 67//67 66//66 68//68
f 67//67 68//68 69//69
f 69//69 68//68 70//70
f 69//69 70//70 71//71
f 71//71 70//70 72//72
f 71//71 72//72 73//73
f 73//73 72//72 74//74
f 73//73 74//74 75//75
f 75//75 74//74 76//76
f 75//75 76//76 77//77
f 77//77 76//76 78//78
f 77//77 78//78 1//1
f 1//1 78//78 2//2
f 79//79 80//80 81//81
f 81//81 80//80 82//82
f 81//81 82//82 83//83
f 84//84 85//85 81//81
f 81//81 85//85 86//86
f 81//81 86//86 79//79
f 87//87 88//88 81//81
f 81//81 88//88 89//89
f 81//81 89//89 84//84
f 90//90 91//91 81//81
f 81//81 91//91 92//92
f 81//81 92//92 87//87
f 93//93 94//94 81//81
f 81//81 94//94 95//95
f 81//81 95//95 90//90
f 96//96 97//97 81//81
f 81//81 97//97 98//98
f 81//81 98//98 93//93
f 99//99 100//100 81//81
f 81//81 100//100 101//101
f 81//81 101//101 96//96
f 102//102 103//103 81//81
f 81//81 103//103 104//104
f 81//81 104//104 99//99
f 105//105 106//106 81//81
f 81//81 106//106 107//107
f 81//81 107//107 102//102
f 108//108 109//109 81//81
f 81//81 109//109 110//110
f 81//81 110//110 105//105
f 111//111 112//112 81//81
f 81//81 112//112 113//113
f 81//81 113//113 108//108
f 114//114 115//115 81//81
f 81//81 115//115 116//116
f 81//81 116//116 111//111
f 83//83 117//117 81//81
f 81//81 117//117 118//118
f 81//81 118//118 114//114
f 119//119 120//120 121//121
f 121//121 120//120 122//122
f 121//121 122//122 123//123
f 124//124 125//125 121//121
f 121//121 125//125 126//126
f 121//121 126//126 119//119
f 127//127 128//128 121//121
f 121//121 128//128 129//129
f 121//121 129//129 124//124
f 130//130 131//131 121//121
f 121//121 131//131 132//132
f 121//121 132//132 127//127
f 133//133 134//134 121//121
f 121//121 134//134 135//135
f 121//121 135//135 130//130
f 136//136 137//137 121//121
f 121//121 137//137 138//138
f 121//121 138//138 133//133
f 139//139 140//140 121//121
f 121//121 140//140 141//141
f 121//121 141//141 136//136
f 142//142 143//143 121//121
f 121//121 143//143 144//144
f 121//121 144//144 139//139
f 145//145 146//146 121//121
f 121//121 146//146 147//147
f 121//121 147//147 142//142
f 148//148 149//149 121//121
f 121//121 149//149 150//150
f 121//121 150//150 145//145
f 151//151 152//152 121//121
f 121//121 152//152 153//153
f 121//121 153//153 148//148
f 154//154 155//155 121//121
f 121//121 155//155 156//156
f 121//121 156//156 151//151
f 123//123 157//157 121//121
f 121//121 157//157 158//158
f 121//121 158//158 154//154

