mtllib material.mtl
usemtl Material-塑胶__3_.057
v 0.11285500 -0.01092400 -0.02050000
v 0.11285500 -0.01092400 -0.02040000
v 0.11280600 -0.01079100 -0.02040000
v 0.11280600 -0.01079100 -0.02050000
v 0.11280200 -0.01065100 -0.02040000
v 0.11280200 -0.01065100 -0.02050000
v 0.11283700 -0.01052700 -0.02040000
v 0.11283700 -0.01052700 -0.02050000
v 0.11290900 -0.01041600 -0.02040000
v 0.11290900 -0.01041600 -0.02050000
v 0.11301800 -0.01032700 -0.02040000
v 0.11301800 -0.01032700 -0.02050000
v 0.11315000 -0.01027700 -0.02040000
v 0.11315000 -0.01027700 -0.02050000
v 0.11329400 -0.01027100 -0.02040000
v 0.11329400 -0.01027100 -0.02050000
v 0.11340000 -0.01029800 -0.02040000
v 0.11340000 -0.01029800 -0.02050000
v 0.11345300 -0.01032200 -0.02040000
v 0.11345300 -0.01032200 -0.02050000
v 0.11356100 -0.01040600 -0.02040000
v 0.11356100 -0.01040600 -0.02050000
v 0.11361900 -0.01048200 -0.02040000
v 0.11361900 -0.01048200 -0.02050000
v 0.11473700 -0.01234700 -0.02050000
v 0.11473700 -0.01234700 -0.02040000
v 0.11643400 -0.01101700 -0.02050000
v 0.11473700 -0.01234700 -0.02050000
v 0.11643400 -0.01101700 -0.02040000
v 0.11473700 -0.01234700 -0.02040000
v 0.11655700 -0.01094900 -0.02040000
v 0.11655700 -0.01094900 -0.02050000
v 0.11668900 -0.01092400 -0.02040000
v 0.11668900 -0.01092400 -0.02050000
v 0.11677700 -0.01093000 -0.02040000
v 0.11677700 -0.01093000 -0.02050000
v 0.11690300 -0.01097200 -0.02040000
v 0.11690300 -0.01097200 -0.02050000
v 0.11701700 -0.01105500 -0.02040000
v 0.11701700 -0.01105500 -0.02050000
v 0.11709900 -0.01116900 -0.02040000
v 0.11709900 -0.01116900 -0.02050000
v 0.11714000 -0.01130500 -0.02040000
v 0.11714000 -0.01130500 -0.02050000
v 0.11713700 -0.01144600 -0.02040000
v 0.11713700 -0.01144600 -0.02050000
v 0.11710500 -0.01154700 -0.02040000
v 0.11710500 -0.01154700 -0.02050000
v 0.11702800 -0.01166200 -0.02040000
v 0.11702800 -0.01166200 -0.02050000
v 0.11692500 -0.01174600 -0.02040000
v 0.11692500 -0.01174600 -0.02050000
v 0.11690400 -0.01175700 -0.02040000
v 0.11690400 -0.01175700 -0.02050000
v 0.11518600 -0.01309300 -0.02050000
v 0.11518600 -0.01309300 -0.02040000
v 0.11636400 -0.01504900 -0.02050000
v 0.11518600 -0.01309300 -0.02050000
v 0.11636400 -0.01504900 -0.02040000
v 0.11518600 -0.01309300 -0.02040000
v 0.11641200 -0.01517900 -0.02040000
v 0.11641200 -0.01517900 -0.02050000
v 0.11641700 -0.01531900 -0.02040000
v 0.11641700 -0.01531900 -0.02050000
v 0.11638400 -0.01544200 -0.02040000
v 0.11638400 -0.01544200 -0.02050000
v 0.11631200 -0.01555300 -0.02040000
v 0.11631200 -0.01555300 -0.02050000
v 0.11620500 -0.01564400 -0.02040000
v 0.11620500 -0.01564400 -0.02050000
v 0.11607300 -0.01569500 -0.02040000
v 0.11607300 -0.01569500 -0.02050000
v 0.11593000 -0.01570200 -0.02040000
v 0.11593000 -0.01570200 -0.02050000
v 0.11582200 -0.01567600 -0.02040000
v 0.11582200 -0.01567600 -0.02050000
v 0.11575700 -0.01564500 -0.02040000
v 0.11575700 -0.01564500 -0.02050000
v 0.11565200 -0.01555800 -0.02040000
v 0.11565200 -0.01555800 -0.02050000
v 0.11560000 -0.01549000 -0.02040000
v 0.11560000 -0.01549000 -0.02050000
v 0.11448200 -0.01362600 -0.02050000
v 0.11448200 -0.01362600 -0.02040000
v 0.11278600 -0.01495700 -0.02050000
v 0.11448200 -0.01362600 -0.02050000
v 0.11278600 -0.01495700 -0.02040000
v 0.11448200 -0.01362600 -0.02040000
v 0.11266300 -0.01502400 -0.02040000
v 0.11266300 -0.01502400 -0.02050000
v 0.11252200 -0.01504900 -0.02040000
v 0.11252200 -0.01504900 -0.02050000
v 0.11243300 -0.01504100 -0.02040000
v 0.11243300 -0.01504100 -0.02050000
v 0.11230800 -0.01499800 -0.02040000
v 0.11230800 -0.01499800 -0.02050000
v 0.11220000 -0.01491600 -0.02040000
v 0.11220000 -0.01491600 -0.02050000
v 0.11211900 -0.01480200 -0.02040000
v 0.11211900 -0.01480200 -0.02050000
v 0.11207800 -0.01466500 -0.02040000
v 0.11207800 -0.01466500 -0.02050000
v 0.11208200 -0.01452600 -0.02040000
v 0.11208200 -0.01452600 -0.02050000
v 0.11212900 -0.01439600 -0.02040000
v 0.11212900 -0.01439600 -0.02050000
v 0.11221100 -0.01428900 -0.02040000
v 0.11221100 -0.01428900 -0.02050000
v 0.11231400 -0.01421600 -0.02040000
v 0.11231400 -0.01421600 -0.02050000
v 0.11403300 -0.01287900 -0.02050000
v 0.11403300 -0.01287900 -0.02040000
v 0.11403300 -0.01287900 -0.02050000
v 0.11403300 -0.01287900 -0.02040000
v 0.11518600 -0.01309300 -0.02050000
v 0.11473700 -0.01234700 -0.02050000
v 0.11643400 -0.01101700 -0.02050000
v 0.11636400 -0.01504900 -0.02050000
v 0.11582200 -0.01567600 -0.02050000
v 0.11575700 -0.01564500 -0.02050000
v 0.11266300 -0.01502400 -0.02050000
v 0.11231400 -0.01421600 -0.02050000
v 0.11278600 -0.01495700 -0.02050000
v 0.11403300 -0.01287900 -0.02050000
v 0.11448200 -0.01362600 -0.02050000
v 0.11285500 -0.01092400 -0.02050000
v 0.11340000 -0.01029800 -0.02050000
v 0.11345300 -0.01032200 -0.02050000
v 0.11655700 -0.01094900 -0.02050000
v 0.11692500 -0.01174600 -0.02050000
v 0.11692500 -0.01174600 -0.02050000
v 0.11643400 -0.01101700 -0.02050000
v 0.11690400 -0.01175700 -0.02050000
v 0.11565200 -0.01555800 -0.02050000
v 0.11636400 -0.01504900 -0.02050000
v 0.11560000 -0.01549000 -0.02050000
v 0.11473700 -0.01234700 -0.02050000
v 0.11361900 -0.01048200 -0.02050000
v 0.11356100 -0.01040600 -0.02050000
v 0.11677700 -0.01093000 -0.02050000
v 0.11713700 -0.01144600 -0.02050000
v 0.11710500 -0.01154700 -0.02050000
v 0.11668900 -0.01092400 -0.02050000
v 0.11677700 -0.01093000 -0.02050000
v 0.11702800 -0.01166200 -0.02050000
v 0.11593000 -0.01570200 -0.02050000
v 0.11641200 -0.01517900 -0.02050000
v 0.11641700 -0.01531900 -0.02050000
v 0.11620500 -0.01564400 -0.02050000
v 0.11607300 -0.01569500 -0.02050000
v 0.11631200 -0.01555300 -0.02050000
v 0.11638400 -0.01544200 -0.02050000
v 0.11329400 -0.01027100 -0.02050000
v 0.11280600 -0.01079100 -0.02050000
v 0.11280200 -0.01065100 -0.02050000
v 0.11301800 -0.01032700 -0.02050000
v 0.11315000 -0.01027700 -0.02050000
v 0.11290900 -0.01041600 -0.02050000
v 0.11283700 -0.01052700 -0.02050000
v 0.11709900 -0.01116900 -0.02050000
v 0.11714000 -0.01130500 -0.02050000
v 0.11701700 -0.01105500 -0.02050000
v 0.11690300 -0.01097200 -0.02050000
v 0.11220000 -0.01491600 -0.02050000
v 0.11211900 -0.01480200 -0.02050000
v 0.11207800 -0.01466500 -0.02050000
v 0.11252200 -0.01504900 -0.02050000
v 0.11243300 -0.01504100 -0.02050000
v 0.11221100 -0.01428900 -0.02050000
v 0.11243300 -0.01504100 -0.02050000
v 0.11230800 -0.01499800 -0.02050000
v 0.11212900 -0.01439600 -0.02050000
v 0.11230800 -0.01499800 -0.02050000
v 0.11220000 -0.01491600 -0.02050000
v 0.11208200 -0.01452600 -0.02050000
v 0.11403300 -0.01287900 -0.02040000
v 0.11231400 -0.01421600 -0.02040000
v 0.11278600 -0.01495700 -0.02040000
v 0.11518600 -0.01309300 -0.02040000
v 0.11690400 -0.01175700 -0.02040000
v 0.11643400 -0.01101700 -0.02040000
v 0.11692500 -0.01174600 -0.02040000
v 0.11356100 -0.01040600 -0.02040000
v 0.11345300 -0.01032200 -0.02040000
v 0.11285500 -0.01092400 -0.02040000
v 0.11340000 -0.01029800 -0.02040000
v 0.11329400 -0.01027100 -0.02040000
v 0.11565200 -0.01555800 -0.02040000
v 0.11575700 -0.01564500 -0.02040000
v 0.11636400 -0.01504900 -0.02040000
v 0.11582200 -0.01567600 -0.02040000
v 0.11593000 -0.01570200 -0.02040000
v 0.11690300 -0.01097200 -0.02040000
v 0.11677700 -0.01093000 -0.02040000
v 0.11713700 -0.01144600 -0.02040000
v 0.11448200 -0.01362600 -0.02040000
v 0.11473700 -0.01234700 -0.02040000
v 0.11361900 -0.01048200 -0.02040000
v 0.11560000 -0.01549000 -0.02040000
v 0.11710500 -0.01154700 -0.02040000
v 0.11315000 -0.01027700 -0.02040000
v 0.11301800 -0.01032700 -0.02040000
v 0.11290900 -0.01041600 -0.02040000
v 0.11280600 -0.01079100 -0.02040000
v 0.11280200 -0.01065100 -0.02040000
v 0.11283700 -0.01052700 -0.02040000
v 0.11607300 -0.01569500 -0.02040000
v 0.11620500 -0.01564400 -0.02040000
v 0.11631200 -0.01555300 -0.02040000
v 0.11641200 -0.01517900 -0.02040000
v 0.11641700 -0.01531900 -0.02040000
v 0.11638400 -0.01544200 -0.02040000
v 0.11655700 -0.01094900 -0.02040000
v 0.11668900 -0.01092400 -0.02040000
v 0.11702800 -0.01166200 -0.02040000
v 0.11714000 -0.01130500 -0.02040000
v 0.11709900 -0.01116900 -0.02040000
v 0.11701700 -0.01105500 -0.02040000
v 0.11207800 -0.01466500 -0.02040000
v 0.11211900 -0.01480200 -0.02040000
v 0.11208200 -0.01452600 -0.02040000
v 0.11220000 -0.01491600 -0.02040000
v 0.11212900 -0.01439600 -0.02040000
v 0.11230800 -0.01499800 -0.02040000
v 0.11221100 -0.01428900 -0.02040000
v 0.11243300 -0.01504100 -0.02040000
v 0.11252200 -0.01504900 -0.02040000
v 0.11266300 -0.01502400 -0.02040000
vn -0.91490000 -0.40370000 -0.00000000
vn -0.88750000 -0.46070000 -0.00000000
vn -0.97000000 -0.24320000 -0.00000000
vn -0.99060000 -0.13690000 -0.00000000
vn -0.99740000 0.07170000 -0.00000000
vn -0.98480000 0.17400000 -0.00000000
vn -0.93020000 0.36710000 -0.00000000
vn -0.88890000 0.45800000 -0.00000000
vn -0.77880000 0.62730000 -0.00000000
vn -0.70930000 0.70490000 -0.00000000
vn -0.54710000 0.83710000 -0.00000000
vn -0.45430000 0.89090000 -0.00000000
vn -0.25390000 0.96720000 -0.00000000
vn -0.14660000 0.98920000 -0.00000000
vn 0.05670000 0.99840000 -0.00000000
vn 0.15210000 0.98840000 -0.00000000
vn 0.30590000 0.95210000 -0.00000000
vn 0.36550000 0.93080000 -0.00000000
vn 0.48950000 0.87200000 -0.00000000
vn 0.55330000 0.83300000 -0.00000000
vn 0.68100000 0.73230000 -0.00000000
vn 0.74360000 0.66860000 -0.00000000
vn 0.81990000 0.57240000 -0.00000000
vn 0.83910000 0.54390000 -0.00000000
vn 0.85750000 0.51440000 -0.00000000
vn 0.85750000 0.51440000 -0.00000000
vn -0.52750000 0.84950000 -0.00000000
vn -0.61700000 0.78700000 -0.00000000
vn -0.57330000 0.81930000 -0.00000000
vn -0.61740000 0.78670000 -0.00000000
vn -0.38560000 0.92260000 -0.00000000
vn -0.28580000 0.95830000 -0.00000000
vn -0.10000000 0.99500000 -0.00000000
vn -0.01500000 0.99990000 -0.00000000
vn 0.15160000 0.98840000 -0.00000000
vn 0.23310000 0.97240000 -0.00000000
vn 0.40940000 0.91240000 -0.00000000
vn 0.50260000 0.86450000 -0.00000000
vn 0.67200000 0.74060000 -0.00000000
vn 0.74750000 0.66420000 -0.00000000
vn 0.87110000 0.49110000 -0.00000000
vn 0.91900000 0.39430000 -0.00000000
vn 0.98180000 0.19010000 -0.00000000
vn 0.99660000 0.08260000 -0.00000000
vn 0.99310000 -0.11710000 -0.00000000
vn 0.97780000 -0.20950000 -0.00000000
vn 0.92200000 -0.38710000 -0.00000000
vn 0.88150000 -0.47230000 -0.00000000
vn 0.77220000 -0.63540000 -0.00000000
vn 0.70200000 -0.71220000 -0.00000000
vn 0.57800000 -0.81600000 -0.00000000
vn 0.52890000 -0.84870000 -0.00000000
vn 0.52500000 -0.85110000 -0.00000000
vn 0.57030000 -0.82140000 -0.00000000
vn 0.61380000 -0.78950000 -0.00000000
vn 0.61380000 -0.78950000 -0.00000000
vn 0.91380000 0.40620000 -0.00000000
vn 0.85670000 0.51580000 -0.00000000
vn 0.88690000 0.46200000 -0.00000000
vn 0.85670000 0.51580000 -0.00000000
vn 0.96900000 0.24710000 -0.00000000
vn 0.99000000 0.14100000 -0.00000000
vn 0.99780000 -0.06660000 -0.00000000
vn 0.98580000 -0.16770000 -0.00000000
vn 0.93320000 -0.35950000 -0.00000000
vn 0.89310000 -0.44990000 -0.00000000
vn 0.78500000 -0.61950000 -0.00000000
vn 0.71620000 -0.69790000 -0.00000000
vn 0.55540000 -0.83160000 -0.00000000
vn 0.46320000 -0.88630000 -0.00000000
vn 0.26380000 -0.96460000 -0.00000000
vn 0.15670000 -0.98760000 -0.00000000
vn -0.04680000 -0.99890000 -0.00000000
vn -0.14260000 -0.98980000 -0.00000000
vn -0.30270000 -0.95310000 -0.00000000
vn -0.36760000 -0.93000000 -0.00000000
vn -0.50070000 -0.86560000 -0.00000000
vn -0.56820000 -0.82290000 -0.00000000
vn -0.69510000 -0.71890000 -0.00000000
vn -0.75370000 -0.65720000 -0.00000000
vn -0.82430000 -0.56610000 -0.00000000
vn -0.84120000 -0.54070000 -0.00000000
vn -0.85750000 -0.51440000 -0.00000000
vn -0.85750000 -0.51440000 -0.00000000
vn 0.52760000 -0.84950000 -0.00000000
vn 0.61750000 -0.78660000 -0.00000000
vn 0.57340000 -0.81930000 -0.00000000
vn 0.61750000 -0.78660000 -0.00000000
vn 0.38300000 -0.92370000 -0.00000000
vn 0.28030000 -0.95990000 -0.00000000
vn 0.08830000 -0.99610000 -0.00000000
vn -0.00000000 -1.00000000 -0.00000000
vn -0.16990000 -0.98550000 -0.00000000
vn -0.25140000 -0.96790000 -0.00000000
vn -0.42470000 -0.90530000 -0.00000000
vn -0.51500000 -0.85720000 -0.00000000
vn -0.67900000 -0.73410000 -0.00000000
vn -0.75220000 -0.65900000 -0.00000000
vn -0.87350000 -0.48690000 -0.00000000
vn -0.92080000 -0.39000000 -0.00000000
vn -0.98260000 -0.18550000 -0.00000000
vn -0.99690000 -0.07810000 -0.00000000
vn -0.99100000 0.13350000 -0.00000000
vn -0.97140000 0.23750000 -0.00000000
vn -0.90100000 0.43370000 -0.00000000
vn -0.85070000 0.52570000 -0.00000000
vn -0.72750000 0.68610000 -0.00000000
vn -0.65580000 0.75490000 -0.00000000
vn -0.59040000 0.80710000 -0.00000000
vn -0.60220000 0.79840000 -0.00000000
vn -0.61410000 0.78930000 -0.00000000
vn -0.61410000 0.78930000 -0.00000000
vn -0.85670000 -0.51580000 -0.00000000
vn -0.85670000 -0.51580000 -0.00000000
vn -0.00000000 -0.00000000 -1.00000000
vn -0.00000000 -0.00000000 -1.00000000
vn -0.00000000 -0.00000000 -1.00000000
vn -0.00000000 -0.00000000 -1.00000000
vn -0.00000000 -0.00000000 -1.00000000
vn -0.00000000 -0.00000000 -1.00000000
vn -0.00000000 -0.00000000 -1.00000000
vn -0.00000000 -0.00000000 -1.00000000
vn -0.00000000 -0.00000000 -1.00000000
vn -0.00000000 -0.00000000 -1.00000000
vn -0.00000000 -0.00000000 -1.00000000
vn -0.00000000 -0.00000000 -1.00000000
vn -0.00000000 -0.00000000 -1.00000000
vn -0.00000000 -0.00000000 -1.00000000
vn -0.00000000 -0.00000000 -1.00000000
vn -0.00000000 0.00010000 -1.00000000
vn -0.00000000 -0.00000000 -1.00000000
vn -0.00000000 -0.00000000 -1.00000000
vn -0.00000000 -0.00000000 -1.00000000
vn -0.00000000 -0.00000000 -1.00000000
vn -0.00000000 -0.00000000 -1.00000000
vn -0.00000000 -0.00000000 -1.00000000
vn -0.00000000 -0.00000000 -1.00000000
vn -0.00000000 -0.00000000 -1.00000000
vn -0.00000000 -0.00000000 -1.00000000
vn -0.00000000 -0.00000000 -1.00000000
vn -0.00000000 -0.00000000 -1.00000000
vn -0.00000000 -0.00000000 -1.00000000
vn -0.00000000 -0.00000000 -1.00000000
vn -0.00000000 -0.00000000 -1.00000000
vn -0.00000000 -0.00000000 -1.00000000
vn -0.00000000 -0.00000000 -1.00000000
vn -0.00000000 -0.00000000 -1.00000000
vn -0.00000000 -0.00000000 -1.00000000
vn -0.00000000 -0.00000000 -1.00000000
vn -0.00000000 -0.00000000 -1.00000000
vn -0.00000000 -0.00000000 -1.00000000
vn -0.00000000 -0.00000000 -1.00000000
vn -0.00000000 -0.00000000 -1.00000000
vn -0.00000000 -0.00000000 -1.00000000
vn -0.00000000 -0.00000000 -1.00000000
vn -0.00000000 -0.00000000 -1.00000000
vn -0.00000000 -0.00000000 -1.00000000
vn -0.00000000 -0.00000000 -1.00000000
vn -0.00000000 -0.00000000 -1.00000000
vn -0.00000000 -0.00010000 -1.00000000
vn -0.00000000 -0.00000000 -1.00000000
vn -0.00000000 -0.00000000 -1.00000000
vn -0.00000000 -0.00000000 -1.00000000
vn -0.00000000 -0.00000000 -1.00000000
vn -0.00000000 -0.00000000 -1.00000000
vn -0.00000000 -0.00000000 -1.00000000
vn -0.00000000 -0.00000000 -1.00000000
vn -0.00000000 -0.00000000 -1.00000000
vn -0.00000000 -0.00000000 -1.00000000
vn -0.00000000 -0.00000000 -1.00000000
vn -0.00000000 -0.00000000 -1.00000000
vn -0.00000000 -0.00000000 -1.00000000
vn -0.00000000 -0.00000000 -1.00000000
vn -0.00000000 -0.00000000 -1.00000000
vn -0.00000000 -0.00000000 -1.00000000
vn -0.00000000 -0.00000000 1.00000000
vn -0.00000000 -0.00000000 1.00000000
vn -0.00000000 -0.00000000 1.00000000
vn -0.00000000 -0.00000000 1.00000000
vn -0.00000000 -0.00000000 1.00000000
vn -0.00000000 -0.00000000 1.00000000
vn -0.00000000 -0.00000000 1.00000000
vn -0.00000000 -0.00000000 1.00000000
vn -0.00000000 -0.00000000 1.00000000
vn -0.00000000 -0.00000000 1.00000000
vn -0.00000000 -0.00000000 1.00000000
vn -0.00000000 -0.00000000 1.00000000
vn -0.00000000 -0.00000000 1.00000000
vn -0.00000000 -0.00000000 1.00000000
vn -0.00000000 -0.00000000 1.00000000
vn -0.00000000 -0.00000000 1.00000000
vn -0.00000000 -0.00000000 1.00000000
vn -0.00000000 -0.00000000 1.00000000
vn -0.00000000 -0.00000000 1.00000000
vn -0.00000000 -0.00000000 1.00000000
vn -0.00000000 -0.00000000 1.00000000
vn -0.00000000 -0.00000000 1.00000000
vn -0.00000000 -0.00000000 1.00000000
vn -0.00000000 -0.00000000 1.00000000
vn -0.00000000 -0.00000000 1.00000000
vn -0.00000000 -0.00000000 1.00000000
vn -0.00000000 -0.00000000 1.00000000
vn -0.00000000 -0.00000000 1.00000000
vn -0.00000000 -0.00000000 1.00000000
vn -0.00000000 -0.00000000 1.00000000
vn -0.00000000 -0.00000000 1.00000000
vn -0.00000000 -0.00000000 1.00000000
vn -0.00000000 -0.00000000 1.00000000
vn -0.00000000 -0.00000000 1.00000000
vn -0.00000000 -0.00000000 1.00000000
vn -0.00000000 -0.00000000 1.00000000
vn -0.00000000 -0.00000000 1.00000000
vn -0.00000000 -0.00000000 1.00000000
vn -0.00000000 -0.00000000 1.00000000
vn -0.00000000 -0.00000000 1.00000000
vn -0.00000000 -0.00000000 1.00000000
vn -0.00000000 -0.00000000 1.00000000
vn -0.00000000 -0.00000000 1.00000000
vn -0.00000000 -0.00000000 1.00000000
vn -0.00000000 -0.00000000 1.00000000
vn -0.00000000 -0.00000000 1.00000000
vn -0.00000000 -0.00000000 1.00000000
vn -0.00000000 -0.00000000 1.00000000
vn -0.00000000 -0.00000000 1.00000000
vn -0.00000000 -0.00000000 1.00000000
vn -0.00000000 -0.00000000 1.00000000
vn -0.00000000 -0.00000000 1.00000000
vn -0.00000000 -0.00010000 1.00000000
f 1//1 2//2 3//3
f 1//1 3//3 4//4
f 4//4 3//3 5//5
f 4//4 5//5 6//6
f 6//6 5//5 7//7
f 6//6 7//7 8//8
f 8//8 7//7 9//9
f 8//8 9//9 10//10
f 10//10 9//9 11//11
f 10//10 11//11 12//12
f 12//12 11//11 13//13
f 12//12 13//13 14//14
f 14//14 13//13 15//15
f 14//14 15//15 16//16
f 16//16 15//15 17//17
f 16//16 17//17 18//18
f 18//18 17//17 19//19
f 18//18 19//19 20//20
f 20//20 19//19 21//21
f 20//20 21//21 22//22
f 22//22 21//21 23//23
f 22//22 23//23 24//24
f 25//25 24//24 26//26
f 26//26 24//24 23//23
f 27//27 28//28 29//29
f 29//29 28//28 30//30
f 27//27 29//29 31//31
f 27//27 31//31 32//32
f 32//32 31//31 33//33
f 32//32 33//33 34//34
f 34//34 33//33 35//35
f 34//34 35//35 36//36
f 36//36 35//35 37//37
f 36//36 37//37 38//38
f 38//38 37//37 39//39
f 38//38 39//39 40//40
f 40//40 39//39 41//41
f 40//40 41//41 42//42
f 42//42 41//41 43//43
f 42//42 43//43 44//44
f 44//44 43//43 45//45
f 44//44 45//45 46//46
f 46//46 45//45 47//47
f 46//46 47//47 48//48
f 48//48 47//47 49//49
f 48//48 49//49 50//50
f 50//50 49//49 51//51
f 50//50 51//51 52//52
f 52//52 51//51 53//53
f 52//52 53//53 54//54
f 55//55 54//54 56//56
f 56//56 54//54 53//53
f 57//57 58//58 59//59
f 59//59 58//58 60//60
f 57//57 59//59 61//61
f 57//57 61//61 62//62
f 62//62 61//61 63//63
f 62//62 63//63 64//64
f 64//64 63//63 65//65
f 64//64 65//65 66//66
f 66//66 65//65 67//67
f 66//66 67//67 68//68
f 68//68 67//67 69//69
f 68//68 69//69 70//70
f 70//70 69//69 71//71
f 70//70 71//71 72//72
f 72//72 71//71 73//73
f 72//72 73//73 74//74
f 74//74 73//73 75//75
f 74//74 75//75 76//76
f 76//76 75//75 77//77
f 76//76 77//77 78//78
f 78//78 77//77 79//79
f 78//78 79//79 80//80
f 80//80 79//79 81//81
f 80//80 81//81 82//82
f 83//83 82//82 84//84
f 84//84 82//82 81//81
f 85//85 86//86 87//87
f 87//87 86//86 88//88
f 85//85 87//87 89//89
f 85//85 89//89 90//90
f 90//90 89//89 91//91
f 90//90 91//91 92//92
f 92//92 91//91 93//93
f 92//92 93//93 94//94
f 94//94 93//93 95//95
f 94//94 95//95 96//96
f 96//96 95//95 97//97
f 96//96 97//97 98//98
f 98//98 97//97 99//99
f 98//98 99//99 100//100
f 100//100 99//99 101//101
f 100//100 101//101 102//102
f 102//102 101//101 103//103
f 102//102 103//103 104//104
f 104//104 103//103 105//105
f 104//104 105//105 106//106
f 106//106 105//105 107//107
f 106//106 107//107 108//108
f 108//108 107//107 109//109
f 108//108 109//109 110//110
f 111//111 110//110 112//112
f 112//112 110//110 109//109
f 1//1 113//113 2//2
f 2//2 113//113 114//114
f 115//115 116//116 117//117
f 118//118 119//119 120//120
f 121//121 122//122 123//123
f 123//123 122//122 124//124
f 123//123 124//124 125//125
f 126//126 127//127 128//128
f 129//129 131//131 132//132
f 117//117 130//130 133//133
f 117//117 133//133 115//115
f 120//120 134//134 135//135
f 135//135 134//134 136//136
f 135//135 136//136 115//115
f 115//115 136//136 125//125
f 115//115 125//125 137//137
f 137//137 125//125 124//124
f 137//137 124//124 138//138
f 138//138 124//124 126//126
f 138//138 126//126 139//139
f 139//139 126//126 128//128
f 140//140 141//141 142//142
f 129//129 143//143 131//131
f 131//131 143//143 144//144
f 131//131 144//144 145//145
f 145//145 140//140 142//142
f 119//119 118//118 146//146
f 146//146 118//118 147//147
f 146//146 147//147 148//148
f 149//149 150//150 151//151
f 151//151 150//150 146//146
f 151//151 146//146 152//152
f 152//152 146//146 148//148
f 127//127 126//126 153//153
f 153//153 126//126 154//154
f 153//153 154//154 155//155
f 156//156 157//157 158//158
f 158//158 157//157 153//153
f 158//158 153//153 159//159
f 159//159 153//153 155//155
f 160//160 161//161 162//162
f 162//162 161//161 141//141
f 162//162 141//141 163//163
f 163//163 141//141 140//140
f 164//164 165//165 166//166
f 121//121 167//167 122//122
f 122//122 167//167 168//168
f 122//122 168//168 169//169
f 169//169 170//170 171//171
f 169//169 171//171 172//172
f 172//172 173//173 174//174
f 172//172 174//174 175//175
f 175//175 164//164 166//166
f 176//176 177//177 178//178
f 179//179 180//180 181//181
f 181//181 180//180 182//182
f 183//183 184//184 185//185
f 185//185 184//184 186//186
f 185//185 186//186 187//187
f 188//188 189//189 190//190
f 190//190 189//189 191//191
f 190//190 191//191 192//192
f 193//193 194//194 195//195
f 178//178 196//196 176//176
f 176//176 196//196 197//197
f 176//176 197//197 185//185
f 185//185 197//197 198//198
f 185//185 198//198 183//183
f 181//181 197//197 179//179
f 179//179 197//197 196//196
f 179//179 196//196 190//190
f 190//190 196//196 199//199
f 190//190 199//199 188//188
f 195//195 194//194 200//200
f 201//201 202//202 187//187
f 187//187 202//202 203//203
f 204//204 185//185 205//205
f 205//205 185//185 187//187
f 205//205 187//187 206//206
f 206//206 187//187 203//203
f 207//207 208//208 192//192
f 192//192 208//208 209//209
f 210//210 190//190 211//211
f 211//211 190//190 192//192
f 211//211 192//192 212//212
f 212//212 192//192 209//209
f 213//213 181//181 214//214
f 214//214 181//181 182//182
f 214//214 182//182 194//194
f 194//194 182//182 215//215
f 194//194 215//215 200//200
f 216//216 217//217 195//195
f 195//195 217//217 218//218
f 195//195 218//218 193//193
f 219//219 220//220 221//221
f 221//221 220//220 222//222
f 221//221 222//222 223//223
f 223//223 222//222 224//224
f 223//223 224//224 225//225
f 225//225 224//224 226//226
f 225//225 226//226 177//177
f 177//177 226//226 227//227
f 177//177 227//227 178//178
f 178//178 227//227 228//228

