mtllib material.mtl
usemtl Material-塑胶__2_.017
v 0.17052200 -0.03516800 0.02020000
v 0.17066600 -0.03519200 0.02020000
v 0.17052200 -0.03516800 0.02040000
v 0.17066600 -0.03519200 0.02040000
v 0.18227900 -0.03738700 0.02040000
v 0.18227900 -0.03738700 0.02020000
v 0.18401700 -0.03737300 0.02020000
v 0.18401700 -0.03737300 0.02040000
v 0.18562200 -0.03670200 0.02020000
v 0.18562200 -0.03670200 0.02040000
v 0.18685100 -0.03547200 0.02020000
v 0.18685100 -0.03547200 0.02040000
v 0.19482900 -0.02358400 0.02040000
v 0.19482900 -0.02358400 0.02020000
v 0.19515800 -0.02266300 0.02020000
v 0.19515800 -0.02266300 0.02040000
v 0.19515800 -0.02266300 0.02040000
v 0.19515800 -0.02266300 0.02020000
v 0.19501300 -0.02169700 0.02020000
v 0.19501300 -0.02169700 0.02040000
v 0.19501300 -0.02169700 0.02040000
v 0.19501300 -0.02169700 0.02020000
v 0.19442600 -0.02091500 0.02020000
v 0.19442600 -0.02091500 0.02040000
v 0.19442600 -0.02091500 0.02040000
v 0.19442600 -0.02091500 0.02020000
v 0.19354000 -0.02050400 0.02020000
v 0.19354000 -0.02050400 0.02040000
v 0.08361300 0.00026700 0.02040000
v 0.08361300 0.00026700 0.02020000
v 0.08263800 0.00025800 0.02020000
v 0.08263800 0.00025800 0.02040000
v 0.08263800 0.00025800 0.02040000
v 0.08263800 0.00025800 0.02020000
v 0.08174100 -0.00012500 0.02020000
v 0.08174100 -0.00012500 0.02040000
v 0.08105700 -0.00082100 0.02020000
v 0.08105700 -0.00082100 0.02040000
v 0.08105700 -0.00082100 0.02040000
v 0.08105700 -0.00082100 0.02020000
v 0.08069300 -0.00172600 0.02020000
v 0.08069300 -0.00172600 0.02040000
v 0.07815300 -0.01516800 0.02040000
v 0.07815300 -0.01516800 0.02020000
v 0.07816200 -0.01614300 0.02020000
v 0.07816200 -0.01614300 0.02040000
v 0.07816200 -0.01614300 0.02040000
v 0.07816200 -0.01614300 0.02020000
v 0.07854400 -0.01704100 0.02020000
v 0.07854400 -0.01704100 0.02040000
v 0.07924000 -0.01772400 0.02020000
v 0.07924000 -0.01772400 0.02040000
v 0.08014500 -0.01808800 0.02020000
v 0.08014500 -0.01808800 0.02040000
v 0.09014600 -0.01997800 0.02040000
v 0.09014600 -0.01997800 0.02020000
v 0.09024100 -0.01999900 0.02020000
v 0.09024100 -0.01999900 0.02040000
v 0.08174100 -0.00012500 0.02040000
v 0.08105700 -0.00082100 0.02040000
v 0.08069300 -0.00172600 0.02040000
v 0.07854400 -0.01704100 0.02040000
v 0.07924000 -0.01772400 0.02040000
v 0.08014500 -0.01808800 0.02040000
v 0.08263800 0.00025800 0.02040000
v 0.09014600 -0.01997800 0.02040000
v 0.07815300 -0.01516800 0.02040000
v 0.07815300 -0.01516800 0.02040000
v 0.07816200 -0.01614300 0.02040000
v 0.08361300 0.00026700 0.02040000
v 0.09024100 -0.01999900 0.02040000
v 0.19354000 -0.02050400 0.02040000
v 0.18401700 -0.03737300 0.02040000
v 0.18562200 -0.03670200 0.02040000
v 0.18227900 -0.03738700 0.02040000
v 0.18685100 -0.03547200 0.02040000
v 0.17066600 -0.03519200 0.02040000
v 0.17052200 -0.03516800 0.02040000
v 0.19501300 -0.02169700 0.02040000
v 0.19442600 -0.02091500 0.02040000
v 0.19515800 -0.02266300 0.02040000
v 0.19482900 -0.02358400 0.02040000
v 0.19354000 -0.02050400 0.02020000
v 0.17066600 -0.03519200 0.02020000
v 0.17052200 -0.03516800 0.02020000
v 0.08014500 -0.01808800 0.02020000
v 0.07815300 -0.01516800 0.02020000
v 0.09014600 -0.01997800 0.02020000
v 0.08069300 -0.00172600 0.02020000
v 0.18562200 -0.03670200 0.02020000
v 0.18401700 -0.03737300 0.02020000
v 0.18685100 -0.03547200 0.02020000
v 0.18227900 -0.03738700 0.02020000
v 0.19482900 -0.02358400 0.02020000
v 0.17052200 -0.03516800 0.02020000
v 0.08361300 0.00026700 0.02020000
v 0.09024100 -0.01999900 0.02020000
v 0.07924000 -0.01772400 0.02020000
v 0.07854400 -0.01704100 0.02020000
v 0.07816200 -0.01614300 0.02020000
v 0.08263800 0.00025800 0.02020000
v 0.08174100 -0.00012500 0.02020000
v 0.08105700 -0.00082100 0.02020000
v 0.19501300 -0.02169700 0.02020000
v 0.19515800 -0.02266300 0.02020000
v 0.19442600 -0.02091500 0.02020000
vn -0.18040000 -0.98360000 -0.00000000
vn -0.17510000 -0.98460000 -0.00000000
vn -0.17520000 -0.98450000 -0.00000000
vn -0.18040000 -0.98360000 -0.00000000
vn -0.05710000 -0.99840000 -0.00000000
vn -0.12180000 -0.99260000 -0.00000000
vn 0.13620000 -0.99070000 -0.00000000
vn 0.26440000 -0.96440000 -0.00000000
vn 0.50160000 -0.86510000 -0.00000000
vn 0.61030000 -0.79220000 -0.00000000
vn 0.75130000 -0.65990000 -0.00000000
vn 0.79260000 -0.60980000 -0.00000000
vn 0.91050000 -0.41350000 -0.00000000
vn 0.87330000 -0.48710000 -0.00000000
vn 0.94140000 -0.33720000 -0.00000000
vn 0.94140000 -0.33720000 -0.00000000
vn 0.98880000 0.14910000 -0.00000000
vn 0.98880000 0.14900000 -0.00000000
vn 0.98880000 0.14910000 -0.00000000
vn 0.98890000 0.14880000 -0.00000000
vn 0.80000000 0.60000000 -0.00000000
vn 0.80000000 0.60000000 -0.00000000
vn 0.80000000 0.60000000 -0.00000000
vn 0.80000000 0.60000000 -0.00000000
vn 0.42020000 0.90740000 -0.00000000
vn 0.42010000 0.90750000 -0.00000000
vn 0.34430000 0.93890000 -0.00000000
vn 0.26570000 0.96410000 -0.00000000
vn 0.05570000 0.99840000 -0.00000000
vn 0.12110000 0.99260000 -0.00000000
vn -0.00950000 1.00000000 -0.00000000
vn -0.00950000 1.00000000 -0.00000000
vn -0.39170000 0.92010000 -0.00000000
vn -0.39180000 0.92010000 -0.00000000
vn -0.50770000 0.86150000 -0.00000000
vn -0.61690000 0.78710000 -0.00000000
vn -0.71380000 0.70040000 -0.00000000
vn -0.71390000 0.70030000 -0.00000000
vn -0.92750000 0.37370000 -0.00000000
vn -0.92750000 0.37370000 -0.00000000
vn -0.95000000 0.31240000 -0.00000000
vn -0.96840000 0.24950000 -0.00000000
vn -0.99840000 0.05570000 -0.00000000
vn -0.99260000 0.12110000 -0.00000000
vn -1.00000000 -0.00950000 -0.00000000
vn -1.00000000 -0.00950000 -0.00000000
vn -0.92020000 -0.39130000 -0.00000000
vn -0.92020000 -0.39130000 -0.00000000
vn -0.86160000 -0.50770000 -0.00000000
vn -0.78710000 -0.61690000 -0.00000000
vn -0.60160000 -0.79880000 -0.00000000
vn -0.49110000 -0.87110000 -0.00000000
vn -0.31240000 -0.95000000 -0.00000000
vn -0.24940000 -0.96840000 -0.00000000
vn -0.20130000 -0.97950000 -0.00000000
vn -0.19370000 -0.98110000 -0.00000000
vn -0.20140000 -0.97950000 -0.00000000
vn -0.19360000 -0.98110000 -0.00000000
vn -0.00000000 -0.00000000 1.00000000
vn -0.00000000 -0.00000000 1.00000000
vn -0.00000000 -0.00000000 1.00000000
vn -0.00000000 -0.00000000 1.00000000
vn -0.00000000 -0.00000000 1.00000000
vn -0.00000000 -0.00000000 1.00000000
vn -0.00000000 -0.00000000 1.00000000
vn -0.00000000 -0.00000000 1.00000000
vn -0.00000000 -0.00000000 1.00000000
vn -0.00000000 -0.00000000 1.00000000
vn -0.00000000 -0.00000000 1.00000000
vn -0.00000000 -0.00000000 1.00000000
vn -0.00000000 -0.00000000 1.00000000
vn -0.00000000 -0.00000000 1.00000000
vn -0.00000000 -0.00000000 1.00000000
vn -0.00000000 -0.00000000 1.00000000
vn -0.00000000 -0.00000000 1.00000000
vn -0.00000000 -0.00000000 1.00000000
vn -0.00000000 -0.00000000 1.00000000
vn -0.00000000 -0.00000000 1.00000000
vn -0.00000000 -0.00000000 1.00000000
vn -0.00000000 -0.00000000 1.00000000
vn -0.00000000 -0.00000000 1.00000000
vn -0.00000000 -0.00000000 1.00000000
vn -0.00000000 -0.00000000 -1.00000000
vn -0.00000000 -0.00000000 -1.00000000
vn -0.00000000 -0.00000000 -1.00000000
vn -0.00000000 -0.00000000 -1.00000000
vn -0.00000000 -0.00000000 -1.00000000
vn -0.00000000 -0.00000000 -1.00000000
vn -0.00000000 -0.00000000 -1.00000000
vn -0.00000000 -0.00000000 -1.00000000
vn -0.00000000 -0.00000000 -1.00000000
vn -0.00000000 -0.00000000 -1.00000000
vn -0.00000000 -0.00000000 -1.00000000
vn -0.00000000 -0.00000000 -1.00000000
vn -0.00000000 -0.00000000 -1.00000000
vn -0.00000000 -0.00000000 -1.00000000
vn -0.00000000 -0.00000000 -1.00000000
vn -0.00000000 -0.00000000 -1.00000000
vn -0.00000000 -0.00000000 -1.00000000
vn -0.00000000 -0.00000000 -1.00000000
vn -0.00000000 -0.00000000 -1.00000000
vn -0.00000000 -0.00000000 -1.00000000
vn -0.00000000 -0.00000000 -1.00000000
vn -0.00000000 -0.00000000 -1.00000000
vn -0.00000000 -0.00000000 -1.00000000
vn -0.00000000 -0.00000000 -1.00000000
f 1//1 2//2 3//3
f 3//3 2//2 4//4
f 5//5 4//4 6//6
f 6//6 4//4 2//2
f 5//5 6//6 7//7
f 5//5 7//7 8//8
f 8//8 7//7 9//9
f 8//8 9//9 10//10
f 10//10 9//9 11//11
f 10//10 11//11 12//12
f 13//13 12//12 14//14
f 14//14 12//12 11//11
f 13//13 14//14 15//15
f 13//13 15//15 16//16
f 17//17 18//18 19//19
f 17//17 19//19 20//20
f 21//21 22//22 23//23
f 21//21 23//23 24//24
f 25//25 26//26 27//27
f 25//25 27//27 28//28
f 29//29 28//28 30//30
f 30//30 28//28 27//27
f 29//29 30//30 31//31
f 29//29 31//31 32//32
f 33//33 34//34 35//35
f 33//33 35//35 36//36
f 36//36 35//35 37//37
f 36//36 37//37 38//38
f 39//39 40//40 41//41
f 39//39 41//41 42//42
f 43//43 42//42 44//44
f 44//44 42//42 41//41
f 43//43 44//44 45//45
f 43//43 45//45 46//46
f 47//47 48//48 49//49
f 47//47 49//49 50//50
f 50//50 49//49 51//51
f 50//50 51//51 52//52
f 52//52 51//51 53//53
f 52//52 53//53 54//54
f 55//55 54//54 56//56
f 56//56 54//54 53//53
f 56//56 57//57 55//55
f 55//55 57//57 58//58
f 3//3 58//58 1//1
f 1//1 58//58 57//57
f 59//59 60//60 61//61
f 62//62 63//63 64//64
f 65//65 59//59 66//66
f 59//59 61//61 66//66
f 66//66 61//61 67//67
f 66//66 67//67 64//64
f 64//64 68//68 69//69
f 64//64 69//69 62//62
f 65//65 66//66 70//70
f 70//70 66//66 71//71
f 70//70 71//71 72//72
f 73//73 74//74 75//75
f 75//75 74//74 76//76
f 75//75 76//76 77//77
f 77//77 76//76 72//72
f 77//77 72//72 78//78
f 78//78 72//72 71//71
f 79//79 80//80 81//81
f 81//81 80//80 72//72
f 81//81 72//72 82//82
f 82//82 72//72 76//76
f 83//83 84//84 85//85
f 86//86 87//87 88//88
f 88//88 87//87 89//89
f 90//90 91//91 92//92
f 92//92 91//91 93//93
f 92//92 93//93 94//94
f 83//83 95//95 96//96
f 96//96 95//95 97//97
f 96//96 97//97 88//88
f 86//86 98//98 87//87
f 87//87 98//98 99//99
f 87//87 99//99 100//100
f 101//101 96//96 102//102
f 102//102 96//96 88//88
f 102//102 88//88 103//103
f 103//103 88//88 89//89
f 104//104 105//105 106//106
f 106//106 105//105 94//94
f 106//106 94//94 83//83
f 83//83 94//94 93//93
f 83//83 93//93 84//84

