mtllib material.mtl
usemtl Material-塑胶__3_.051
v 0.29223300 -0.01189400 0.04730000
v 0.29223300 -0.01189400 0.04720000
v 0.29225900 -0.01191100 0.04720000
v 0.29225900 -0.01191100 0.04730000
v 0.29228700 -0.01192300 0.04720000
v 0.29228700 -0.01192300 0.04730000
v 0.29231700 -0.01193200 0.04720000
v 0.29231700 -0.01193200 0.04730000
v 0.29234700 -0.01193600 0.04720000
v 0.29234700 -0.01193600 0.04730000
v 0.29237900 -0.01193600 0.04720000
v 0.29237900 -0.01193600 0.04730000
v 0.29241000 -0.01193100 0.04720000
v 0.29241000 -0.01193100 0.04730000
v 0.29244100 -0.01192300 0.04720000
v 0.29244100 -0.01192300 0.04730000
v 0.29247000 -0.01191000 0.04720000
v 0.29247000 -0.01191000 0.04730000
v 0.29249700 -0.01189400 0.04720000
v 0.29249700 -0.01189400 0.04730000
v 0.29252100 -0.01187300 0.04720000
v 0.29252100 -0.01187300 0.04730000
v 0.29254100 -0.01185100 0.04720000
v 0.29254100 -0.01185100 0.04730000
v 0.29254700 -0.01184200 0.04720000
v 0.29254700 -0.01184200 0.04730000
v 0.29255700 -0.01182900 0.04730000
v 0.29255700 -0.01182900 0.04720000
v 0.29257300 -0.01180200 0.04720000
v 0.29257300 -0.01180200 0.04730000
v 0.29258600 -0.01177400 0.04720000
v 0.29258600 -0.01177400 0.04730000
v 0.29259400 -0.01174400 0.04720000
v 0.29259400 -0.01174400 0.04730000
v 0.29259800 -0.01171400 0.04720000
v 0.29259800 -0.01171400 0.04730000
v 0.29259800 -0.01168300 0.04720000
v 0.29259800 -0.01168300 0.04730000
v 0.29259600 -0.01166100 0.04720000
v 0.29259600 -0.01166100 0.04730000
v 0.29259000 -0.01163000 0.04720000
v 0.29259000 -0.01163000 0.04730000
v 0.29257800 -0.01160200 0.04720000
v 0.29257800 -0.01160200 0.04730000
v 0.29256300 -0.01157500 0.04720000
v 0.29256300 -0.01157500 0.04730000
v 0.29254300 -0.01154900 0.04720000
v 0.29254300 -0.01154900 0.04730000
v 0.29252100 -0.01152700 0.04720000
v 0.29252100 -0.01152700 0.04730000
v 0.29250600 -0.01151500 0.04720000
v 0.29250600 -0.01151500 0.04730000
v 0.29247800 -0.01149800 0.04720000
v 0.29247800 -0.01149800 0.04730000
v 0.29245000 -0.01148500 0.04720000
v 0.29245000 -0.01148500 0.04730000
v 0.29242100 -0.01147700 0.04720000
v 0.29242100 -0.01147700 0.04730000
v 0.29239000 -0.01147200 0.04720000
v 0.29239000 -0.01147200 0.04730000
v 0.29235800 -0.01147200 0.04720000
v 0.29235800 -0.01147200 0.04730000
v 0.29232800 -0.01147700 0.04720000
v 0.29232800 -0.01147700 0.04730000
v 0.29229700 -0.01148500 0.04720000
v 0.29229700 -0.01148500 0.04730000
v 0.29226800 -0.01149800 0.04720000
v 0.29226800 -0.01149800 0.04730000
v 0.29224000 -0.01151400 0.04720000
v 0.29224000 -0.01151400 0.04730000
v 0.29221600 -0.01153500 0.04720000
v 0.29221600 -0.01153500 0.04730000
v 0.29219700 -0.01155700 0.04720000
v 0.29219700 -0.01155700 0.04730000
v 0.29219000 -0.01156500 0.04720000
v 0.29219000 -0.01156500 0.04730000
v 0.29218100 -0.01157900 0.04730000
v 0.29218100 -0.01157900 0.04720000
v 0.29216400 -0.01160600 0.04720000
v 0.29216400 -0.01160600 0.04730000
v 0.29215100 -0.01163400 0.04720000
v 0.29215100 -0.01163400 0.04730000
v 0.29214300 -0.01166300 0.04720000
v 0.29214300 -0.01166300 0.04730000
v 0.29213900 -0.01169400 0.04720000
v 0.29213900 -0.01169400 0.04730000
v 0.29213900 -0.01172500 0.04720000
v 0.29213900 -0.01172500 0.04730000
v 0.29214200 -0.01174700 0.04720000
v 0.29214200 -0.01174700 0.04730000
v 0.29214900 -0.01177800 0.04720000
v 0.29214900 -0.01177800 0.04730000
v 0.29216100 -0.01180900 0.04720000
v 0.29216100 -0.01180900 0.04730000
v 0.29217700 -0.01183600 0.04720000
v 0.29217700 -0.01183600 0.04730000
v 0.29219700 -0.01186200 0.04720000
v 0.29219700 -0.01186200 0.04730000
v 0.29222000 -0.01188400 0.04720000
v 0.29222000 -0.01188400 0.04730000
v 0.29254100 -0.01185100 0.04730000
v 0.29254700 -0.01184200 0.04730000
v 0.29218100 -0.01157900 0.04730000
v 0.29259800 -0.01168300 0.04730000
v 0.29259600 -0.01166100 0.04730000
v 0.29219700 -0.01155700 0.04730000
v 0.29256300 -0.01157500 0.04730000
v 0.29254300 -0.01154900 0.04730000
v 0.29252100 -0.01152700 0.04730000
v 0.29250600 -0.01151500 0.04730000
v 0.29221600 -0.01153500 0.04730000
v 0.29221600 -0.01153500 0.04730000
v 0.29219000 -0.01156500 0.04730000
v 0.29219000 -0.01156500 0.04730000
v 0.29254700 -0.01184200 0.04730000
v 0.29255700 -0.01182900 0.04730000
v 0.29255700 -0.01182900 0.04730000
v 0.29257300 -0.01180200 0.04730000
v 0.29258600 -0.01177400 0.04730000
v 0.29234700 -0.01193600 0.04730000
v 0.29237900 -0.01193600 0.04730000
v 0.29259400 -0.01174400 0.04730000
v 0.29259800 -0.01171400 0.04730000
v 0.29259000 -0.01163000 0.04730000
v 0.29257800 -0.01160200 0.04730000
v 0.29250600 -0.01151500 0.04730000
v 0.29247800 -0.01149800 0.04730000
v 0.29245000 -0.01148500 0.04730000
v 0.29242100 -0.01147700 0.04730000
v 0.29216400 -0.01160600 0.04730000
v 0.29215100 -0.01163400 0.04730000
v 0.29222000 -0.01188400 0.04730000
v 0.29214300 -0.01166300 0.04730000
v 0.29214200 -0.01174700 0.04730000
v 0.29214900 -0.01177800 0.04730000
v 0.29225900 -0.01191100 0.04730000
v 0.29228700 -0.01192300 0.04730000
v 0.29231700 -0.01193200 0.04730000
v 0.29213900 -0.01169400 0.04730000
v 0.29213900 -0.01172500 0.04730000
v 0.29223300 -0.01189400 0.04730000
v 0.29216100 -0.01180900 0.04730000
v 0.29217700 -0.01183600 0.04730000
v 0.29219700 -0.01186200 0.04730000
v 0.29241000 -0.01193100 0.04730000
v 0.29244100 -0.01192300 0.04730000
v 0.29247000 -0.01191000 0.04730000
v 0.29239000 -0.01147200 0.04730000
v 0.29235800 -0.01147200 0.04730000
v 0.29232800 -0.01147700 0.04730000
v 0.29249700 -0.01189400 0.04730000
v 0.29252100 -0.01187300 0.04730000
v 0.29229700 -0.01148500 0.04730000
v 0.29226800 -0.01149800 0.04730000
v 0.29224000 -0.01151400 0.04730000
v 0.29218100 -0.01157900 0.04720000
v 0.29219000 -0.01156500 0.04720000
v 0.29255700 -0.01182900 0.04720000
v 0.29219700 -0.01155700 0.04720000
v 0.29257300 -0.01180200 0.04720000
v 0.29254700 -0.01184200 0.04720000
v 0.29254100 -0.01185100 0.04720000
v 0.29252100 -0.01187300 0.04720000
v 0.29214200 -0.01174700 0.04720000
v 0.29213900 -0.01172500 0.04720000
v 0.29222000 -0.01188400 0.04720000
v 0.29241000 -0.01193100 0.04720000
v 0.29237900 -0.01193600 0.04720000
v 0.29214900 -0.01177800 0.04720000
v 0.29242100 -0.01147700 0.04720000
v 0.29245000 -0.01148500 0.04720000
v 0.29221600 -0.01153500 0.04720000
v 0.29254300 -0.01154900 0.04720000
v 0.29256300 -0.01157500 0.04720000
v 0.29257800 -0.01160200 0.04720000
v 0.29259800 -0.01168300 0.04720000
v 0.29259800 -0.01171400 0.04720000
v 0.29244100 -0.01192300 0.04720000
v 0.29234700 -0.01193600 0.04720000
v 0.29231700 -0.01193200 0.04720000
v 0.29228700 -0.01192300 0.04720000
v 0.29216400 -0.01160600 0.04720000
v 0.29215100 -0.01163400 0.04720000
v 0.29247800 -0.01149800 0.04720000
v 0.29250600 -0.01151500 0.04720000
v 0.29252100 -0.01152700 0.04720000
v 0.29259000 -0.01163000 0.04720000
v 0.29259600 -0.01166100 0.04720000
v 0.29259400 -0.01174400 0.04720000
v 0.29258600 -0.01177400 0.04720000
v 0.29225900 -0.01191100 0.04720000
v 0.29223300 -0.01189400 0.04720000
v 0.29213900 -0.01169400 0.04720000
v 0.29214300 -0.01166300 0.04720000
v 0.29219700 -0.01186200 0.04720000
v 0.29217700 -0.01183600 0.04720000
v 0.29216100 -0.01180900 0.04720000
v 0.29232800 -0.01147700 0.04720000
v 0.29235800 -0.01147200 0.04720000
v 0.29239000 -0.01147200 0.04720000
v 0.29249700 -0.01189400 0.04720000
v 0.29247000 -0.01191000 0.04720000
v 0.29224000 -0.01151400 0.04720000
v 0.29226800 -0.01149800 0.04720000
v 0.29229700 -0.01148500 0.04720000
vn -0.55570000 -0.83140000 -0.00000000
vn -0.58450000 -0.81140000 -0.00000000
vn -0.48660000 -0.87360000 -0.00000000
vn -0.44590000 -0.89510000 -0.00000000
vn -0.36160000 -0.93230000 -0.00000000
vn -0.31820000 -0.94800000 -0.00000000
vn -0.22970000 -0.97330000 -0.00000000
vn -0.18480000 -0.98280000 -0.00000000
vn -0.09390000 -0.99560000 -0.00000000
vn -0.04800000 -0.99880000 -0.00000000
vn 0.04410000 -0.99900000 -0.00000000
vn 0.09020000 -0.99590000 -0.00000000
vn 0.18200000 -0.98330000 -0.00000000
vn 0.22730000 -0.97380000 -0.00000000
vn 0.31690000 -0.94850000 -0.00000000
vn 0.36090000 -0.93260000 -0.00000000
vn 0.44690000 -0.89460000 -0.00000000
vn 0.48870000 -0.87250000 -0.00000000
vn 0.56910000 -0.82230000 -0.00000000
vn 0.60740000 -0.79440000 -0.00000000
vn 0.67850000 -0.73460000 -0.00000000
vn 0.71130000 -0.70290000 -0.00000000
vn 0.76160000 -0.64800000 -0.00000000
vn 0.78000000 -0.62570000 -0.00000000
vn 0.80160000 -0.59790000 -0.00000000
vn 0.80530000 -0.59280000 -0.00000000
vn 0.83780000 -0.54600000 -0.00000000
vn 0.82380000 -0.56690000 -0.00000000
vn 0.87450000 -0.48500000 -0.00000000
vn 0.89600000 -0.44410000 -0.00000000
vn 0.93300000 -0.35980000 -0.00000000
vn 0.94860000 -0.31650000 -0.00000000
vn 0.97360000 -0.22810000 -0.00000000
vn 0.98310000 -0.18320000 -0.00000000
vn 0.99580000 -0.09180000 -0.00000000
vn 0.99900000 -0.04580000 -0.00000000
vn 0.99920000 0.03990000 -0.00000000
vn 0.99680000 0.07950000 -0.00000000
vn 0.98830000 0.15280000 -0.00000000
vn 0.98250000 0.18640000 -0.00000000
vn 0.96390000 0.26630000 -0.00000000
vn 0.95010000 0.31190000 -0.00000000
vn 0.91620000 0.40070000 -0.00000000
vn 0.89620000 0.44360000 -0.00000000
vn 0.85030000 0.52640000 -0.00000000
vn 0.82450000 0.56590000 -0.00000000
vn 0.76740000 0.64120000 -0.00000000
vn 0.73630000 0.67660000 -0.00000000
vn 0.67690000 0.73610000 -0.00000000
vn 0.64910000 0.76070000 -0.00000000
vn 0.59000000 0.80740000 -0.00000000
vn 0.55880000 0.82930000 -0.00000000
vn 0.48710000 0.87330000 -0.00000000
vn 0.44650000 0.89480000 -0.00000000
vn 0.36270000 0.93190000 -0.00000000
vn 0.31970000 0.94750000 -0.00000000
vn 0.23180000 0.97280000 -0.00000000
vn 0.18690000 0.98240000 -0.00000000
vn 0.09600000 0.99540000 -0.00000000
vn 0.05020000 0.99870000 -0.00000000
vn -0.04240000 0.99910000 -0.00000000
vn -0.08870000 0.99610000 -0.00000000
vn -0.18080000 0.98350000 -0.00000000
vn -0.22640000 0.97400000 -0.00000000
vn -0.31640000 0.94860000 -0.00000000
vn -0.36060000 0.93270000 -0.00000000
vn -0.44680000 0.89460000 -0.00000000
vn -0.48870000 0.87250000 -0.00000000
vn -0.56880000 0.82250000 -0.00000000
vn -0.60700000 0.79470000 -0.00000000
vn -0.67820000 0.73490000 -0.00000000
vn -0.71110000 0.70310000 -0.00000000
vn -0.76190000 0.64780000 -0.00000000
vn -0.78050000 0.62520000 -0.00000000
vn -0.80170000 0.59780000 -0.00000000
vn -0.80510000 0.59320000 -0.00000000
vn -0.83750000 0.54640000 -0.00000000
vn -0.82320000 0.56780000 -0.00000000
vn -0.87460000 0.48480000 -0.00000000
vn -0.89620000 0.44360000 -0.00000000
vn -0.93320000 0.35940000 -0.00000000
vn -0.94870000 0.31630000 -0.00000000
vn -0.97370000 0.22790000 -0.00000000
vn -0.98310000 0.18290000 -0.00000000
vn -0.99580000 0.09170000 -0.00000000
vn -0.99890000 0.04600000 -0.00000000
vn -0.99920000 -0.03900000 -0.00000000
vn -0.99700000 -0.07790000 -0.00000000
vn -0.98760000 -0.15710000 -0.00000000
vn -0.98030000 -0.19730000 -0.00000000
vn -0.95960000 -0.28140000 -0.00000000
vn -0.94570000 -0.32510000 -0.00000000
vn -0.91150000 -0.41130000 -0.00000000
vn -0.89120000 -0.45360000 -0.00000000
vn -0.84460000 -0.53550000 -0.00000000
vn -0.81830000 -0.57480000 -0.00000000
vn -0.76010000 -0.64980000 -0.00000000
vn -0.72820000 -0.68530000 -0.00000000
vn -0.66820000 -0.74390000 -0.00000000
vn -0.64090000 -0.76770000 -0.00000000
vn -0.00000000 0.00010000 1.00000000
vn -0.00000000 -0.00000000 1.00000000
vn -0.00000000 -0.00000000 1.00000000
vn -0.00000000 0.00010000 1.00000000
vn -0.00000000 -0.00010000 1.00000000
vn -0.00000000 -0.00000000 1.00000000
vn -0.00000000 0.00010000 1.00000000
vn -0.00000000 -0.00010000 1.00000000
vn -0.00000000 -0.00020000 1.00000000
vn -0.00000000 -0.00000000 1.00000000
vn -0.00000000 0.00020000 1.00000000
vn -0.00000000 -0.00000000 1.00000000
vn -0.00000000 -0.00000000 1.00000000
vn -0.00000000 -0.00010000 1.00000000
vn -0.00000000 0.00010000 1.00000000
vn -0.00000000 0.00010000 1.00000000
vn -0.00000000 0.00020000 1.00000000
vn -0.00000000 -0.00000000 1.00000000
vn -0.00000000 -0.00000000 1.00000000
vn -0.00000000 -0.00000000 1.00000000
vn -0.00000000 0.00010000 1.00000000
vn -0.00000000 -0.00000000 1.00000000
vn -0.00000000 -0.00000000 1.00000000
vn -0.00000000 -0.00020000 1.00000000
vn -0.00000000 0.00010000 1.00000000
vn -0.00000000 -0.00010000 1.00000000
vn -0.00000000 -0.00010000 1.00000000
vn -0.00000000 -0.00010000 1.00000000
vn -0.00000000 0.00020000 1.00000000
vn -0.00000000 -0.00000000 1.00000000
vn -0.00000000 -0.00000000 1.00000000
vn -0.00000000 -0.00010000 1.00000000
vn -0.00000000 -0.00010000 1.00000000
vn -0.00000000 0.00020000 1.00000000
vn -0.00000000 -0.00020000 1.00000000
vn -0.00000000 -0.00000000 1.00000000
vn -0.00000000 -0.00010000 1.00000000
vn -0.00000000 -0.00000000 1.00000000
vn -0.00000000 -0.00000000 1.00000000
vn -0.00000000 0.00010000 1.00000000
vn -0.00000000 -0.00000000 1.00000000
vn -0.00000000 -0.00000000 1.00000000
vn -0.00000000 0.00020000 1.00000000
vn -0.00000000 -0.00000000 1.00000000
vn -0.00000000 0.00010000 1.00000000
vn -0.00000000 -0.00000000 1.00000000
vn -0.00000000 -0.00000000 1.00000000
vn 0.00010000 -0.00010000 1.00000000
vn 0.00010000 -0.00010000 1.00000000
vn -0.00000000 0.00010000 1.00000000
vn -0.00000000 -0.00000000 1.00000000
vn -0.00000000 0.00010000 1.00000000
vn 0.00020000 -0.00010000 1.00000000
vn 0.00030000 -0.00000000 1.00000000
vn -0.00000000 0.00010000 1.00000000
vn -0.00000000 -0.00000000 -1.00000000
vn -0.00000000 -0.00010000 -1.00000000
vn -0.00000000 -0.00000000 -1.00000000
vn -0.00000000 -0.00020000 -1.00000000
vn -0.00000000 -0.00000000 -1.00000000
vn -0.00000000 0.00020000 -1.00000000
vn -0.00000000 0.00010000 -1.00000000
vn -0.00000000 -0.00000000 -1.00000000
vn -0.00000000 -0.00000000 -1.00000000
vn -0.00000000 -0.00000000 -1.00000000
vn -0.00000000 0.00010000 -1.00000000
vn -0.00000000 0.00010000 -1.00000000
vn -0.00000000 -0.00000000 -1.00000000
vn -0.00000000 -0.00000000 -1.00000000
vn -0.00000000 -0.00010000 -1.00000000
vn -0.00000000 -0.00010000 -1.00000000
vn -0.00000000 -0.00000000 -1.00000000
vn -0.00000000 -0.00000000 -1.00000000
vn -0.00000000 -0.00000000 -1.00000000
vn -0.00000000 -0.00020000 -1.00000000
vn -0.00000000 0.00010000 -1.00000000
vn -0.00000000 -0.00000000 -1.00000000
vn -0.00000000 -0.00000000 -1.00000000
vn -0.00000000 -0.00000000 -1.00000000
vn -0.00000000 -0.00000000 -1.00000000
vn -0.00000000 -0.00000000 -1.00000000
vn -0.00000000 -0.00000000 -1.00000000
vn -0.00000000 -0.00000000 -1.00000000
vn -0.00000000 -0.00000000 -1.00000000
vn -0.00000000 0.00010000 -1.00000000
vn -0.00000000 -0.00000000 -1.00000000
vn -0.00000000 -0.00010000 -1.00000000
vn -0.00000000 0.00020000 -1.00000000
vn -0.00000000 -0.00010000 -1.00000000
vn -0.00000000 -0.00000000 -1.00000000
vn -0.00000000 -0.00010000 -1.00000000
vn -0.00000000 -0.00000000 -1.00000000
vn -0.00000000 -0.00000000 -1.00000000
vn -0.00000000 0.00010000 -1.00000000
vn -0.00000000 -0.00000000 -1.00000000
vn 0.00010000 0.00010000 -1.00000000
vn 0.00010000 -0.00000000 -1.00000000
vn -0.00000000 -0.00000000 -1.00000000
vn -0.00000000 -0.00020000 -1.00000000
vn 0.00010000 -0.00000000 -1.00000000
vn -0.00000000 -0.00000000 -1.00000000
vn -0.00000000 -0.00000000 -1.00000000
vn -0.00000000 -0.00000000 -1.00000000
vn -0.00010000 -0.00000000 -1.00000000
vn -0.00010000 0.00010000 -1.00000000
f 1//1 2//2 3//3
f 1//1 3//3 4//4
f 4//4 3//3 5//5
f 4//4 5//5 6//6
f 6//6 5//5 7//7
f 6//6 7//7 8//8
f 8//8 7//7 9//9
f 8//8 9//9 10//10
f 10//10 9//9 11//11
f 10//10 11//11 12//12
f 12//12 11//11 13//13
f 12//12 13//13 14//14
f 14//14 13//13 15//15
f 14//14 15//15 16//16
f 16//16 15//15 17//17
f 16//16 17//17 18//18
f 18//18 17//17 19//19
f 18//18 19//19 20//20
f 20//20 19//19 21//21
f 20//20 21//21 22//22
f 22//22 21//21 23//23
f 22//22 23//23 24//24
f 24//24 23//23 25//25
f 24//24 25//25 26//26
f 27//27 26//26 28//28
f 28//28 26//26 25//25
f 27//27 28//28 29//29
f 27//27 29//29 30//30
f 30//30 29//29 31//31
f 30//30 31//31 32//32
f 32//32 31//31 33//33
f 32//32 33//33 34//34
f 34//34 33//33 35//35
f 34//34 35//35 36//36
f 36//36 35//35 37//37
f 36//36 37//37 38//38
f 38//38 37//37 39//39
f 38//38 39//39 40//40
f 40//40 39//39 41//41
f 40//40 41//41 42//42
f 42//42 41//41 43//43
f 42//42 43//43 44//44
f 44//44 43//43 45//45
f 44//44 45//45 46//46
f 46//46 45//45 47//47
f 46//46 47//47 48//48
f 48//48 47//47 49//49
f 48//48 49//49 50//50
f 50//50 49//49 51//51
f 50//50 51//51 52//52
f 52//52 51//51 53//53
f 52//52 53//53 54//54
f 54//54 53//53 55//55
f 54//54 55//55 56//56
f 56//56 55//55 57//57
f 56//56 57//57 58//58
f 58//58 57//57 59//59
f 58//58 59//59 60//60
f 60//60 59//59 61//61
f 60//60 61//61 62//62
f 62//62 61//61 63//63
f 62//62 63//63 64//64
f 64//64 63//63 65//65
f 64//64 65//65 66//66
f 66//66 65//65 67//67
f 66//66 67//67 68//68
f 68//68 67//67 69//69
f 68//68 69//69 70//70
f 70//70 69//69 71//71
f 70//70 71//71 72//72
f 72//72 71//71 73//73
f 72//72 73//73 74//74
f 74//74 73//73 75//75
f 74//74 75//75 76//76
f 77//77 76//76 78//78
f 78//78 76//76 75//75
f 77//77 78//78 79//79
f 77//77 79//79 80//80
f 80//80 79//79 81//81
f 80//80 81//81 82//82
f 82//82 81//81 83//83
f 82//82 83//83 84//84
f 84//84 83//83 85//85
f 84//84 85//85 86//86
f 86//86 85//85 87//87
f 86//86 87//87 88//88
f 88//88 87//87 89//89
f 88//88 89//89 90//90
f 90//90 89//89 91//91
f 90//90 91//91 92//92
f 92//92 91//91 93//93
f 92//92 93//93 94//94
f 94//94 93//93 95//95
f 94//94 95//95 96//96
f 96//96 95//95 97//97
f 96//96 97//97 98//98
f 98//98 97//97 99//99
f 98//98 99//99 100//100
f 100//100 99//99 2//2
f 100//100 2//2 1//1
f 101//101 102//102 103//103
f 104//104 105//105 106//106
f 107//107 108//108 106//106
f 108//108 109//109 106//106
f 106//106 109//109 110//110
f 106//106 110//110 112//112
f 103//103 102//102 113//113
f 114//114 115//115 116//116
f 114//114 116//116 106//106
f 106//106 117//117 118//118
f 106//106 118//118 119//119
f 103//103 120//120 121//121
f 119//119 122//122 106//106
f 106//106 122//122 123//123
f 106//106 123//123 104//104
f 105//105 124//124 106//106
f 106//106 124//124 125//125
f 106//106 125//125 107//107
f 126//126 127//127 111//111
f 111//111 127//127 128//128
f 111//111 128//128 129//129
f 130//130 131//131 132//132
f 132//132 131//131 133//133
f 132//132 134//134 135//135
f 136//136 137//137 103//103
f 103//103 137//137 138//138
f 103//103 138//138 120//120
f 133//133 139//139 132//132
f 132//132 139//139 140//140
f 132//132 140//140 134//134
f 130//130 132//132 103//103
f 103//103 132//132 141//141
f 103//103 141//141 136//136
f 135//135 142//142 132//132
f 132//132 142//142 143//143
f 132//132 143//143 144//144
f 121//121 145//145 103//103
f 103//103 145//145 146//146
f 103//103 146//146 147//147
f 129//129 148//148 111//111
f 111//111 148//148 149//149
f 111//111 149//149 150//150
f 147//147 151//151 103//103
f 103//103 151//151 152//152
f 103//103 152//152 101//101
f 150//150 153//153 111//111
f 111//111 153//153 154//154
f 111//111 154//154 155//155
f 156//156 157//157 158//158
f 158//158 157//157 159//159
f 158//158 159//159 160//160
f 158//158 161//161 156//156
f 156//156 161//161 162//162
f 156//156 162//162 163//163
f 164//164 165//165 166//166
f 167//167 168//168 156//156
f 164//164 166//166 169//169
f 170//170 171//171 172//172
f 173//173 174//174 159//159
f 159//159 174//174 175//175
f 159//159 176//176 177//177
f 167//167 156//156 178//178
f 168//168 179//179 156//156
f 156//156 179//179 180//180
f 156//156 180//180 181//181
f 156//156 166//166 182//182
f 182//182 166//166 183//183
f 171//171 184//184 172//172
f 172//172 184//184 185//185
f 172//172 185//185 159//159
f 159//159 185//185 186//186
f 159//159 186//186 173//173
f 175//175 187//187 159//159
f 159//159 187//187 188//188
f 159//159 188//188 176//176
f 177//177 189//189 159//159
f 159//159 189//189 190//190
f 159//159 190//190 160//160
f 181//181 191//191 156//156
f 156//156 191//191 192//192
f 156//156 192//192 166//166
f 165//165 193//193 166//166
f 166//166 193//193 194//194
f 166//166 194//194 183//183
f 195//195 196//196 166//166
f 166//166 196//196 197//197
f 166//166 197//197 169//169
f 198//198 199//199 172//172
f 172//172 199//199 200//200
f 172//172 200//200 170//170
f 163//163 201//201 156//156
f 156//156 201//201 202//202
f 156//156 202//202 178//178
f 203//203 204//204 172//172
f 172//172 204//204 205//205
f 172//172 205//205 198//198

