mtllib material.mtl
usemtl Material-塑胶__3_.048
v 0.29886700 -0.00232200 -0.04730000
v 0.29886700 -0.00232200 -0.04720000
v 0.29889900 -0.00231900 -0.04720000
v 0.29889900 -0.00231900 -0.04730000
v 0.29893200 -0.00232100 -0.04720000
v 0.29893200 -0.00232100 -0.04730000
v 0.29896300 -0.00232700 -0.04720000
v 0.29896300 -0.00232700 -0.04730000
v 0.29899300 -0.00233700 -0.04720000
v 0.29899300 -0.00233700 -0.04730000
v 0.29902200 -0.00235200 -0.04720000
v 0.29902200 -0.00235200 -0.04730000
v 0.29903600 -0.00236200 -0.04720000
v 0.29903600 -0.00236200 -0.04730000
v 0.29906000 -0.00238100 -0.04720000
v 0.29906000 -0.00238100 -0.04730000
v 0.29908100 -0.00240500 -0.04720000
v 0.29908100 -0.00240500 -0.04730000
v 0.29909800 -0.00242900 -0.04720000
v 0.29909800 -0.00242900 -0.04730000
v 0.29911200 -0.00245800 -0.04720000
v 0.29911200 -0.00245800 -0.04730000
v 0.29912200 -0.00248700 -0.04720000
v 0.29912200 -0.00248700 -0.04730000
v 0.29912800 -0.00251900 -0.04720000
v 0.29912800 -0.00251900 -0.04730000
v 0.29913000 -0.00255000 -0.04720000
v 0.29913000 -0.00255000 -0.04730000
v 0.29912700 -0.00258200 -0.04720000
v 0.29912700 -0.00258200 -0.04730000
v 0.29912000 -0.00261200 -0.04720000
v 0.29912000 -0.00261200 -0.04730000
v 0.29910700 -0.00264200 -0.04720000
v 0.29910700 -0.00264200 -0.04730000
v 0.29909300 -0.00266800 -0.04720000
v 0.29909300 -0.00266800 -0.04730000
v 0.29908700 -0.00267600 -0.04720000
v 0.29908700 -0.00267600 -0.04730000
v 0.29907800 -0.00269000 -0.04730000
v 0.29907800 -0.00269000 -0.04720000
v 0.29905700 -0.00271400 -0.04720000
v 0.29905700 -0.00271400 -0.04730000
v 0.29903500 -0.00273500 -0.04720000
v 0.29903500 -0.00273500 -0.04730000
v 0.29901000 -0.00275200 -0.04720000
v 0.29901000 -0.00275200 -0.04730000
v 0.29898300 -0.00276600 -0.04720000
v 0.29898300 -0.00276600 -0.04730000
v 0.29895300 -0.00277600 -0.04720000
v 0.29895300 -0.00277600 -0.04730000
v 0.29893100 -0.00278000 -0.04720000
v 0.29893100 -0.00278000 -0.04730000
v 0.29889900 -0.00278300 -0.04720000
v 0.29889900 -0.00278300 -0.04730000
v 0.29886800 -0.00278200 -0.04720000
v 0.29886800 -0.00278200 -0.04730000
v 0.29883800 -0.00277600 -0.04720000
v 0.29883800 -0.00277600 -0.04730000
v 0.29880800 -0.00276600 -0.04720000
v 0.29880800 -0.00276600 -0.04730000
v 0.29877900 -0.00275200 -0.04720000
v 0.29877900 -0.00275200 -0.04730000
v 0.29876300 -0.00274200 -0.04720000
v 0.29876300 -0.00274200 -0.04730000
v 0.29873900 -0.00272100 -0.04720000
v 0.29873900 -0.00272100 -0.04730000
v 0.29871700 -0.00269800 -0.04720000
v 0.29871700 -0.00269800 -0.04730000
v 0.29870000 -0.00267300 -0.04720000
v 0.29870000 -0.00267300 -0.04730000
v 0.29868600 -0.00264400 -0.04720000
v 0.29868600 -0.00264400 -0.04730000
v 0.29867600 -0.00261500 -0.04720000
v 0.29867600 -0.00261500 -0.04730000
v 0.29867000 -0.00258500 -0.04720000
v 0.29867000 -0.00258500 -0.04730000
v 0.29866800 -0.00255200 -0.04720000
v 0.29866800 -0.00255200 -0.04730000
v 0.29867100 -0.00252000 -0.04720000
v 0.29867100 -0.00252000 -0.04730000
v 0.29867800 -0.00249000 -0.04720000
v 0.29867800 -0.00249000 -0.04730000
v 0.29869000 -0.00246000 -0.04720000
v 0.29869000 -0.00246000 -0.04730000
v 0.29870500 -0.00243400 -0.04720000
v 0.29870500 -0.00243400 -0.04730000
v 0.29871100 -0.00242600 -0.04720000
v 0.29871100 -0.00242600 -0.04730000
v 0.29872000 -0.00241300 -0.04730000
v 0.29872000 -0.00241300 -0.04720000
v 0.29874100 -0.00238900 -0.04720000
v 0.29874100 -0.00238900 -0.04730000
v 0.29876300 -0.00236800 -0.04720000
v 0.29876300 -0.00236800 -0.04730000
v 0.29878900 -0.00235000 -0.04720000
v 0.29878900 -0.00235000 -0.04730000
v 0.29881600 -0.00233600 -0.04720000
v 0.29881600 -0.00233600 -0.04730000
v 0.29884700 -0.00232600 -0.04720000
v 0.29884700 -0.00232600 -0.04730000
v 0.29910700 -0.00264200 -0.04730000
v 0.29909300 -0.00266800 -0.04730000
v 0.29903600 -0.00236200 -0.04730000
v 0.29869000 -0.00246000 -0.04730000
v 0.29870500 -0.00243400 -0.04730000
v 0.29876300 -0.00274200 -0.04730000
v 0.29877900 -0.00275200 -0.04730000
v 0.29903500 -0.00273500 -0.04730000
v 0.29901000 -0.00275200 -0.04730000
v 0.29898300 -0.00276600 -0.04730000
v 0.29895300 -0.00277600 -0.04730000
v 0.29893100 -0.00278000 -0.04730000
v 0.29889900 -0.00278300 -0.04730000
v 0.29886800 -0.00278200 -0.04730000
v 0.29874100 -0.00238900 -0.04730000
v 0.29876300 -0.00236800 -0.04730000
v 0.29909300 -0.00266800 -0.04730000
v 0.29878900 -0.00235000 -0.04730000
v 0.29872000 -0.00241300 -0.04730000
v 0.29908700 -0.00267600 -0.04730000
v 0.29871100 -0.00242600 -0.04730000
v 0.29908700 -0.00267600 -0.04730000
v 0.29907800 -0.00269000 -0.04730000
v 0.29907800 -0.00269000 -0.04730000
v 0.29905700 -0.00271400 -0.04730000
v 0.29883800 -0.00277600 -0.04730000
v 0.29880800 -0.00276600 -0.04730000
v 0.29876300 -0.00274200 -0.04730000
v 0.29873900 -0.00272100 -0.04730000
v 0.29871700 -0.00269800 -0.04730000
v 0.29870000 -0.00267300 -0.04730000
v 0.29881600 -0.00233600 -0.04730000
v 0.29884700 -0.00232600 -0.04730000
v 0.29886700 -0.00232200 -0.04730000
v 0.29903600 -0.00236200 -0.04730000
v 0.29906000 -0.00238100 -0.04730000
v 0.29908100 -0.00240500 -0.04730000
v 0.29909800 -0.00242900 -0.04730000
v 0.29889900 -0.00231900 -0.04730000
v 0.29893200 -0.00232100 -0.04730000
v 0.29896300 -0.00232700 -0.04730000
v 0.29899300 -0.00233700 -0.04730000
v 0.29902200 -0.00235200 -0.04730000
v 0.29868600 -0.00264400 -0.04730000
v 0.29867600 -0.00261500 -0.04730000
v 0.29867000 -0.00258500 -0.04730000
v 0.29911200 -0.00245800 -0.04730000
v 0.29912200 -0.00248700 -0.04730000
v 0.29912800 -0.00251900 -0.04730000
v 0.29866800 -0.00255200 -0.04730000
v 0.29867100 -0.00252000 -0.04730000
v 0.29867800 -0.00249000 -0.04730000
v 0.29913000 -0.00255000 -0.04730000
v 0.29912700 -0.00258200 -0.04730000
v 0.29912000 -0.00261200 -0.04730000
v 0.29889900 -0.00278300 -0.04720000
v 0.29893100 -0.00278000 -0.04720000
v 0.29870500 -0.00243400 -0.04720000
v 0.29895300 -0.00277600 -0.04720000
v 0.29886700 -0.00232200 -0.04720000
v 0.29884700 -0.00232600 -0.04720000
v 0.29909300 -0.00266800 -0.04720000
v 0.29889900 -0.00231900 -0.04720000
v 0.29909800 -0.00242900 -0.04720000
v 0.29908100 -0.00240500 -0.04720000
v 0.29910700 -0.00264200 -0.04720000
v 0.29907800 -0.00269000 -0.04720000
v 0.29908700 -0.00267600 -0.04720000
v 0.29872000 -0.00241300 -0.04720000
v 0.29874100 -0.00238900 -0.04720000
v 0.29876300 -0.00236800 -0.04720000
v 0.29870000 -0.00267300 -0.04720000
v 0.29871700 -0.00269800 -0.04720000
v 0.29869000 -0.00246000 -0.04720000
v 0.29898300 -0.00276600 -0.04720000
v 0.29901000 -0.00275200 -0.04720000
v 0.29903500 -0.00273500 -0.04720000
v 0.29881600 -0.00233600 -0.04720000
v 0.29878900 -0.00235000 -0.04720000
v 0.29873900 -0.00272100 -0.04720000
v 0.29876300 -0.00274200 -0.04720000
v 0.29877900 -0.00275200 -0.04720000
v 0.29880800 -0.00276600 -0.04720000
v 0.29883800 -0.00277600 -0.04720000
v 0.29886800 -0.00278200 -0.04720000
v 0.29871100 -0.00242600 -0.04720000
v 0.29905700 -0.00271400 -0.04720000
v 0.29899300 -0.00233700 -0.04720000
v 0.29896300 -0.00232700 -0.04720000
v 0.29893200 -0.00232100 -0.04720000
v 0.29912800 -0.00251900 -0.04720000
v 0.29912200 -0.00248700 -0.04720000
v 0.29911200 -0.00245800 -0.04720000
v 0.29906000 -0.00238100 -0.04720000
v 0.29903600 -0.00236200 -0.04720000
v 0.29902200 -0.00235200 -0.04720000
v 0.29867000 -0.00258500 -0.04720000
v 0.29867600 -0.00261500 -0.04720000
v 0.29868600 -0.00264400 -0.04720000
v 0.29912000 -0.00261200 -0.04720000
v 0.29912700 -0.00258200 -0.04720000
v 0.29913000 -0.00255000 -0.04720000
v 0.29867800 -0.00249000 -0.04720000
v 0.29867100 -0.00252000 -0.04720000
v 0.29866800 -0.00255200 -0.04720000
vn -0.12580000 0.99210000 -0.00000000
vn -0.16810000 0.98580000 -0.00000000
vn -0.03710000 0.99930000 -0.00000000
vn 0.00910000 1.00000000 -0.00000000
vn 0.10140000 0.99480000 -0.00000000
vn 0.14740000 0.98910000 -0.00000000
vn 0.23900000 0.97100000 -0.00000000
vn 0.28440000 0.95870000 -0.00000000
vn 0.37350000 0.92760000 -0.00000000
vn 0.41700000 0.90890000 -0.00000000
vn 0.49110000 0.87110000 -0.00000000
vn 0.52200000 0.85300000 -0.00000000
vn 0.58190000 0.81320000 -0.00000000
vn 0.61100000 0.79170000 -0.00000000
vn 0.67380000 0.73890000 -0.00000000
vn 0.70710000 0.70710000 -0.00000000
vn 0.76900000 0.63930000 -0.00000000
vn 0.79760000 0.60320000 -0.00000000
vn 0.84940000 0.52770000 -0.00000000
vn 0.87260000 0.48840000 -0.00000000
vn 0.91370000 0.40630000 -0.00000000
vn 0.93140000 0.36390000 -0.00000000
vn 0.96100000 0.27670000 -0.00000000
vn 0.97270000 0.23210000 -0.00000000
vn 0.99000000 0.14110000 -0.00000000
vn 0.99550000 0.09480000 -0.00000000
vn 1.00000000 0.00190000 -0.00000000
vn 0.99900000 -0.04460000 -0.00000000
vn 0.99040000 -0.13830000 -0.00000000
vn 0.98270000 -0.18530000 -0.00000000
vn 0.96070000 -0.27750000 -0.00000000
vn 0.94650000 -0.32270000 -0.00000000
vn 0.91250000 -0.40900000 -0.00000000
vn 0.89290000 -0.45030000 -0.00000000
vn 0.85630000 -0.51650000 -0.00000000
vn 0.84050000 -0.54190000 -0.00000000
vn 0.81890000 -0.57390000 -0.00000000
vn 0.81380000 -0.58110000 -0.00000000
vn 0.78420000 -0.62050000 -0.00000000
vn 0.79660000 -0.60450000 -0.00000000
vn 0.74110000 -0.67140000 -0.00000000
vn 0.70900000 -0.70520000 -0.00000000
vn 0.64060000 -0.76780000 -0.00000000
vn 0.60460000 -0.79660000 -0.00000000
vn 0.52850000 -0.84890000 -0.00000000
vn 0.48880000 -0.87240000 -0.00000000
vn 0.40620000 -0.91380000 -0.00000000
vn 0.36350000 -0.93160000 -0.00000000
vn 0.28270000 -0.95920000 -0.00000000
vn 0.24470000 -0.96960000 -0.00000000
vn 0.17120000 -0.98520000 -0.00000000
vn 0.13560000 -0.99080000 -0.00000000
vn 0.05300000 -0.99860000 -0.00000000
vn 0.00570000 -1.00000000 -0.00000000
vn -0.08860000 -0.99610000 -0.00000000
vn -0.13570000 -0.99080000 -0.00000000
vn -0.22850000 -0.97350000 -0.00000000
vn -0.27420000 -0.96170000 -0.00000000
vn -0.36350000 -0.93160000 -0.00000000
vn -0.40710000 -0.91340000 -0.00000000
vn -0.48330000 -0.87540000 -0.00000000
vn -0.51620000 -0.85650000 -0.00000000
vn -0.57940000 -0.81500000 -0.00000000
vn -0.60960000 -0.79270000 -0.00000000
vn -0.67370000 -0.73900000 -0.00000000
vn -0.70690000 -0.70730000 -0.00000000
vn -0.76880000 -0.63950000 -0.00000000
vn -0.79740000 -0.60350000 -0.00000000
vn -0.84910000 -0.52820000 -0.00000000
vn -0.87230000 -0.48900000 -0.00000000
vn -0.91330000 -0.40720000 -0.00000000
vn -0.93110000 -0.36470000 -0.00000000
vn -0.96080000 -0.27710000 -0.00000000
vn -0.97270000 -0.23220000 -0.00000000
vn -0.99000000 -0.14100000 -0.00000000
vn -0.99550000 -0.09480000 -0.00000000
vn -1.00000000 -0.00150000 -0.00000000
vn -0.99900000 0.04570000 -0.00000000
vn -0.99020000 0.13950000 -0.00000000
vn -0.98260000 0.18600000 -0.00000000
vn -0.96060000 0.27790000 -0.00000000
vn -0.94630000 0.32330000 -0.00000000
vn -0.91210000 0.40990000 -0.00000000
vn -0.89240000 0.45120000 -0.00000000
vn -0.85610000 0.51680000 -0.00000000
vn -0.84080000 0.54140000 -0.00000000
vn -0.82280000 0.56830000 -0.00000000
vn -0.82120000 0.57070000 -0.00000000
vn -0.78570000 0.61870000 -0.00000000
vn -0.80280000 0.59620000 -0.00000000
vn -0.73770000 0.67520000 -0.00000000
vn -0.70590000 0.70830000 -0.00000000
vn -0.63820000 0.76990000 -0.00000000
vn -0.60230000 0.79830000 -0.00000000
vn -0.52710000 0.84980000 -0.00000000
vn -0.48780000 0.87290000 -0.00000000
vn -0.40640000 0.91370000 -0.00000000
vn -0.36450000 0.93120000 -0.00000000
vn -0.28500000 0.95850000 -0.00000000
vn -0.24780000 0.96880000 -0.00000000
vn -0.00000000 -0.00000000 -1.00000000
vn -0.00000000 -0.00000000 -1.00000000
vn -0.00000000 -0.00000000 -1.00000000
vn -0.00000000 -0.00000000 -1.00000000
vn -0.00000000 -0.00000000 -1.00000000
vn -0.00000000 -0.00000000 -1.00000000
vn -0.00000000 -0.00000000 -1.00000000
vn -0.00000000 -0.00000000 -1.00000000
vn -0.00000000 -0.00000000 -1.00000000
vn -0.00000000 0.00010000 -1.00000000
vn -0.00000000 -0.00000000 -1.00000000
vn -0.00000000 -0.00000000 -1.00000000
vn -0.00000000 -0.00000000 -1.00000000
vn -0.00000000 -0.00010000 -1.00000000
vn -0.00000000 -0.00000000 -1.00000000
vn -0.00000000 0.00010000 -1.00000000
vn -0.00000000 -0.00010000 -1.00000000
vn -0.00000000 -0.00000000 -1.00000000
vn -0.00000000 -0.00000000 -1.00000000
vn -0.00000000 -0.00010000 -1.00000000
vn -0.00000000 -0.00000000 -1.00000000
vn -0.00000000 -0.00000000 -1.00000000
vn -0.00000000 -0.00000000 -1.00000000
vn -0.00000000 -0.00010000 -1.00000000
vn -0.00000000 -0.00000000 -1.00000000
vn -0.00000000 -0.00000000 -1.00000000
vn -0.00000000 -0.00000000 -1.00000000
vn -0.00000000 -0.00000000 -1.00000000
vn -0.00000000 -0.00000000 -1.00000000
vn -0.00000000 -0.00000000 -1.00000000
vn -0.00000000 -0.00000000 -1.00000000
vn -0.00000000 -0.00010000 -1.00000000
vn -0.00000000 -0.00000000 -1.00000000
vn -0.00000000 -0.00000000 -1.00000000
vn -0.00000000 -0.00000000 -1.00000000
vn -0.00000000 -0.00000000 -1.00000000
vn -0.00000000 -0.00000000 -1.00000000
vn -0.00000000 -0.00010000 -1.00000000
vn -0.00000000 -0.00010000 -1.00000000
vn -0.00000000 0.00010000 -1.00000000
vn -0.00000000 -0.00000000 -1.00000000
vn -0.00000000 -0.00010000 -1.00000000
vn -0.00000000 -0.00000000 -1.00000000
vn -0.00000000 -0.00000000 -1.00000000
vn -0.00000000 0.00010000 -1.00000000
vn -0.00000000 -0.00000000 -1.00000000
vn -0.00000000 -0.00000000 -1.00000000
vn -0.00000000 -0.00000000 -1.00000000
vn -0.00000000 -0.00000000 -1.00000000
vn -0.00000000 -0.00000000 -1.00000000
vn -0.00000000 -0.00000000 -1.00000000
vn -0.00000000 0.00020000 -1.00000000
vn -0.00000000 -0.00000000 -1.00000000
vn -0.00000000 -0.00000000 -1.00000000
vn -0.00000000 -0.00000000 -1.00000000
vn -0.00000000 -0.00000000 1.00000000
vn -0.00000000 -0.00000000 1.00000000
vn -0.00000000 -0.00020000 1.00000000
vn -0.00000000 -0.00000000 1.00000000
vn -0.00000000 0.00010000 1.00000000
vn -0.00000000 -0.00000000 1.00000000
vn -0.00000000 -0.00020000 1.00000000
vn -0.00000000 0.00010000 1.00000000
vn -0.00000000 -0.00000000 1.00000000
vn -0.00000000 -0.00000000 1.00000000
vn -0.00000000 -0.00000000 1.00000000
vn -0.00000000 -0.00010000 1.00000000
vn -0.00000000 -0.00000000 1.00000000
vn -0.00000000 -0.00000000 1.00000000
vn -0.00000000 -0.00000000 1.00000000
vn -0.00000000 0.00010000 1.00000000
vn -0.00000000 0.00010000 1.00000000
vn -0.00000000 -0.00010000 1.00000000
vn -0.00000000 -0.00000000 1.00000000
vn -0.00000000 -0.00010000 1.00000000
vn -0.00000000 -0.00000000 1.00000000
vn -0.00000000 0.00010000 1.00000000
vn -0.00000000 -0.00010000 1.00000000
vn -0.00000000 -0.00000000 1.00000000
vn -0.00000000 0.00010000 1.00000000
vn -0.00000000 -0.00010000 1.00000000
vn -0.00000000 -0.00000000 1.00000000
vn -0.00000000 -0.00000000 1.00000000
vn -0.00000000 -0.00010000 1.00000000
vn -0.00000000 -0.00000000 1.00000000
vn -0.00000000 -0.00020000 1.00000000
vn -0.00000000 -0.00000000 1.00000000
vn -0.00000000 -0.00000000 1.00000000
vn -0.00000000 -0.00000000 1.00000000
vn -0.00000000 -0.00000000 1.00000000
vn -0.00000000 -0.00000000 1.00000000
vn -0.00000000 -0.00000000 1.00000000
vn -0.00000000 -0.00000000 1.00000000
vn -0.00000000 -0.00000000 1.00000000
vn -0.00000000 -0.00010000 1.00000000
vn -0.00000000 -0.00000000 1.00000000
vn -0.00000000 -0.00000000 1.00000000
vn -0.00000000 -0.00000000 1.00000000
vn -0.00000000 -0.00000000 1.00000000
vn -0.00000000 -0.00000000 1.00000000
vn -0.00000000 -0.00000000 1.00000000
vn -0.00000000 -0.00000000 1.00000000
vn -0.00000000 -0.00000000 1.00000000
vn -0.00000000 -0.00000000 1.00000000
vn -0.00000000 -0.00000000 1.00000000
f 1//1 2//2 3//3
f 1//1 3//3 4//4
f 4//4 3//3 5//5
f 4//4 5//5 6//6
f 6//6 5//5 7//7
f 6//6 7//7 8//8
f 8//8 7//7 9//9
f 8//8 9//9 10//10
f 10//10 9//9 11//11
f 10//10 11//11 12//12
f 12//12 11//11 13//13
f 12//12 13//13 14//14
f 14//14 13//13 15//15
f 14//14 15//15 16//16
f 16//16 15//15 17//17
f 16//16 17//17 18//18
f 18//18 17//17 19//19
f 18//18 19//19 20//20
f 20//20 19//19 21//21
f 20//20 21//21 22//22
f 22//22 21//21 23//23
f 22//22 23//23 24//24
f 24//24 23//23 25//25
f 24//24 25//25 26//26
f 26//26 25//25 27//27
f 26//26 27//27 28//28
f 28//28 27//27 29//29
f 28//28 29//29 30//30
f 30//30 29//29 31//31
f 30//30 31//31 32//32
f 32//32 31//31 33//33
f 32//32 33//33 34//34
f 34//34 33//33 35//35
f 34//34 35//35 36//36
f 36//36 35//35 37//37
f 36//36 37//37 38//38
f 39//39 38//38 40//40
f 40//40 38//38 37//37
f 39//39 40//40 41//41
f 39//39 41//41 42//42
f 42//42 41//41 43//43
f 42//42 43//43 44//44
f 44//44 43//43 45//45
f 44//44 45//45 46//46
f 46//46 45//45 47//47
f 46//46 47//47 48//48
f 48//48 47//47 49//49
f 48//48 49//49 50//50
f 50//50 49//49 51//51
f 50//50 51//51 52//52
f 52//52 51//51 53//53
f 52//52 53//53 54//54
f 54//54 53//53 55//55
f 54//54 55//55 56//56
f 56//56 55//55 57//57
f 56//56 57//57 58//58
f 58//58 57//57 59//59
f 58//58 59//59 60//60
f 60//60 59//59 61//61
f 60//60 61//61 62//62
f 62//62 61//61 63//63
f 62//62 63//63 64//64
f 64//64 63//63 65//65
f 64//64 65//65 66//66
f 66//66 65//65 67//67
f 66//66 67//67 68//68
f 68//68 67//67 69//69
f 68//68 69//69 70//70
f 70//70 69//69 71//71
f 70//70 71//71 72//72
f 72//72 71//71 73//73
f 72//72 73//73 74//74
f 74//74 73//73 75//75
f 74//74 75//75 76//76
f 76//76 75//75 77//77
f 76//76 77//77 78//78
f 78//78 77//77 79//79
f 78//78 79//79 80//80
f 80//80 79//79 81//81
f 80//80 81//81 82//82
f 82//82 81//81 83//83
f 82//82 83//83 84//84
f 84//84 83//83 85//85
f 84//84 85//85 86//86
f 86//86 85//85 87//87
f 86//86 87//87 88//88
f 89//89 88//88 90//90
f 90//90 88//88 87//87
f 89//89 90//90 91//91
f 89//89 91//91 92//92
f 92//92 91//91 93//93
f 92//92 93//93 94//94
f 94//94 93//93 95//95
f 94//94 95//95 96//96
f 96//96 95//95 97//97
f 96//96 97//97 98//98
f 98//98 97//97 99//99
f 98//98 99//99 100//100
f 100//100 99//99 2//2
f 100//100 2//2 1//1
f 101//101 102//102 103//103
f 104//104 105//105 106//106
f 106//106 105//105 107//107
f 108//108 109//109 105//105
f 105//105 109//109 110//110
f 105//105 110//110 111//111
f 111//111 112//112 105//105
f 105//105 112//112 113//113
f 105//105 113//113 114//114
f 115//115 116//116 117//117
f 117//117 116//116 118//118
f 115//115 117//117 119//119
f 119//119 117//117 120//120
f 119//119 120//120 121//121
f 121//121 122//122 123//123
f 121//121 123//123 105//105
f 105//105 124//124 125//125
f 105//105 125//125 108//108
f 114//114 126//126 105//105
f 105//105 126//126 127//127
f 105//105 127//127 107//107
f 128//128 129//129 104//104
f 104//104 129//129 130//130
f 104//104 130//130 131//131
f 118//118 132//132 117//117
f 102//102 132//132 133//133
f 102//102 133//133 134//134
f 135//135 136//136 101//101
f 101//101 136//136 137//137
f 101//101 137//137 138//138
f 134//134 139//139 102//102
f 102//102 139//139 140//140
f 102//102 140//140 141//141
f 141//141 142//142 102//102
f 102//102 142//142 143//143
f 102//102 143//143 103//103
f 131//131 144//144 104//104
f 104//104 144//144 145//145
f 104//104 145//145 146//146
f 138//138 147//147 101//101
f 101//101 147//147 148//148
f 101//101 148//148 149//149
f 146//146 150//150 104//104
f 104//104 150//150 151//151
f 104//104 151//151 152//152
f 149//149 153//153 101//101
f 101//101 153//153 154//154
f 101//101 154//154 155//155
f 156//156 157//157 158//158
f 158//158 157//157 159//159
f 160//160 161//161 162//162
f 160//160 162//162 163//163
f 164//164 165//165 166//166
f 167//167 168//168 169//169
f 169//169 168//168 162//162
f 169//169 162//162 170//170
f 170//170 162//162 171//171
f 172//172 173//173 174//174
f 159//159 175//175 158//158
f 158//158 175//175 176//176
f 158//158 176//176 177//177
f 161//161 178//178 162//162
f 162//162 178//178 179//179
f 162//162 179//179 171//171
f 173//173 180//180 174//174
f 174//174 180//180 181//181
f 174//174 181//181 158//158
f 158//158 181//181 182//182
f 158//158 182//182 183//183
f 183//183 184//184 158//158
f 158//158 184//184 185//185
f 158//158 185//185 156//156
f 169//169 186//186 167//167
f 167//167 186//186 158//158
f 167//167 158//158 187//187
f 187//187 158//158 177//177
f 188//188 189//189 162//162
f 162//162 189//189 190//190
f 162//162 190//190 163//163
f 191//191 192//192 166//166
f 166//166 192//192 193//193
f 166//166 193//193 164//164
f 165//165 194//194 166//166
f 166//166 194//194 195//195
f 166//166 195//195 162//162
f 162//162 195//195 196//196
f 162//162 196//196 188//188
f 197//197 198//198 174//174
f 174//174 198//198 199//199
f 174//174 199//199 172//172
f 200//200 201//201 166//166
f 166//166 201//201 202//202
f 166//166 202//202 191//191
f 203//203 204//204 174//174
f 174//174 204//204 205//205
f 174//174 205//205 197//197

